<svg width="30" height="30" viewBox="0 0 30 30" fill="none" xmlns="http://www.w3.org/2000/svg">
<path d="M21.0008 30H8.85078C6.37578 30 4.42578 27.975 4.42578 25.575V12C4.42578 11.55 4.72578 11.25 5.17578 11.25C5.62578 11.25 5.92578 11.55 5.92578 12V25.575C5.92578 27.225 7.27578 28.5 8.85078 28.5H21.0008C22.6508 28.5 23.9258 27.15 23.9258 25.575V12C23.9258 11.55 24.2258 11.25 24.6758 11.25C25.1258 11.25 25.4258 11.55 25.4258 12V25.575C25.4258 27.975 23.4008 30 21.0008 30Z" fill="black"/>
<path d="M24.9758 3.675H19.2758C18.9008 1.575 17.1008 0 14.9258 0C12.7508 0 10.9508 1.575 10.5758 3.675H4.87578C3.15078 3.675 1.80078 5.025 1.80078 6.75C1.80078 8.475 3.15078 9.75 4.87578 9.75H25.0508C26.7758 9.75 28.1258 8.4 28.1258 6.675C28.1258 4.95 26.7008 3.675 24.9758 3.675ZM14.9258 1.5C16.2758 1.5 17.4008 2.4 17.7008 3.675H12.0758C12.4508 2.4 13.5758 1.5 14.9258 1.5ZM24.9758 8.25H4.87578C4.05078 8.25 3.30078 7.575 3.30078 6.675C3.30078 5.85 3.97578 5.1 4.87578 5.1H25.0508C25.8758 5.1 26.6258 5.775 26.6258 6.675C26.5508 7.575 25.8758 8.25 24.9758 8.25Z" fill="black"/>
<path d="M9.67578 26.3258C9.22578 26.3258 8.92578 26.0258 8.92578 25.5758V13.0508C8.92578 12.6008 9.22578 12.3008 9.67578 12.3008C10.1258 12.3008 10.4258 12.6008 10.4258 13.0508V25.5758C10.4258 25.9508 10.0508 26.3258 9.67578 26.3258Z" fill="black"/>
<path d="M20.1758 26.3258C19.7258 26.3258 19.4258 26.0258 19.4258 25.5758V13.0508C19.4258 12.6008 19.7258 12.3008 20.1758 12.3008C20.6258 12.3008 20.9258 12.6008 20.9258 13.0508V25.5758C20.9258 25.9508 20.5508 26.3258 20.1758 26.3258Z" fill="black"/>
<path d="M14.9258 26.3258C14.4758 26.3258 14.1758 26.0258 14.1758 25.5758V13.0508C14.1758 12.6008 14.4758 12.3008 14.9258 12.3008C15.3758 12.3008 15.6758 12.6008 15.6758 13.0508V25.5758C15.6758 25.9508 15.3008 26.3258 14.9258 26.3258Z" fill="black"/>
</svg>
