<svg width="30" height="30" viewBox="0 0 30 30" fill="none" xmlns="http://www.w3.org/2000/svg">
<path d="M15.5625 15.6563L18.4453 12.7734L27.2812 3.9375L25.0781 1.73438L26.3438 0.46875H21.8906H20.5781H17.1094H16.125H14.9531H10.5469H10.3594H9.23438H8.64844H7.33594H4.21875H2.90625H0.46875V2.88281V4.21875V7.3125V8.625V11.7188V13.0312V16.125V17.4609V20.5547V21.8672V24.9609V26.2734V29.3672L0.351562 29.5312H0.46875H1.66406H6.09375L9.60938 26.0391L7.40625 23.8359L9.60938 21.6328L7.40625 19.4297L9.60938 17.2266L7.40625 15.0234L9.60938 12.8203L7.38281 10.5469L8.90625 9.02344L15.5625 15.6563ZM1.40625 1.40625H1.94531L1.40625 1.94531V1.40625ZM5.71875 28.5938H2.625L6.72656 24.4922L8.27344 26.0391L5.71875 28.5938ZM1.40625 28.4766V25.3828L6.72656 20.0625L8.27344 21.6094L1.40625 28.4766ZM1.40625 24.0469V20.9531L6.72656 15.6328L8.27344 17.1797L1.40625 24.0469ZM15.5625 14.3203L9.58594 8.36719L7.38281 6.16406L8.90625 4.64062L17.1094 12.7734L15.5625 14.3203ZM8.27344 3.9375L1.40625 10.7812V7.6875L6.72656 2.36719L8.27344 3.9375ZM17.7656 12.1172L16.2187 10.5703L24.3984 2.39062L25.9453 3.9375L17.7656 12.1172ZM24.0469 1.40625L17.7656 7.6875L16.2187 6.14062L20.9531 1.40625H24.0469ZM17.1094 1.40625H19.6172L17.7656 3.25781L16.2187 1.71094L16.5234 1.40625H17.1094ZM14.5781 1.40625L17.1094 3.9375L15.5625 5.48438L11.4844 1.40625H14.5781ZM10.1484 1.40625L17.1094 8.34375L15.5625 9.89062L9.58594 3.9375L7.38281 1.73438L7.6875 1.40625H10.1484ZM6.375 1.40625L1.40625 6.375V3.28125L3.28125 1.40625H6.375ZM8.27344 12.75L1.40625 19.6172V16.5469L6.72656 11.2266L8.27344 12.75ZM6.72656 9.89062L1.40625 15.2109V12.1172L6.72656 6.79688L8.27344 8.34375L6.72656 9.89062Z" fill="#dc0606"/>
<path d="M25.4531 14.3203L15.9375 23.8125L18.8203 26.6953L28.3125 17.2031L25.4531 14.3203ZM17.2734 23.8125L25.4531 15.6328L27 17.1797L18.8203 25.3594L17.2734 23.8125Z" fill="#dc0606"/>
<g opacity="0.3">
<path opacity="0.3" d="M9 8.67188H8.0625V12.1875H9V8.67188Z" fill="#dc0606"/>
</g>
<g opacity="0.3">
<path opacity="0.3" d="M9 13.3594H8.0625V16.875H9V13.3594Z" fill="#dc0606"/>
</g>
<g opacity="0.3">
<path opacity="0.3" d="M9 17.5781H8.0625V21.0938H9V17.5781Z" fill="#dc0606"/>
</g>
<g opacity="0.3">
<path opacity="0.3" d="M9 22.0312H8.0625V25.5469H9V22.0312Z" fill="#dc0606"/>
</g>
<g opacity="0.3">
<path opacity="0.3" d="M9 26.4844H8.0625V29.5312H9V26.4844Z" fill="#dc0606"/>
</g>
<g opacity="0.3">
<path opacity="0.3" d="M7.35938 28.0078H6.42188V29.5312H7.35938V28.0078Z" fill="#dc0606"/>
</g>
<g opacity="0.3">
<path opacity="0.3" d="M10.6406 9.60938H9.70312V29.5312H10.6406V9.60938Z" fill="#dc0606"/>
</g>
<g opacity="0.3">
<path opacity="0.3" d="M12.2812 11.25H11.3438V29.5312H12.2812V11.25Z" fill="#dc0606"/>
</g>
<g opacity="0.3">
<path opacity="0.3" d="M13.9219 12.8906H12.9844V29.5312H13.9219V12.8906Z" fill="#dc0606"/>
</g>
<g opacity="0.3">
<path opacity="0.3" d="M15.5625 14.7656H14.625V29.5312H15.5625V14.7656Z" fill="#dc0606"/>
</g>
<g opacity="0.3">
<path opacity="0.3" d="M17.2031 14.0625H16.2656V29.5312H17.2031V14.0625Z" fill="#dc0606"/>
</g>
<g opacity="0.3">
<path opacity="0.3" d="M18.8438 12.1875H17.9062V22.0547H18.8438V12.1875Z" fill="#dc0606"/>
</g>
<g opacity="0.3">
<path opacity="0.3" d="M18.8438 25.5703H17.9062V29.5312H18.8438V25.5703Z" fill="#dc0606"/>
</g>
<g opacity="0.3">
<path opacity="0.3" d="M20.4844 10.5703H19.5469V20.3672H20.4844V10.5703Z" fill="#dc0606"/>
</g>
<g opacity="0.3">
<path opacity="0.3" d="M20.4844 25.0547H19.5469V29.5312H20.4844V25.0547Z" fill="#dc0606"/>
</g>
<g opacity="0.3">
<path opacity="0.3" d="M22.125 8.90625H21.1875V18.6328H22.125V8.90625Z" fill="#dc0606"/>
</g>
<g opacity="0.3">
<path opacity="0.3" d="M22.125 23.3672H21.1875V29.5313H22.125V23.3672Z" fill="#dc0606"/>
</g>
<g opacity="0.3">
<path opacity="0.3" d="M23.7656 7.26562H22.8281V17.0625H23.7656V7.26562Z" fill="#dc0606"/>
</g>
<g opacity="0.3">
<path opacity="0.3" d="M23.7656 21.6797H22.8281V29.5312H23.7656V21.6797Z" fill="#dc0606"/>
</g>
<g opacity="0.3">
<path opacity="0.3" d="M25.4062 5.625H24.4688V15.2812H25.4062V5.625Z" fill="#dc0606"/>
</g>
<g opacity="0.3">
<path opacity="0.3" d="M25.4062 20.0859H24.4688V29.5313H25.4062V20.0859Z" fill="#dc0606"/>
</g>
<g opacity="0.3">
<path opacity="0.3" d="M27.0469 0.46875H26.1094V15.8906H27.0469V0.46875Z" fill="#dc0606"/>
</g>
<g opacity="0.3">
<path opacity="0.3" d="M27.0469 18.4688H26.1094V29.5312H27.0469V18.4688Z" fill="#dc0606"/>
</g>
<g opacity="0.3">
<path opacity="0.3" d="M28.6875 0.46875H27.75V29.5312H28.6875V0.46875Z" fill="#dc0606"/>
</g>
</svg>
