<svg width="18" height="30" viewBox="0 0 18 30" fill="none" xmlns="http://www.w3.org/2000/svg">
<path d="M0.492188 29.5312H17.5078V0.46875H0.492188V29.5312ZM1.42969 1.40625H16.5703V28.5938H1.42969V1.40625Z" fill="#dc0606"/>
<path d="M2.60156 11.8594H15.3984V2.57812H2.60156V11.8594ZM9.46875 7.24219C11.4141 7.45312 12.9375 8.97656 13.1719 10.9219H9.46875V7.24219ZM8.53125 10.9219H4.82812C5.0625 9 6.60937 7.47656 8.53125 7.24219V10.9219ZM3.53906 3.51563H14.4609V10.9219H14.1328C13.8984 8.48438 11.9297 6.53906 9.46875 6.30469V5.10938H8.53125V6.30469C6.07031 6.51563 4.125 8.48438 3.86719 10.9219H3.53906V3.51563Z" fill="#dc0606"/>
<path d="M5.88281 14.4375C5.88281 13.5234 5.15625 12.7969 4.24219 12.7969C3.32812 12.7969 2.60156 13.5234 2.60156 14.4375C2.60156 15.3516 3.32812 16.0781 4.24219 16.0781C5.15625 16.0781 5.88281 15.3281 5.88281 14.4375ZM3.53906 14.4375C3.53906 14.0391 3.84375 13.7344 4.24219 13.7344C4.64062 13.7344 4.94531 14.0391 4.94531 14.4375C4.94531 14.8359 4.64062 15.1406 4.24219 15.1406C3.84375 15.1406 3.53906 14.8125 3.53906 14.4375Z" fill="#dc0606"/>
<path d="M8.92969 12.7969C8.01562 12.7969 7.28906 13.5234 7.28906 14.4375C7.28906 15.3516 8.01562 16.0781 8.92969 16.0781C9.84375 16.0781 10.5703 15.3516 10.5703 14.4375C10.5703 13.5234 9.84375 12.7969 8.92969 12.7969ZM8.92969 15.1406C8.53125 15.1406 8.22656 14.8359 8.22656 14.4375C8.22656 14.0391 8.53125 13.7344 8.92969 13.7344C9.32812 13.7344 9.63281 14.0391 9.63281 14.4375C9.63281 14.8359 9.32812 15.1406 8.92969 15.1406Z" fill="#dc0606"/>
<path d="M13.6172 12.7969C12.7031 12.7969 11.9766 13.5234 11.9766 14.4375C11.9766 15.3516 12.7031 16.0781 13.6172 16.0781C14.5312 16.0781 15.2578 15.3516 15.2578 14.4375C15.2578 13.5234 14.5312 12.7969 13.6172 12.7969ZM13.6172 15.1406C13.2188 15.1406 12.9141 14.8359 12.9141 14.4375C12.9141 14.0391 13.2188 13.7344 13.6172 13.7344C14.0156 13.7344 14.3203 14.0391 14.3203 14.4375C14.3203 14.8359 14.0156 15.1406 13.6172 15.1406Z" fill="#dc0606"/>
<path d="M5.13281 26.8125C5.39063 27.0469 5.64844 27.2578 5.95313 27.4219L6.44531 26.625C6.21094 26.4844 5.97656 26.2969 5.76563 26.1094L5.13281 26.8125Z" fill="#dc0606"/>
<path d="M6.84375 27.8906C7.14844 28.0078 7.47656 28.125 7.82813 28.1953L8.01562 27.2812C7.73438 27.2344 7.45312 27.1406 7.19531 27.0234L6.84375 27.8906Z" fill="#dc0606"/>
<path d="M8.85938 27.375L8.83594 28.3125C8.88281 28.3125 8.95312 28.3125 9 28.3125C9.28125 28.3125 9.5625 28.2891 9.84375 28.2422L9.70312 27.3047C9.44531 27.3516 9.14062 27.375 8.85938 27.375Z" fill="#dc0606"/>
<path d="M10.5469 27.1172L10.8516 28.0078C11.1797 27.8906 11.4844 27.75 11.7891 27.5859L11.3437 26.7656C11.0625 26.9062 10.8047 27.0234 10.5469 27.1172Z" fill="#dc0606"/>
<path d="M12.0234 26.2969L12.6094 27.0234C12.8672 26.8125 13.125 26.5781 13.3359 26.3203L12.6328 25.7109C12.4453 25.9219 12.2578 26.1094 12.0234 26.2969Z" fill="#dc0606"/>
<path d="M6.1875 18.6797L5.64844 17.9297C5.36719 18.1172 5.10938 18.3516 4.875 18.5859L5.55469 19.2422C5.74219 19.0312 5.95312 18.8437 6.1875 18.6797Z" fill="#dc0606"/>
<path d="M3.75 20.2734L4.61719 20.6484C4.73438 20.3906 4.875 20.1328 5.03906 19.8984L4.26563 19.3828C4.03125 19.6406 3.86719 19.9453 3.75 20.2734Z" fill="#dc0606"/>
<path d="M4.73437 24.7734L3.89062 25.1953C4.05469 25.5 4.21875 25.7812 4.42969 26.0625L5.17969 25.5C5.01562 25.2656 4.85156 25.0312 4.73437 24.7734Z" fill="#dc0606"/>
<path d="M4.33594 21.4453L3.42188 21.2344C3.35156 21.5625 3.30469 21.9141 3.28125 22.2422L4.21875 22.2891C4.21875 22.0078 4.26562 21.7266 4.33594 21.4453Z" fill="#dc0606"/>
<path d="M4.21875 23.1562L3.28125 23.2734C3.32812 23.6016 3.39844 23.9531 3.49219 24.2812L4.38281 24C4.3125 23.7187 4.26562 23.4375 4.21875 23.1562Z" fill="#dc0606"/>
<path d="M14.7422 22.1953C14.7188 21.8672 14.6719 21.5156 14.5781 21.1875L13.6641 21.4219C13.7344 21.7031 13.7813 21.9844 13.7813 22.2656L14.7422 22.1953Z" fill="#dc0606"/>
<path d="M12.9844 19.875C13.1484 20.1094 13.2891 20.3672 13.4063 20.625L14.2734 20.25C14.1328 19.9453 13.9688 19.6406 13.7813 19.3594L12.9844 19.875Z" fill="#dc0606"/>
<path d="M11.7891 18.6562C12.0234 18.8203 12.2344 19.0078 12.4453 19.2188L13.125 18.5625C12.8906 18.3281 12.6328 18.0938 12.3516 17.9062L11.7891 18.6562Z" fill="#dc0606"/>
<path d="M6.91406 18.2344C7.17187 18.1172 7.42969 18 7.71094 17.9297L7.45313 17.0156C7.125 17.1094 6.79687 17.2266 6.49219 17.3672L6.91406 18.2344Z" fill="#dc0606"/>
<path d="M13.7344 23.4141L14.6484 23.5781C14.7187 23.25 14.7422 22.8984 14.7422 22.5703H13.8047C13.8047 22.8516 13.7812 23.1328 13.7344 23.4141Z" fill="#dc0606"/>
<path d="M13.1484 25.0078L13.9453 25.4766C14.1094 25.1719 14.2734 24.8672 14.3906 24.5625L13.5 24.2344C13.4062 24.4922 13.2891 24.7734 13.1484 25.0078Z" fill="#dc0606"/>
<path d="M8.55469 17.7891C8.69531 17.7656 8.83594 17.7656 9 17.7656C9.14062 17.7656 9.28125 17.7656 9.42187 17.7891L9.49218 16.8516C9.32812 16.8281 9.16406 16.8281 9 16.8281C8.8125 16.8281 8.64844 16.8281 8.48438 16.8516L8.55469 17.7891Z" fill="#dc0606"/>
<path d="M11.0625 18.2109L11.4609 17.3672C11.1562 17.2266 10.8281 17.1094 10.5 17.0156L10.2656 17.9297C10.5234 18 10.8047 18.0938 11.0625 18.2109Z" fill="#dc0606"/>
<path d="M9 18.3516C6.67969 18.3516 4.78125 20.25 4.78125 22.5703C4.78125 24.8906 6.67969 26.7891 9 26.7891C11.3203 26.7891 13.2188 24.8906 13.2188 22.5703C13.2188 20.25 11.3203 18.3516 9 18.3516ZM9 25.8516C7.19531 25.8516 5.71875 24.375 5.71875 22.5703C5.71875 20.7656 7.19531 19.2891 9 19.2891C10.8047 19.2891 12.2812 20.7656 12.2812 22.5703C12.2812 24.375 10.8047 25.8516 9 25.8516Z" fill="#dc0606"/>
</svg>
