<svg width="30" height="30" viewBox="0 0 30 30" fill="none" xmlns="http://www.w3.org/2000/svg">
<path d="M6.49219 29.5312H23.5078V0.46875H6.49219V29.5312ZM7.42969 1.40625H22.5703V28.5938H7.42969V1.40625Z" fill="#dc0606"/>
<path d="M8.60156 11.8594H21.3984V2.57812H8.60156V11.8594ZM15.4687 7.24219C17.4141 7.45313 18.9375 8.97656 19.1719 10.9219H15.4687V7.24219ZM14.5312 10.9219H10.8281C11.0625 9 12.6094 7.47656 14.5312 7.24219V10.9219ZM9.53906 3.51563H20.4609V10.9219H20.1328C19.8984 8.48438 17.9297 6.53906 15.4687 6.30469V5.10937H14.5312V6.30469C12.0703 6.51563 10.125 8.48438 9.86719 10.9219H9.53906V3.51563Z" fill="#dc0606"/>
<path d="M11.8828 14.4375C11.8828 13.5234 11.1563 12.7969 10.2422 12.7969C9.32812 12.7969 8.60156 13.5234 8.60156 14.4375C8.60156 15.3516 9.32812 16.0781 10.2422 16.0781C11.1563 16.0781 11.8828 15.3281 11.8828 14.4375ZM9.53906 14.4375C9.53906 14.0391 9.84375 13.7344 10.2422 13.7344C10.6406 13.7344 10.9453 14.0391 10.9453 14.4375C10.9453 14.8359 10.6406 15.1406 10.2422 15.1406C9.84375 15.1406 9.53906 14.8125 9.53906 14.4375Z" fill="#dc0606"/>
<path d="M14.9297 12.7969C14.0156 12.7969 13.2891 13.5234 13.2891 14.4375C13.2891 15.3516 14.0156 16.0781 14.9297 16.0781C15.8437 16.0781 16.5703 15.3516 16.5703 14.4375C16.5703 13.5234 15.8437 12.7969 14.9297 12.7969ZM14.9297 15.1406C14.5312 15.1406 14.2266 14.8359 14.2266 14.4375C14.2266 14.0391 14.5312 13.7344 14.9297 13.7344C15.3281 13.7344 15.6328 14.0391 15.6328 14.4375C15.6328 14.8359 15.3281 15.1406 14.9297 15.1406Z" fill="#dc0606"/>
<path d="M19.6172 12.7969C18.7031 12.7969 17.9766 13.5234 17.9766 14.4375C17.9766 15.3516 18.7031 16.0781 19.6172 16.0781C20.5313 16.0781 21.2578 15.3516 21.2578 14.4375C21.2578 13.5234 20.5313 12.7969 19.6172 12.7969ZM19.6172 15.1406C19.2187 15.1406 18.9141 14.8359 18.9141 14.4375C18.9141 14.0391 19.2187 13.7344 19.6172 13.7344C20.0156 13.7344 20.3203 14.0391 20.3203 14.4375C20.3203 14.8359 20.0156 15.1406 19.6172 15.1406Z" fill="#dc0606"/>
<path d="M11.1328 26.8125C11.3906 27.0469 11.6484 27.2578 11.9531 27.4219L12.4453 26.625C12.2109 26.4844 11.9766 26.2969 11.7656 26.1094L11.1328 26.8125Z" fill="#dc0606"/>
<path d="M12.8438 27.8906C13.1484 28.0078 13.4766 28.125 13.8281 28.1953L14.0156 27.2812C13.7344 27.2344 13.4531 27.1406 13.1953 27.0234L12.8438 27.8906Z" fill="#dc0606"/>
<path d="M14.8594 27.375L14.8359 28.3125C14.8828 28.3125 14.9531 28.3125 15 28.3125C15.2812 28.3125 15.5625 28.2891 15.8437 28.2422L15.7031 27.3047C15.4453 27.3516 15.1406 27.375 14.8594 27.375Z" fill="#dc0606"/>
<path d="M16.5469 27.1172L16.8516 28.0078C17.1797 27.8906 17.4844 27.75 17.7891 27.5859L17.3437 26.7656C17.0625 26.9062 16.8047 27.0234 16.5469 27.1172Z" fill="#dc0606"/>
<path d="M18.0234 26.2969L18.6094 27.0234C18.8672 26.8125 19.125 26.5781 19.3359 26.3203L18.6328 25.7109C18.4453 25.9219 18.2578 26.1094 18.0234 26.2969Z" fill="#dc0606"/>
<path d="M12.1875 18.6797L11.6484 17.9297C11.3672 18.1172 11.1094 18.3516 10.875 18.5859L11.5547 19.2422C11.7422 19.0312 11.9531 18.8437 12.1875 18.6797Z" fill="#dc0606"/>
<path d="M9.75 20.2734L10.6172 20.6484C10.7344 20.3906 10.875 20.1328 11.0391 19.8984L10.2656 19.3828C10.0313 19.6406 9.86719 19.9453 9.75 20.2734Z" fill="#dc0606"/>
<path d="M10.7344 24.7734L9.89062 25.1953C10.0547 25.5 10.2187 25.7812 10.4297 26.0625L11.1797 25.5C11.0156 25.2656 10.8516 25.0313 10.7344 24.7734Z" fill="#dc0606"/>
<path d="M10.3359 21.4453L9.42188 21.2344C9.35156 21.5625 9.30469 21.9141 9.28125 22.2422L10.2188 22.2891C10.2188 22.0078 10.2656 21.7266 10.3359 21.4453Z" fill="#dc0606"/>
<path d="M10.2187 23.1562L9.28125 23.2734C9.32812 23.6016 9.39844 23.9531 9.49219 24.2812L10.3828 24C10.3125 23.7187 10.2656 23.4375 10.2187 23.1562Z" fill="#dc0606"/>
<path d="M20.7422 22.1953C20.7187 21.8672 20.6719 21.5156 20.5781 21.1875L19.6641 21.4219C19.7344 21.7031 19.7813 21.9844 19.7813 22.2656L20.7422 22.1953Z" fill="#dc0606"/>
<path d="M18.9844 19.875C19.1484 20.1094 19.2891 20.3672 19.4063 20.625L20.2734 20.25C20.1328 19.9453 19.9688 19.6406 19.7813 19.3594L18.9844 19.875Z" fill="#dc0606"/>
<path d="M17.7891 18.6562C18.0234 18.8203 18.2344 19.0078 18.4453 19.2187L19.125 18.5625C18.8906 18.3281 18.6328 18.0938 18.3516 17.9062L17.7891 18.6562Z" fill="#dc0606"/>
<path d="M12.9141 18.2344C13.1719 18.1172 13.4297 18 13.7109 17.9297L13.4531 17.0156C13.125 17.1094 12.7969 17.2266 12.4922 17.3672L12.9141 18.2344Z" fill="#dc0606"/>
<path d="M19.7344 23.4141L20.6484 23.5781C20.7187 23.25 20.7422 22.8984 20.7422 22.5703H19.8047C19.8047 22.8516 19.7812 23.1328 19.7344 23.4141Z" fill="#dc0606"/>
<path d="M19.1484 25.0078L19.9453 25.4766C20.1094 25.1719 20.2734 24.8672 20.3906 24.5625L19.5 24.2344C19.4062 24.4922 19.2891 24.7734 19.1484 25.0078Z" fill="#dc0606"/>
<path d="M14.5547 17.7891C14.6953 17.7656 14.8359 17.7656 15 17.7656C15.1406 17.7656 15.2812 17.7656 15.4219 17.7891L15.4922 16.8516C15.3281 16.8281 15.1641 16.8281 15 16.8281C14.8125 16.8281 14.6484 16.8281 14.4844 16.8516L14.5547 17.7891Z" fill="#dc0606"/>
<path d="M17.0625 18.2109L17.4609 17.3672C17.1562 17.2266 16.8281 17.1094 16.5 17.0156L16.2656 17.9297C16.5234 18 16.8047 18.0937 17.0625 18.2109Z" fill="#dc0606"/>
<path d="M15 18.3516C12.6797 18.3516 10.7812 20.25 10.7812 22.5703C10.7812 24.8906 12.6797 26.7891 15 26.7891C17.3203 26.7891 19.2188 24.8906 19.2188 22.5703C19.2188 20.25 17.3203 18.3516 15 18.3516ZM15 25.8516C13.1953 25.8516 11.7188 24.375 11.7188 22.5703C11.7188 20.7656 13.1953 19.2891 15 19.2891C16.8047 19.2891 18.2812 20.7656 18.2812 22.5703C18.2812 24.375 16.8047 25.8516 15 25.8516Z" fill="#dc0606"/>
</svg>
