<svg width="30" height="30" viewBox="0 0 30 30" fill="none" xmlns="http://www.w3.org/2000/svg">
<path d="M28.1953 0.46875H26.8828H26.3203H25.0078H21.8906H20.5781H19.4531H16.1484H14.9766H10.5469H10.3594H9.23438H8.64844H7.33594H4.21875H2.90625H0.46875V2.88281V4.21875V7.3125V8.625V11.7188V13.0312V16.125V17.4609V20.5547V21.8672V24.9609V26.2734V29.3672L0.351562 29.5312H0.46875H1.66406H5.17969H6.09375H7.33594H11.7656H13.0781H16.1719H17.4844H18.0234H19.3359H23.7656H24.9844H26.0156H29.4141L29.5312 29.6484V29.5312V28.3359V25.2422V23.9062V20.8125V19.5V16.4062V15.0703V11.9766V10.6641V7.54688V6.23438V3.14062V1.80469V0.46875H28.1953ZM1.40625 1.40625H1.94531L1.40625 1.94531V1.40625ZM27.7969 1.40625L28.5938 2.20312V5.29688L27.2578 3.96094L25.0547 1.75781L25.3828 1.42969H27.7969V1.40625ZM25.0547 23.8359L26.5781 22.3125L28.5703 24.3047V27.3984L27.2344 26.0625L25.0547 23.8359ZM25.0547 19.4062L26.6016 17.8594L28.5938 19.8516V22.9688L27.2578 21.6328L25.0547 19.4062ZM23.7188 19.4297L17.7656 25.3828L16.2187 23.8359L24.375 15.6563L25.9219 17.2031L24.0469 19.0781L23.7188 19.4297ZM7.38281 14.9766L8.90625 13.4531L17.1094 21.6094L16.7109 22.0078L15.5625 23.1562L9.58594 17.2031L9.60938 17.1797L7.38281 14.9766ZM7.40625 10.5469L8.92969 9.02344L17.1094 17.2031L15.5625 18.75L9.58594 12.7734L9.60938 12.75L7.40625 10.5469ZM7.38281 6.14062L8.90625 4.61719L17.1094 12.7734L15.5625 14.3203L9.58594 8.36719L9.60938 8.34375L7.38281 6.14062ZM17.7656 20.9531L16.2187 19.4062L18.4219 17.2031L24.375 11.25L25.9219 12.7969L24.0469 14.6719L17.7656 20.9531ZM24.3984 9.89062L17.7656 16.5234L16.2187 14.9766L24.375 6.82031L25.9219 8.36719L24.3984 9.89062ZM24.0469 5.8125L17.7656 12.1172L16.2187 10.5703L24.375 2.39062L25.9219 3.9375L24.0469 5.8125ZM8.27344 3.9375L1.40625 10.7812V7.6875L6.72656 2.36719L8.27344 3.9375ZM8.27344 17.2031L1.40625 24.0469V20.9531L6.72656 15.6328L8.27344 17.2031ZM8.27344 21.6094L1.40625 28.4766V25.3828L6.72656 20.0625L8.27344 21.6094ZM7.38281 19.4062L8.92969 17.8594L17.1094 26.0391L15.5625 27.5859L9.58594 21.6094L9.60938 21.5859L7.38281 19.4062ZM25.0547 6.16406L26.5781 4.64062L28.5703 6.63281V9.72656L27.2344 8.39062L25.0547 6.16406ZM24.0469 1.40625L17.7656 7.6875L16.2187 6.14062L20.9531 1.40625H24.0469ZM19.4531 1.40625H19.6172L17.7656 3.25781L16.2187 1.71094L16.5234 1.40625H19.4531ZM14.5781 1.40625L17.1094 3.9375L16.5703 4.47656L15.5625 5.48438L11.4844 1.40625H14.5781ZM10.1484 1.40625L17.1094 8.34375L15.5625 9.89062L9.58594 3.9375L7.38281 1.73438L7.6875 1.40625H10.1484ZM6.375 1.40625L1.40625 6.375V3.28125L3.28125 1.40625H6.375ZM1.40625 12.1172L6.72656 6.79688L8.27344 8.34375L6.75 9.86719L1.40625 15.2109V12.1172ZM6.70312 11.2266L8.25 12.7734L1.40625 19.6172V16.5469L6.70312 11.2266ZM5.17969 28.5938H2.60156L6.70312 24.4922L8.25 26.0391L5.71875 28.5938H5.17969ZM7.71094 28.5938L7.35938 28.2422L8.90625 26.6953L10.7812 28.5703H7.71094V28.5938ZM12.1406 28.5938L9.58594 26.0391L7.38281 23.8359L8.90625 22.3125L15.2344 28.5938H12.1406ZM16.5703 28.5938L16.2187 28.2422L24.375 20.0859L25.9219 21.6328L18.9609 28.5938H16.5703ZM20.2969 28.5938L24.375 24.5156L25.9219 26.0625L23.3906 28.5938H20.2969ZM26.0156 28.5938H25.3828L25.0547 28.2656L26.6016 26.7188L28.4766 28.5938H26.0156ZM28.5938 18.5391L27.2578 17.2031L25.0547 15L26.5781 13.4766L28.5938 15.4688V18.5391ZM27.2578 12.7969L25.0781 10.5703L26.6016 9.04688L28.5938 11.0391V14.1328L27.2578 12.7969Z" fill="#dc0606"/>
</svg>
