<svg width="30" height="30" viewBox="0 0 30 30" fill="none" xmlns="http://www.w3.org/2000/svg">
<path d="M10.6375 12.9827L9.97461 12.3198L3.8593 18.4351L4.5222 19.098L10.6375 12.9827Z" fill="#dc0606"/>
<path d="M2.78906 20.5781C3.00911 20.5781 3.1875 20.3997 3.1875 20.1797C3.1875 19.9596 3.00911 19.7812 2.78906 19.7812C2.56901 19.7812 2.39062 19.9596 2.39062 20.1797C2.39062 20.3997 2.56901 20.5781 2.78906 20.5781Z" fill="#dc0606"/>
<path d="M20.2969 6.53909L20.2734 6.4219L20.0859 6.2344L19.3125 3.56253L16.7578 2.92971L16.5234 2.69534L16.4063 2.6719C14.5078 2.15628 12.5156 2.71878 11.1328 4.07815C11.1328 4.07815 11.1328 4.07815 11.1094 4.10159C9.98438 5.22659 9.44531 6.75003 9.51562 8.25003V8.43753C9.49219 9.51565 8.41406 11.3203 7.47656 12.2578L1.17188 18.5625C0.75 19.0078 0.515625 19.5703 0.515625 20.1797C0.515625 20.7891 0.75 21.375 1.17188 21.7969C1.61719 22.2422 2.20312 22.4531 2.78906 22.4531C3.375 22.4531 3.9375 22.2422 4.38281 21.7969L10.6875 15.4922C11.625 14.5313 13.4297 13.4766 14.5078 13.4532C14.6719 13.4766 14.8359 13.4766 15 13.4766C16.4766 13.4766 17.8359 12.9141 18.8906 11.8594C20.2734 10.4766 20.8125 8.43753 20.2969 6.53909ZM16.5234 3.82034L18.5391 4.33596L19.125 6.37503L17.6484 7.89846L15.5859 7.38284L15 5.34378L15.5859 4.75784L16.5234 3.82034ZM16.8984 8.6719L16.4531 9.11721C15.1172 8.92971 14.0391 7.85159 13.8516 6.51565L14.2734 6.09378L14.8594 8.15627L16.8984 8.6719ZM10.0312 14.8125L3.72656 21.1172C3.21094 21.6328 2.34375 21.6328 1.82813 21.1172C1.57031 20.8828 1.42969 20.5313 1.42969 20.1797C1.42969 19.8281 1.57031 19.5 1.82813 19.2422L8.13281 12.9141C8.71875 12.3281 9.49219 11.2735 9.98437 10.2188C10.2422 10.8281 10.6172 11.3906 11.1094 11.8594C11.5781 12.3281 12.1406 12.7032 12.7266 12.9844C11.6484 13.4766 10.6172 14.2266 10.0312 14.8125ZM18.2109 11.1797C17.3672 12 16.2656 12.4688 15.0938 12.4922L14.7656 12.5157C13.6406 12.4688 12.5625 12 11.7891 11.1797C10.9453 10.336 10.5234 9.28128 10.4531 8.17971L10.4766 7.85159C10.5 6.82034 10.8516 5.83596 11.5078 5.06253C11.6016 4.94534 11.6953 4.85159 11.7891 4.7344C12.7969 3.72659 14.1797 3.25784 15.5625 3.44534L14.9297 4.10159L12.8906 6.16409L12.9141 6.37503C13.0547 8.34378 14.6484 9.93753 16.6172 10.0782L16.8281 10.1016L17.9766 8.95315L18.1406 8.76565L19.5 7.40628C19.6875 8.76565 19.2188 10.1953 18.2109 11.1797Z" fill="#dc0606"/>
<path d="M16.9217 6.53895C16.6873 6.46864 16.4764 6.28114 16.4061 6.04676C16.3357 5.81239 16.4061 5.55458 16.5701 5.36708C16.7342 5.17958 16.992 5.10926 17.2498 5.17958C17.4842 5.24989 17.6951 5.43739 17.7654 5.67177C17.8357 5.90614 17.7654 6.16395 17.6014 6.35145C17.4139 6.51552 17.1561 6.60927 16.9217 6.53895Z" fill="#dc0606"/>
<g opacity="0.3">
<path opacity="0.3" d="M25.8371 17.9697L19.7227 11.8535L19.0597 12.5163L25.1741 18.6325L25.8371 17.9697Z" fill="#dc0606"/>
<path opacity="0.3" d="M26.9062 20.1172C27.1263 20.1172 27.3047 19.9388 27.3047 19.7187C27.3047 19.4987 27.1263 19.3203 26.9062 19.3203C26.6862 19.3203 26.5078 19.4987 26.5078 19.7187C26.5078 19.9388 26.6862 20.1172 26.9062 20.1172Z" fill="#dc0606"/>
<path opacity="0.3" d="M28.5234 18.125L22.2188 11.8203C21.2812 10.8828 20.2031 9.07812 20.1797 8L19.2422 8.02344C19.2656 9.52344 20.6484 11.5625 21.5625 12.4766L27.8672 18.7812C28.125 19.0391 28.2656 19.3672 28.2656 19.7188C28.2656 20.0703 28.125 20.4219 27.8672 20.6562C27.3516 21.1719 26.4844 21.1719 25.9688 20.6562L19.6641 14.375C19.1953 13.9062 18.4219 13.3203 17.5781 12.8516C17.7656 12.3828 17.9766 12.0078 18.2344 11.75L17.5547 11.0938C17.2266 11.4453 16.9453 11.9141 16.7344 12.4531C16.1953 12.2422 15.6797 12.0781 15.2109 12.0781L15.1875 13.0156C15.5391 13.0156 15.9844 13.1563 16.4297 13.3438C16.1719 14.2578 16.0312 15.2188 16.0312 15.8984V24.8047C16.0312 25.5547 15.4219 26.1406 14.6953 26.1406C13.9688 26.1406 13.3594 25.5313 13.3594 24.8047V15.8984C13.3594 15.1016 13.1719 14.0469 12.8906 13.1328L12 13.4141C12.2578 14.2344 12.4219 15.1953 12.4219 15.8984V24.8047C12.4219 26.0703 13.4531 27.0781 14.6953 27.0781C15.9375 27.0781 16.9687 26.0469 16.9687 24.8047V15.8984C16.9687 15.2656 17.0859 14.4922 17.2734 13.7656C17.9297 14.1406 18.5625 14.6094 18.9844 15.0547L25.3125 21.3359C25.7578 21.7812 26.3437 21.9922 26.9297 21.9922C27.5156 21.9922 28.1016 21.7812 28.5469 21.3359C28.9688 20.9141 29.2031 20.3281 29.2031 19.7188C29.1797 19.1094 28.9453 18.5469 28.5234 18.125Z" fill="#FF2700"/>
<path opacity="0.3" d="M15.1641 14.1406H14.2266V22.7891H15.1641V14.1406Z" fill="#dc0606"/>
<path opacity="0.3" d="M14.6953 25.1797C14.9154 25.1797 15.0938 25.0013 15.0938 24.7812C15.0938 24.5612 14.9154 24.3828 14.6953 24.3828C14.4753 24.3828 14.2969 24.5612 14.2969 24.7812C14.2969 25.0013 14.4753 25.1797 14.6953 25.1797Z" fill="#dc0606"/>
</g>
</svg>
