<svg width="30" height="30" viewBox="0 0 30 30" fill="none" xmlns="http://www.w3.org/2000/svg">
<g opacity="0.3">
<path opacity="0.3" d="M27.7734 23.9062H26.8359V24.8438H27.7734V23.9062Z" fill="#dc0606"/>
</g>
<g opacity="0.3">
<path opacity="0.3" d="M23.0859 14.5312H22.1484V15.4688H23.0859V14.5312Z" fill="#dc0606"/>
</g>
<g opacity="0.3">
<path opacity="0.3" d="M9.02344 21.5625H8.08594V22.5H9.02344V21.5625Z" fill="#dc0606"/>
</g>
<g opacity="0.3">
<path opacity="0.3" d="M4.33594 19.2188H3.39844V20.1562H4.33594V19.2188Z" fill="#dc0606"/>
</g>
<g opacity="0.3">
<path opacity="0.3" d="M7.03125 29.5311H2.625L4.57031 26.6483C5.78906 24.867 7.92188 24.0233 10.0312 24.492L9.82031 25.4061C8.08594 25.0077 6.32812 25.7108 5.34375 27.1639L4.38281 28.5702H7.03125V29.5311Z" fill="#dc0606"/>
</g>
<g opacity="0.3">
<path opacity="0.3" d="M26.8125 29.5312H22.9687V28.5937H25.0313L24.4688 27.7734C23.7422 26.6953 22.3828 26.2265 21.1406 26.6249L20.8594 25.7343C22.5234 25.2187 24.2812 25.8281 25.2422 27.2578L26.8125 29.5312Z" fill="#dc0606"/>
</g>
<path d="M23.2266 28.5938L21.2109 25.6406C20.7891 25.0078 20.2734 24.4688 19.6875 24V21.3281C19.6875 19.7812 18.4219 18.5156 16.875 18.5156H15.4688V4.875C16.5469 4.66406 17.3438 3.70312 17.3438 2.57812V0.46875H12.6562V2.57812C12.6562 3.70312 13.4531 4.66406 14.5312 4.875V18.5156H13.125C11.5781 18.5156 10.3125 19.7812 10.3125 21.3281V24C9.72656 24.4688 9.23438 25.0078 8.78906 25.6406L6.77344 28.5938H0.9375V29.5312H29.0625V28.5938H23.2266ZM13.5938 2.57812V1.40625H16.4062V2.57812C16.4062 3.35156 15.7734 3.98438 15 3.98438C14.2266 3.98438 13.5938 3.35156 13.5938 2.57812ZM11.25 21.3281C11.25 20.2969 12.0938 19.4531 13.125 19.4531H14.5312V21.3281H15.4688V19.4531H16.875C17.9062 19.4531 18.75 20.2969 18.75 21.3281V23.3672C17.625 22.7109 16.3359 22.3594 15 22.3594C13.6641 22.3594 12.375 22.7109 11.25 23.3672V21.3281ZM12.3984 28.5938L13.3594 26.0625L12.4922 25.7344L11.3906 28.5938H7.92188L9.58594 26.1562C10.8281 24.3281 12.7969 23.2734 15.0234 23.2734C17.25 23.2734 19.2188 24.3281 20.4609 26.1562L22.125 28.5938H12.3984Z" fill="#dc0606"/>
</svg>
