<svg width="30" height="30" viewBox="0 0 30 30" fill="none" xmlns="http://www.w3.org/2000/svg">
<path d="M4.28906 21.1406H3.35156V22.5938H4.28906V21.1406Z" fill="#dc0606"/>
<path d="M21.4688 21.3047H10.5938L9.91406 19.5L6.63281 20.6719H4.57031V23.6484V24.1172V29.5312H6.46875L7.5 24.1172H7.6875V26.7656H8.625V24.1172H9.23438L10.4766 22.2422H21.4219V21.3047H21.4688ZM5.71875 28.5938H5.53125V24.1172H6.58594L5.71875 28.5938ZM8.76563 23.1797H5.53125V21.6094H6.82031L9.375 20.6953L9.75 21.7031L8.76563 23.1797Z" fill="#dc0606"/>
<path d="M9.79688 18.2344L4.96875 5.01562L0.5625 6.63281L5.39063 19.8516L9.79688 18.2344ZM4.40625 6.23438L8.57812 17.6953L5.92969 18.6562L1.78125 7.19531L4.40625 6.23438Z" fill="#dc0606"/>
<path d="M6.57173 20.5096L9.30273 19.5156L8.98211 18.6347L6.25111 19.6286L6.57173 20.5096Z" fill="#dc0606"/>
<g opacity="0.3">
<path opacity="0.3" d="M27.8906 25.7578C26.7422 25.7578 25.7344 25.0547 25.2891 24.0469C25.1016 24.0938 24.9141 24.1172 24.7266 24.1172C23.5078 24.1172 22.5 23.1094 22.5 21.8906C22.5 20.6719 23.5078 19.6641 24.7266 19.6641C24.7734 19.6641 24.8203 19.6641 24.8438 19.6641C24.9141 18.7031 25.5 17.8359 26.3438 17.4141C26.2734 17.2031 26.25 16.9688 26.25 16.7344C26.25 15.9844 26.625 15.3047 27.2344 14.8828C27.2109 14.7656 27.1875 14.625 27.1875 14.5078C27.1875 14.1562 27.2813 13.8516 27.4922 13.5703C27.3047 13.2891 27.1875 12.9844 27.1875 12.6328V7.26562C27.1875 6.35156 27.9141 5.625 28.8281 5.625C28.9453 5.625 29.0391 5.625 29.1563 5.64844L29.5312 5.71875V25.2188L29.2969 25.3594C28.875 25.6172 28.3828 25.7578 27.8906 25.7578ZM25.9219 22.6875L26.0625 23.3203C26.25 24.1875 27.0234 24.8203 27.8906 24.8203C28.125 24.8203 28.3594 24.7734 28.5938 24.6797V13.8047L28.4062 13.9453C28.2187 14.0859 28.125 14.2969 28.125 14.5078C28.125 14.625 28.1484 14.7422 28.2188 14.8594L28.5 15.3281L27.9844 15.5391C27.4922 15.7266 27.1641 16.1953 27.1641 16.7344C27.1641 16.9688 27.2344 17.2031 27.3516 17.4141L27.6797 17.9297L27.0937 18.0937C26.2969 18.3281 25.7578 19.0781 25.7578 19.8984C25.7578 19.9922 25.7578 20.0625 25.7812 20.1797L25.8984 20.9766L25.1484 20.6953C25.0078 20.6484 24.8438 20.6016 24.7031 20.6016C24 20.6016 23.4141 21.1875 23.4141 21.8906C23.4141 22.5938 24 23.1797 24.7031 23.1797C24.9141 23.1797 25.1484 23.1328 25.3359 23.0156L25.9219 22.6875ZM28.5938 6.60938C28.3125 6.70313 28.125 6.96094 28.125 7.26562V12.6328C28.125 12.8438 28.2187 13.0547 28.4062 13.1953L28.5938 13.3359V6.60938Z" fill="#dc0606"/>
</g>
<g opacity="0.3">
<path opacity="0.3" d="M20.7422 13.7578H19.8047V14.6953H20.7422V13.7578Z" fill="#dc0606"/>
</g>
<g opacity="0.3">
<path opacity="0.3" d="M23.0859 4.38281H22.1484V5.32031H23.0859V4.38281Z" fill="#dc0606"/>
</g>
<g opacity="0.3">
<path opacity="0.3" d="M13.7109 9.07031H12.7734V10.0078H13.7109V9.07031Z" fill="#dc0606"/>
</g>
</svg>
