<?xml version="1.0" ?><!DOCTYPE svg  PUBLIC '-//W3C//DTD SVG 1.1//EN'  'http://www.w3.org/Graphics/SVG/1.1/DTD/svg11.dtd'><svg enable-background="new 0 0 128 128" id="Слой_1" version="1.1" viewBox="0 0 128 128" xml:space="preserve" xmlns="http://www.w3.org/2000/svg" xmlns:xlink="http://www.w3.org/1999/xlink"><g><path d="M82,126h44V12H2v14h2h10h28v36H4v0H2v60h0v4h0H82z M46,26h16v36H46V26z M82,26v36H66V26H82z M62,76v36H46   V76H62z M42,112H26V76h16V112z M22,112H6V76h16V112z M6,116h60V72H6v-6h8v0h72V22H14H6v-6h116v106H82H6V116z" fill="#dc0606"/></g></svg>
