<svg width="30" height="30" viewBox="0 0 30 30" fill="none" xmlns="http://www.w3.org/2000/svg">
<path d="M9.84375 29.5312H0.703125V25.7812H9.84375V29.5312ZM1.64062 28.5938H8.90625V26.7188H1.64062V28.5938Z" fill="#dc0606"/>
<path d="M19.4531 29.5312H10.3125V25.7812H19.4531V29.5312ZM11.25 28.5938H18.5156V26.7188H11.25V28.5938Z" fill="#dc0606"/>
<path d="M29.0625 29.5312H19.9219V25.7812H29.0625V29.5312ZM20.8594 28.5938H28.125V26.7188H20.8594V28.5938Z" fill="#dc0606"/>
<path d="M14.5312 25.3125H5.39062V21.5625H14.5312V25.3125ZM6.32812 24.375H13.5938V22.5H6.32812V24.375Z" fill="#dc0606"/>
<path d="M24.1406 25.3125H15V21.5625H24.1406V25.3125ZM15.9375 24.375H23.2031V22.5H15.9375V24.375Z" fill="#dc0606"/>
<path d="M29.0625 25.3125H24.6094V21.5625H29.0625V22.5H25.5469V24.375H29.0625V25.3125Z" fill="#dc0606"/>
<path d="M4.92188 25.3125H0.703125V24.375H3.98438V22.5H0.703125V21.5625H4.92188V25.3125Z" fill="#dc0606"/>
<path d="M9.84375 21.0938H0.703125V17.3438H9.84375V21.0938ZM1.64062 20.1562H8.90625V18.2812H1.64062V20.1562Z" fill="#dc0606"/>
<path d="M19.4531 21.0938H10.3125V17.3438H19.4531V21.0938ZM11.25 20.1562H18.5156V18.2812H11.25V20.1562Z" fill="#dc0606"/>
<path d="M29.0625 21.0938H19.9219V17.3438H29.0625V21.0938ZM20.8594 20.1562H28.125V18.2812H20.8594V20.1562Z" fill="#dc0606"/>
<path d="M14.5312 16.875H5.39062V13.125H14.5312V16.875ZM6.32812 15.9375H13.5938V14.0625H6.32812V15.9375Z" fill="#dc0606"/>
<path d="M24.1406 16.875H15V13.125H24.1406V16.875ZM15.9375 15.9375H23.2031V14.0625H15.9375V15.9375Z" fill="#dc0606"/>
<path d="M29.0625 16.875H24.6094V13.125H29.0625V14.0625H25.5469V15.9375H29.0625V16.875Z" fill="#dc0606"/>
<path d="M4.92188 16.875H0.703125V15.9375H3.98438V14.0625H0.703125V13.125H4.92188V16.875Z" fill="#dc0606"/>
<path d="M9.84375 12.6562H0.703125V8.90625H9.84375V12.6562ZM1.64062 11.7188H8.90625V9.84375H1.64062V11.7188Z" fill="#dc0606"/>
<path d="M19.4531 12.6562H10.3125V8.90625H19.4531V12.6562ZM11.25 11.7188H18.5156V9.84375H11.25V11.7188Z" fill="#dc0606"/>
<g opacity="0.3">
<path opacity="0.3" d="M29.0625 11.7188H20.3906V12.6562H29.0625V11.7188Z" fill="#dc0606"/>
</g>
<path d="M4.92188 8.4375H0.703125V7.5H3.98438V5.625H0.703125V4.6875H4.92188V8.4375Z" fill="#dc0606"/>
<path d="M21.0703 7.17188L19.7812 3.65625L28.3594 0.539062L29.6484 4.05469L21.0703 7.17188ZM21 4.19531L21.6328 5.95312L28.4531 3.46875L27.8203 1.71094L21 4.19531Z" fill="#dc0606"/>
</svg>
