<svg width="30" height="30" viewBox="0 0 30 30" fill="none" xmlns="http://www.w3.org/2000/svg">
<g opacity="0.3">
<path opacity="0.3" d="M10.5469 6.5625H9.60938V13.5938H10.5469V6.5625Z" fill="#dc0606"/>
</g>
<g opacity="0.3">
<path opacity="0.3" d="M12.8906 6.5625H11.9531V13.5938H12.8906V6.5625Z" fill="#dc0606"/>
</g>
<g opacity="0.3">
<path opacity="0.3" d="M15.2344 6.5625H14.2969V13.5938H15.2344V6.5625Z" fill="#dc0606"/>
</g>
<g opacity="0.3">
<path opacity="0.3" d="M17.5781 6.5625H16.6406V13.5938H17.5781V6.5625Z" fill="#dc0606"/>
</g>
<g opacity="0.3">
<path opacity="0.3" d="M19.9219 6.5625H18.9844V13.5938H19.9219V6.5625Z" fill="#dc0606"/>
</g>
<g opacity="0.3">
<path opacity="0.3" d="M22.2656 6.5625H21.3281V13.5938H22.2656V6.5625Z" fill="#dc0606"/>
</g>
<g opacity="0.3">
<path opacity="0.3" d="M24.6094 6.5625H23.6719V13.5938H24.6094V6.5625Z" fill="#dc0606"/>
</g>
<g opacity="0.3">
<path opacity="0.3" d="M26.9531 6.5625H26.0156V13.5938H26.9531V6.5625Z" fill="#dc0606"/>
</g>
<g opacity="0.3">
<path opacity="0.3" d="M29.2969 6.5625H28.3594V13.5938H29.2969V6.5625Z" fill="#dc0606"/>
</g>
<path d="M29.2969 7.03125V6.09375H7.26562V14.0625H29.2969V13.125H8.20312V10.5469H29.2969V9.60938H8.20312V7.03125H29.2969Z" fill="#dc0606"/>
<path d="M24.8438 26.25H23.9062V22.0312H26.0156V16.875H23.9062V15.4688H25.5469V14.5312H21.3281V15.4688H22.9688V16.875H20.8594V17.3438V18.0469H4.45312V4.45312H20.8594V5.15625V5.625H26.0156V0.46875H1.64062V18.0469H0.46875V22.0312H1.64062V28.3594H4.45312V22.0312H22.9688V26.25H22.0312V27.4219H17.8125V28.3594H22.0312V29.5312H24.8438V28.3594H29.0625V27.4219H24.8438V26.25ZM21.7969 17.8125H25.0781V21.0938H21.7969V18.9844V17.8125ZM25.0781 4.6875H21.7969V3.51562V1.40625H25.0781V4.6875ZM2.57812 1.40625H20.8594V3.51562H3.51562V18.0469H2.57812V1.40625ZM1.40625 18.9844H20.8594V21.0938H1.40625V18.9844ZM3.51562 27.4219H2.57812V22.0312H3.51562V27.4219ZM23.9062 28.5938H22.9688V27.1875H23.9062V28.5938Z" fill="#dc0606"/>
</svg>
