<svg width="30" height="30" viewBox="0 0 30 30" fill="none" xmlns="http://www.w3.org/2000/svg">
<g opacity="0.3">
<path opacity="0.3" d="M7.33594 29.5312C6.82031 29.5312 6.35156 29.4141 5.88281 29.2031L6.28125 28.3594C6.60937 28.5234 6.96094 28.5938 7.33594 28.5938C8.71875 28.5938 9.84375 27.4688 9.84375 26.0859C9.84375 24.7031 8.71875 23.5781 7.33594 23.5781C7.00781 23.5781 6.67969 23.6484 6.35156 23.7656L5.97656 22.8984C6.39844 22.7109 6.84375 22.6172 7.3125 22.6172C9.21094 22.6172 10.7578 24.1641 10.7578 26.0625C10.7578 27.9609 9.23437 29.5312 7.33594 29.5312Z" fill="#dc0606"/>
</g>
<g opacity="0.3">
<path opacity="0.3" d="M26.5547 18.8672H24.2109V19.8047H26.5547V18.8672Z" fill="#dc0606"/>
</g>
<g opacity="0.3">
<path opacity="0.3" d="M27.7266 22.6172H23.0391V23.5547H27.7266V22.6172Z" fill="#dc0606"/>
</g>
<g opacity="0.3">
<path opacity="0.3" d="M28.8984 26.3672H21.8672V27.3047H28.8984V26.3672Z" fill="#dc0606"/>
</g>
<path d="M10.4062 24.0234C10.6641 24.0234 10.9219 24 11.1562 23.9531L17.6953 22.8281C18.6328 22.6641 19.4062 21.9609 19.6406 21.0234L21.3281 14.625V13.8984H17.9297C16.3125 11.6484 13.7109 10.3125 10.9453 10.3125C8.17969 10.3125 5.57812 11.6484 3.96094 13.8984H0.9375V14.7188L6.91406 22.3125C7.78125 23.4141 9.04688 24.0234 10.4062 24.0234ZM10.9453 11.25C13.2188 11.25 15.2812 12.2109 16.7578 13.8984H5.13281C6.58594 12.2109 8.67188 11.25 10.9453 11.25ZM20.3203 14.8359L18.75 20.7891C18.6094 21.3516 18.1172 21.7969 17.5312 21.8906L11.0156 23.0391C10.8281 23.0625 10.6172 23.0859 10.4062 23.0859C9.32812 23.0859 8.32031 22.5938 7.66406 21.75L2.22656 14.8359H20.3203Z" fill="#dc0606"/>
<path d="M21.4922 15.5859L19.5938 22.9219L8.22656 24.9844C7.75781 23.625 6.46875 22.6641 4.96875 22.6641C3.07031 22.6641 1.52344 24.2109 1.52344 26.1094C1.52344 28.0078 3.07031 29.5312 4.99219 29.5312C6.91406 29.5312 8.4375 27.9844 8.4375 26.0859C8.4375 26.0156 8.4375 25.9453 8.4375 25.875L14.3438 24.7969L16.0781 28.5234C16.3594 29.1094 16.9219 29.4844 17.5781 29.4844C17.625 29.4844 17.6719 29.4844 17.7422 29.4844C18.4453 29.4141 19.0312 28.9453 19.1953 28.2422L22.2422 16.5H24.8438V15.5625H21.4922V15.5859ZM7.5 26.0859C7.5 27.4688 6.375 28.5938 4.99219 28.5938C3.60937 28.5938 2.48438 27.4688 2.48438 26.0859C2.48438 24.7031 3.60937 23.5781 4.99219 23.5781C6.04688 23.5781 6.9375 24.2344 7.3125 25.1484L4.59375 25.6406L4.75781 26.5547L7.5 26.0625C7.5 26.0625 7.5 26.0625 7.5 26.0859ZM18.2812 28.0312C18.1875 28.3828 17.8828 28.5469 17.6484 28.5703C17.4141 28.5938 17.0859 28.5 16.9219 28.1484L15.2812 24.6328L19.3359 23.9062L18.2812 28.0312Z" fill="#dc0606"/>
<g opacity="0.3">
<path opacity="0.3" d="M19.6406 14.625C18.0234 12.2344 15.2344 10.9688 12.375 11.2969L12.2578 10.3594C15.4687 9.98438 18.5859 11.4141 20.4141 14.0859L19.6406 14.625Z" fill="#dc0606"/>
</g>
</svg>
