<svg width="30" height="30" viewBox="0 0 30 30" fill="none" xmlns="http://www.w3.org/2000/svg">
<path d="M21.29 7.01611H20.3223V10.8871H21.29V7.01611Z" fill="#dc0606"/>
<path d="M18.872 7.01611H17.9043V10.8871H18.872V7.01611Z" fill="#dc0606"/>
<path d="M30.0005 18.1452H22.2586V13.0645H23.7102V12.0968C23.4441 12.0968 23.2263 11.879 23.2263 11.6129V6.29032C23.2263 6.02419 23.4441 5.80645 23.7102 5.80645V4.83871H22.2586V0H16.936V4.83871H15.4844V5.80645C15.7505 5.80645 15.9682 6.02419 15.9682 6.29032V11.6129C15.9682 11.879 15.7505 12.0968 15.4844 12.0968V13.0645H16.936V30H22.2586V23.4677H30.0005V18.1452ZM17.9037 0.967742H21.2908V4.83871H17.9037V0.967742ZM16.8634 5.80645H22.3553C22.307 5.95161 22.2828 6.12097 22.2828 6.29032V11.6129C22.2828 11.7823 22.307 11.9516 22.3553 12.0968H16.8634C16.9118 11.9516 16.936 11.7823 16.936 11.6129V6.29032C16.936 6.12097 16.9118 5.95161 16.8634 5.80645ZM17.9037 29.0323V13.0645H21.2908V18.1935C20.057 18.4113 19.1134 19.5 19.1134 20.8065C19.1134 22.1129 20.057 23.2016 21.2908 23.4194V29.0323H17.9037ZM29.0328 22.5H21.7747C20.8311 22.5 20.0811 21.75 20.0811 20.8065C20.0811 19.8629 20.8311 19.1129 21.7747 19.1129H29.0328V22.5Z" fill="#dc0606"/>
<path d="M4.35446 16.9355H3.38672V24.9194H4.35446V16.9355Z" fill="#dc0606"/>
<path d="M10.1613 3.87097V3.3871C10.1613 1.52419 8.6371 0 6.77419 0H4.59677C2.73387 0 1.20968 1.52419 1.20968 3.3871V3.87097V9.19355H0V13.0645H1.20968V27.3387C1.20968 28.8145 2.39516 30 3.87097 30C5.34677 30 6.53226 28.8145 6.53226 27.3387V16.9355C6.53226 15.7742 5.70968 14.7823 4.59677 14.5645V13.0645H6.77419C8.6371 13.0645 10.1613 11.5403 10.1613 9.67742V9.19355H4.59677V3.87097H10.1613ZM4.59677 0.967742H6.77419C7.93548 0.967742 8.92742 1.79032 9.14516 2.90323H2.22581C2.44355 1.79032 3.43548 0.967742 4.59677 0.967742ZM5.56452 16.9355V27.3387C5.56452 28.2823 4.81452 29.0323 3.87097 29.0323C2.92742 29.0323 2.17742 28.2823 2.17742 27.3387V15.4839H3.62903H4.1129C4.91129 15.4839 5.56452 16.1371 5.56452 16.9355ZM3.62903 14.5161H2.17742V13.0645H3.62903V14.5161ZM6.77419 12.0968H0.967742V10.1613H9.14516C8.92742 11.2742 7.93548 12.0968 6.77419 12.0968ZM3.62903 9.19355H2.17742V3.87097H3.62903V9.19355Z" fill="#dc0606"/>
<path d="M6.04826 10.645H3.62891V11.6128H6.04826V10.645Z" fill="#dc0606"/>
<path d="M2.90234 27.3388C2.90234 27.8711 3.33783 28.3066 3.87009 28.3066C4.40234 28.3066 4.83783 27.8711 4.83783 27.3388C4.83783 26.8066 4.40234 26.3711 3.87009 26.3711C3.33783 26.3711 2.90234 26.8066 2.90234 27.3388Z" fill="#dc0606"/>
</svg>
