<svg width="30" height="30" viewBox="0 0 30 30" fill="none" xmlns="http://www.w3.org/2000/svg">
<path d="M29.7188 15L26.0156 11.2969V2.8125H21.5625V6.84375L15 0.28125L0.28125 15L2.10938 16.8281L3.98438 14.9531V29.5313H26.0156V14.9531L27.8906 16.8281L29.7188 15ZM1.59375 15L15 1.59375L22.5 9.09375V3.75H25.0781V11.6719L28.4062 15L27.8906 15.5156L15 2.625L2.10938 15.5156L1.59375 15ZM25.0781 14.0625V28.5938H4.92188V14.0625H4.875L15 3.9375L25.125 14.0625H25.0781Z" fill="#dc0606"/>
<path d="M22.0781 19.6875C22.0781 19.2422 21.8906 18.8438 21.6094 18.5391C21.8906 18.2578 22.0781 17.8828 22.0781 17.4609C22.0781 16.6172 21.3984 15.9375 20.5547 15.9375H17.7422C17.6719 15.9375 17.625 15.8906 17.625 15.8203V12.6562C17.625 11.4844 16.6875 10.5469 15.5156 10.5469C15.0703 10.5469 14.6953 10.9219 14.6953 11.3672V13.5234C14.25 14.7891 13.4766 15.8906 12.4453 16.7109V16.6406H7.92188V25.5469H12.4688V25.0078C13.1719 25.3594 13.9219 25.5469 14.7188 25.5469H19.2891C20.0625 25.5469 20.6953 24.9141 20.6953 24.1406C20.6953 23.9297 20.6484 23.7422 20.5781 23.5547C21.1875 23.3203 21.6328 22.7109 21.6328 22.0312C21.6328 21.6797 21.5156 21.3516 21.3281 21.0703C21.7734 20.7891 22.0781 20.2734 22.0781 19.6875ZM11.5078 24.6094H8.85938V17.5781H11.5313V24.6094H11.5078ZM19.9688 22.7344H19.2656V23.6719C19.5234 23.6719 19.7344 23.8828 19.7344 24.1406C19.7344 24.3984 19.5234 24.6094 19.2656 24.6094H14.6953C13.8984 24.6094 13.125 24.375 12.4453 23.9297V17.9063L13.0078 17.4609C14.2266 16.5 15.1172 15.2109 15.6094 13.7344L15.6328 13.6641V11.4844C16.2188 11.5547 16.6875 12.0469 16.6875 12.6562V15.8203C16.6875 16.4062 17.1563 16.875 17.7422 16.875H20.5547C20.8828 16.875 21.1406 17.1328 21.1406 17.4609C21.1406 17.7891 20.8828 18.0469 20.5547 18.0469H20.4375V18.9844C20.8359 18.9844 21.1406 19.2891 21.1406 19.6875C21.1406 20.0859 20.8359 20.3906 20.4375 20.3906H20.2031V20.4141C20.1328 20.4141 20.0391 20.3906 19.9688 20.3906V21.3281C20.3672 21.3281 20.6719 21.6328 20.6719 22.0312C20.6719 22.4297 20.3672 22.7344 19.9688 22.7344Z" fill="#dc0606"/>
</svg>
