<svg width="30" height="20" viewBox="0 0 30 20" fill="none" xmlns="http://www.w3.org/2000/svg">
<path d="M8.4375 7.53906L11.7188 7.5625V1.70312H8.4375V1.72656C7.10156 1.84375 6.04688 2.875 5.88281 4.1875H0.9375V5.125H5.88281C6.04688 6.41406 7.10156 7.44531 8.4375 7.53906ZM9.375 2.64062H10.7812V6.625H9.375V2.64062ZM6.79688 4.51562C6.79688 3.55469 7.52344 2.78125 8.4375 2.66406V6.625C7.52344 6.50781 6.79688 5.71094 6.79688 4.77344V4.51562Z" fill="#dc0606"/>
<path d="M26.25 2.17188H23.9062V3.10937H26.25V2.17188Z" fill="#dc0606"/>
<path d="M26.25 3.57812H23.9062V4.51562H26.25V3.57812Z" fill="#dc0606"/>
<path d="M10.4297 10.0469V10.9844H11.0156V18.2969H10.4297V19.2344H14.8828V18.2969H14.2969V10.9844H14.8828V10.0469H13.125V8.5H18.9844V10.8437H20.1562H20.625C21.0234 10.8437 21.3281 11.1484 21.3281 11.5469V19.2344H24.375C25.2891 19.2344 26.0156 18.5078 26.0156 17.5938V8.47656C27.9844 8.28906 29.5312 6.64844 29.5312 4.63281C29.5312 2.5 27.7969 0.765625 25.6641 0.765625H12.1875V8.03125V8.5V10.0469H10.4297ZM19.9219 9.90625V8.5H20.1562V9.90625H19.9219ZM13.125 1.70312H25.6641C27.2812 1.70312 28.5938 3.01562 28.5938 4.63281C28.5938 6.25 27.2812 7.5625 25.6641 7.5625H25.0781V17.5938C25.0781 17.9922 24.7734 18.2969 24.375 18.2969H22.2656V11.5469C22.2656 10.7969 21.7734 10.1875 21.0938 9.97656V8.5H22.2656V7.5625H21.0938H20.625H13.125V1.70312ZM13.3594 18.2969H11.9531V10.9844H13.3594V18.2969Z" fill="#dc0606"/>
</svg>
