<svg width="30" height="30" viewBox="0 0 30 30" fill="none" xmlns="http://www.w3.org/2000/svg">
<path d="M29.5312 14.8125V8.57812H28.3594V5.625V5.15625V0.46875H27.4219V5.15625H7.10156V8.57812H6.58594V9.51562H7.10156V12.9375H11.8359V29.5312H12.7734V12.9375H28.3594V9.51562H28.5938V14.0156L16.875 15.9609V20.7656H15.5156V29.5312H19.1953V20.7891H17.8125V16.7578L29.5312 14.8125ZM27.4219 12H8.03906V6.09375H27.4219V12ZM18.2344 28.5938H16.4297V21.7266H18.2344V28.5938Z" fill="#dc0606"/>
<g opacity="0.3">
<path opacity="0.3" d="M9.49219 16.875H8.55469V17.8125H9.49219V16.875Z" fill="#dc0606"/>
</g>
<g opacity="0.3">
<path opacity="0.3" d="M24.9609 0.46875H24.0234V1.40625H24.9609V0.46875Z" fill="#dc0606"/>
</g>
<g opacity="0.3">
<path opacity="0.3" d="M20.2734 2.8125H19.3359V3.75H20.2734V2.8125Z" fill="#dc0606"/>
</g>
<g opacity="0.3">
<path opacity="0.3" d="M10.8984 0.46875H9.96094V1.40625H10.8984V0.46875Z" fill="#dc0606"/>
</g>
<g opacity="0.3">
<path opacity="0.3" d="M5.50781 2.8125H4.57031V3.75H5.50781V2.8125Z" fill="#dc0606"/>
</g>
<g opacity="0.3">
<path opacity="0.3" d="M9.49219 24.8438H8.55469V29.5312H9.49219V24.8438Z" fill="#dc0606"/>
</g>
<g opacity="0.3">
<path opacity="0.3" d="M1.64062 12.1875H0.703125V13.125H1.64062V12.1875Z" fill="#dc0606"/>
</g>
<g opacity="0.3">
<path opacity="0.3" d="M1.64062 28.5938H0.703125V29.5312H1.64062V28.5938Z" fill="#dc0606"/>
</g>
<g opacity="0.3">
<path opacity="0.3" d="M1.64062 20.1562H0.703125V24.8438H1.64062V20.1562Z" fill="#dc0606"/>
</g>
<g opacity="0.3">
<path opacity="0.3" d="M1.64062 0.703125H0.703125V5.39062H1.64062V0.703125Z" fill="#dc0606"/>
</g>
<g opacity="0.3">
<path opacity="0.3" d="M5.46094 26.5312H4.52344V27.4688H5.46094V26.5312Z" fill="#dc0606"/>
</g>
<g opacity="0.3">
<path opacity="0.3" d="M5.46094 14.8125H4.52344V19.5H5.46094V14.8125Z" fill="#dc0606"/>
</g>
</svg>
