<svg width="33" height="26" viewBox="0 0 33 26" fill="none" xmlns="http://www.w3.org/2000/svg">
          <path d="M20.7449 18.6704H12.0044V2.91895H20.7449V18.6704Z" fill="#6C6BBD"></path>
          <path d="M32.228 16.999V16.6105H32.127L32.0102 16.8774L31.8939 16.6105H31.7923V16.999H31.8641V16.7061L31.9733 16.9589H32.0477L32.1569 16.7054V16.999H32.228ZM31.5872 16.999V16.6768H31.7167V16.6112H31.3865V16.6768H31.516V16.999H31.5872Z" fill="#0099DF"></path>
          <path d="M27.8581 25.6453V25.7109H27.9185C27.9318 25.7109 27.9433 25.7077 27.9509 25.7026C27.9591 25.6975 27.9636 25.6886 27.9636 25.6778C27.9636 25.667 27.9591 25.6587 27.9509 25.6536C27.9433 25.6478 27.9318 25.6453 27.9185 25.6453H27.8581ZM27.9191 25.5994C27.9502 25.5994 27.9744 25.6065 27.9915 25.6205C28.0087 25.6345 28.0169 25.6536 28.0169 25.6778C28.0169 25.6982 28.0106 25.7147 27.9966 25.7281C27.9833 25.7408 27.9636 25.7491 27.9388 25.7523L28.0188 25.8446H27.9566L27.8823 25.7529H27.8581V25.8446H27.8061V25.5994H27.9191ZM27.9032 25.9287C27.9318 25.9287 27.9585 25.9236 27.9826 25.9128C28.0074 25.902 28.029 25.8873 28.0474 25.8688C28.0658 25.8504 28.0804 25.8287 28.0912 25.8032C28.1014 25.7784 28.1071 25.7517 28.1071 25.723C28.1071 25.6943 28.1014 25.6676 28.0912 25.6428C28.0804 25.6179 28.0658 25.5956 28.0474 25.5772C28.029 25.5587 28.0074 25.544 27.9826 25.5338C27.9585 25.523 27.9318 25.5179 27.9032 25.5179C27.8747 25.5179 27.8473 25.523 27.8226 25.5338C27.7972 25.544 27.7749 25.5587 27.7565 25.5772C27.7381 25.5956 27.7235 25.6179 27.7133 25.6428C27.7025 25.6676 27.6975 25.6943 27.6975 25.723C27.6975 25.7517 27.7025 25.7784 27.7133 25.8032C27.7235 25.8287 27.7381 25.8504 27.7565 25.8688C27.7749 25.8873 27.7972 25.902 27.8226 25.9128C27.8473 25.9236 27.8747 25.9287 27.9032 25.9287V25.9287ZM27.9032 25.4587C27.9407 25.4587 27.975 25.4657 28.0074 25.4797C28.0404 25.4931 28.0684 25.5122 28.0931 25.5364C28.1173 25.56 28.1363 25.588 28.1503 25.6205C28.1643 25.6523 28.1713 25.6867 28.1713 25.723C28.1713 25.7593 28.1643 25.7937 28.1503 25.8255C28.1363 25.8574 28.1173 25.8854 28.0931 25.909C28.0684 25.9332 28.0404 25.9523 28.0074 25.9663C27.975 25.9803 27.9407 25.9873 27.9032 25.9873C27.8651 25.9873 27.8302 25.9803 27.7972 25.9663C27.7641 25.9523 27.7356 25.9332 27.7114 25.909C27.6873 25.8854 27.6682 25.8574 27.6543 25.8255C27.6403 25.7937 27.6333 25.7593 27.6333 25.723C27.6333 25.6867 27.6403 25.6523 27.6543 25.6205C27.6682 25.588 27.6873 25.56 27.7114 25.5364C27.7356 25.5122 27.7641 25.4931 27.7972 25.4797C27.8302 25.4657 27.8651 25.4587 27.9032 25.4587" fill="#231F20"></path>
          <path d="M23.6916 23.1182C23.8078 23.1182 23.9748 23.1405 24.1025 23.1908L23.9247 23.736C23.8027 23.6857 23.6808 23.6691 23.5639 23.6691C23.1866 23.6691 22.998 23.9137 22.998 24.3531V25.8447H22.4207V23.1851H22.9923V23.508C23.1422 23.2743 23.3588 23.1182 23.6916 23.1182V23.1182ZM21.5588 23.7137H20.6156V24.9155C20.6156 25.1824 20.7096 25.3607 20.9986 25.3607C21.1485 25.3607 21.3371 25.3104 21.5086 25.2104L21.675 25.7053C21.4921 25.8333 21.2037 25.9116 20.9541 25.9116C20.2714 25.9116 20.0332 25.5441 20.0332 24.9263V23.7137H19.4946V23.1851H20.0332V22.3782H20.6156V23.1851H21.5588V23.7137ZM14.1728 24.2812C14.2344 23.8971 14.4668 23.6354 14.8778 23.6354C15.2493 23.6354 15.4881 23.8691 15.5491 24.2812H14.1728ZM16.1487 24.5149C16.143 23.6857 15.6323 23.1182 14.8886 23.1182C14.1118 23.1182 13.5681 23.6857 13.5681 24.5149C13.5681 25.3601 14.134 25.911 14.9279 25.911C15.3274 25.911 15.6933 25.811 16.0153 25.5384L15.732 25.1098C15.5104 25.2881 15.2271 25.3881 14.961 25.3881C14.5894 25.3881 14.2509 25.2155 14.1677 24.7372H16.1372C16.143 24.6646 16.1487 24.5926 16.1487 24.5149V24.5149ZM18.6841 23.864C18.5235 23.7634 18.1964 23.6354 17.8578 23.6354C17.5415 23.6354 17.3529 23.7526 17.3529 23.9475C17.3529 24.1251 17.5523 24.1755 17.8019 24.2086L18.0738 24.2474C18.6511 24.3315 19.0004 24.5761 19.0004 25.0435C19.0004 25.5499 18.5565 25.9116 17.7911 25.9116C17.358 25.9116 16.9585 25.8002 16.6422 25.5664L16.914 25.1155C17.1084 25.2658 17.3974 25.3938 17.7969 25.3938C18.1906 25.3938 18.4015 25.2773 18.4015 25.0709C18.4015 24.9213 18.2516 24.8372 17.9353 24.7932L17.6635 24.7544C17.0696 24.6703 16.7476 24.4035 16.7476 23.9697C16.7476 23.4411 17.1808 23.1182 17.8521 23.1182C18.2738 23.1182 18.6568 23.2131 18.9338 23.3965L18.6841 23.864ZM25.8009 23.6679C25.6821 23.6679 25.5722 23.6889 25.47 23.7303C25.3683 23.7723 25.28 23.8309 25.2057 23.9061C25.1314 23.9812 25.073 24.0716 25.0304 24.1767C24.9879 24.2818 24.9669 24.3977 24.9669 24.5238C24.9669 24.6506 24.9879 24.7659 25.0304 24.8709C25.073 24.976 25.1314 25.0665 25.2057 25.1416C25.28 25.2168 25.3683 25.2754 25.47 25.3174C25.5722 25.3594 25.6821 25.3798 25.8009 25.3798C25.9196 25.3798 26.0301 25.3594 26.1318 25.3174C26.234 25.2754 26.3229 25.2168 26.3973 25.1416C26.4728 25.0665 26.5313 24.976 26.5745 24.8709C26.617 24.7659 26.638 24.6506 26.638 24.5238C26.638 24.3977 26.617 24.2818 26.5745 24.1767C26.5313 24.0716 26.4728 23.9812 26.3973 23.9061C26.3229 23.8309 26.234 23.7723 26.1318 23.7303C26.0301 23.6889 25.9196 23.6679 25.8009 23.6679V23.6679ZM25.8009 23.1182C26.0066 23.1182 26.1972 23.1539 26.3725 23.2259C26.5478 23.2972 26.6996 23.3959 26.8272 23.5214C26.9555 23.6468 27.0553 23.7952 27.1277 23.9659C27.2001 24.1372 27.2363 24.3232 27.2363 24.5238C27.2363 24.7245 27.2001 24.9104 27.1277 25.0817C27.0553 25.2524 26.9555 25.4015 26.8272 25.5269C26.6996 25.6524 26.5478 25.7505 26.3725 25.8224C26.1972 25.8938 26.0066 25.9294 25.8009 25.9294C25.5951 25.9294 25.4045 25.8938 25.2292 25.8224C25.0539 25.7505 24.9034 25.6524 24.7764 25.5269C24.6494 25.4015 24.5496 25.2524 24.4772 25.0817C24.4048 24.9104 24.3686 24.7245 24.3686 24.5238C24.3686 24.3232 24.4048 24.1372 24.4772 23.9659C24.5496 23.7952 24.6494 23.6468 24.7764 23.5214C24.9034 23.3959 25.0539 23.2972 25.2292 23.2259C25.4045 23.1539 25.5951 23.1182 25.8009 23.1182V23.1182ZM10.8014 24.5149C10.8014 24.0474 11.107 23.6634 11.6062 23.6634C12.0832 23.6634 12.4052 24.0309 12.4052 24.5149C12.4052 24.999 12.0832 25.3658 11.6062 25.3658C11.107 25.3658 10.8014 24.9824 10.8014 24.5149V24.5149ZM12.9489 24.5149V23.1851H12.3721V23.508C12.1886 23.2685 11.9117 23.1182 11.5344 23.1182C10.7907 23.1182 10.2082 23.7022 10.2082 24.5149C10.2082 25.3269 10.7907 25.9116 11.5344 25.9116C11.9117 25.9116 12.1886 25.7613 12.3721 25.5218V25.8447H12.9489V24.5149ZM9.69758 25.8447V24.1755C9.69758 23.5468 9.29808 23.124 8.65469 23.1182C8.31616 23.1125 7.9662 23.2182 7.7223 23.5914C7.53938 23.2966 7.2504 23.1182 6.84518 23.1182C6.56254 23.1182 6.28499 23.2017 6.0684 23.5131V23.1851H5.4917V25.8447H6.07412V24.3703C6.07412 23.9086 6.32945 23.6634 6.72323 23.6634C7.10622 23.6634 7.30057 23.9137 7.30057 24.3646V25.8447H7.88299V24.3703C7.88299 23.9086 8.14975 23.6634 8.5321 23.6634C8.92652 23.6634 9.11516 23.9137 9.11516 24.3646V25.8447H9.69758Z" fill="white"></path>
          <path d="M32.5329 10.7932C32.5329 16.3258 28.0608 20.8108 22.544 20.8108C20.2137 20.8108 18.0695 20.0102 16.3699 18.6689C18.6938 16.8347 20.1858 13.9885 20.1858 10.7932C20.1858 7.59793 18.6938 4.75168 16.3699 2.91744C18.0695 1.57616 20.2137 0.77559 22.544 0.77559C28.0608 0.77559 32.5329 5.26055 32.5329 10.7932Z" fill="#0099DF"></path>
          <path d="M12.5641 10.7932C12.5641 7.59793 14.0561 4.75168 16.3794 2.91744C14.6804 1.57616 12.5362 0.77559 10.2058 0.77559C4.68904 0.77559 0.217041 5.26055 0.217041 10.7932C0.217041 16.3258 4.68904 20.8108 10.2058 20.8108C12.5362 20.8108 14.6804 20.0102 16.3794 18.6689C14.0561 16.8347 12.5641 13.9885 12.5641 10.7932Z" fill="#EB001B"></path>
        </svg>