<svg width="33" height="26" viewBox="0 0 33 26" fill="none" xmlns="http://www.w3.org/2000/svg">
          <g>
            <path d="M32.3255 25.6473V25.7149H32.3871C32.4007 25.7149 32.4124 25.7117 32.4208 25.7064C32.4286 25.7012 32.4331 25.692 32.4331 25.6808C32.4331 25.6696 32.4286 25.6611 32.4208 25.6558C32.4124 25.6499 32.4007 25.6473 32.3871 25.6473H32.3255ZM32.3877 25.6C32.4195 25.6 32.4442 25.6072 32.4617 25.6217C32.4792 25.6361 32.4876 25.6558 32.4876 25.6808C32.4876 25.7018 32.4811 25.7189 32.4669 25.7327C32.4532 25.7458 32.4338 25.7544 32.4078 25.7576L32.4896 25.8529H32.426L32.3501 25.7583H32.3255V25.8529H32.2723V25.6H32.3877ZM32.3715 25.9402C32.4007 25.9402 32.4279 25.9343 32.4526 25.9232C32.4779 25.912 32.4999 25.8969 32.5187 25.8778C32.5376 25.8588 32.5525 25.8365 32.5635 25.8102C32.5739 25.7846 32.5797 25.757 32.5797 25.7274C32.5797 25.6979 32.5739 25.6703 32.5635 25.6447C32.5525 25.6191 32.5376 25.5961 32.5187 25.577C32.4999 25.558 32.4779 25.5429 32.4526 25.5317C32.4279 25.5212 32.4007 25.5159 32.3715 25.5159C32.3423 25.5159 32.3144 25.5212 32.2892 25.5317C32.2632 25.5429 32.2405 25.558 32.2217 25.577C32.2029 25.5961 32.188 25.6191 32.1776 25.6447C32.1666 25.6703 32.1614 25.6979 32.1614 25.7274C32.1614 25.757 32.1666 25.7846 32.1776 25.8102C32.188 25.8365 32.2029 25.8588 32.2217 25.8778C32.2405 25.8969 32.2632 25.912 32.2892 25.9232C32.3144 25.9343 32.3423 25.9402 32.3715 25.9402V25.9402ZM32.3715 25.4549C32.4098 25.4549 32.4448 25.4621 32.4785 25.4765C32.5116 25.4903 32.5402 25.51 32.5654 25.535C32.5901 25.5593 32.6096 25.5882 32.6238 25.6217C32.6381 25.6545 32.6452 25.69 32.6452 25.7274C32.6452 25.7649 32.6381 25.8003 32.6238 25.8332C32.6096 25.866 32.5901 25.8949 32.5654 25.9199C32.5402 25.9442 32.5116 25.9639 32.4785 25.9783C32.4448 25.9928 32.4098 26 32.3715 26C32.3326 26 32.2969 25.9928 32.2632 25.9783C32.2295 25.9639 32.2003 25.9442 32.1756 25.9199C32.151 25.8949 32.1315 25.866 32.1173 25.8332C32.103 25.8003 32.0959 25.7649 32.0959 25.7274C32.0959 25.69 32.103 25.6545 32.1173 25.6217C32.1315 25.5882 32.151 25.5593 32.1756 25.535C32.2003 25.51 32.2295 25.4903 32.2632 25.4765C32.2969 25.4621 32.3326 25.4549 32.3715 25.4549V25.4549ZM7.10202 24.4808C7.10202 23.9987 7.41398 23.6027 7.92377 23.6027C8.41086 23.6027 8.73969 23.9817 8.73969 24.4808C8.73969 24.98 8.41086 25.359 7.92377 25.359C7.41398 25.359 7.10202 24.9629 7.10202 24.4808V24.4808ZM9.29488 24.4808V23.1094H8.70596V23.4424C8.51917 23.1955 8.23574 23.0405 7.85048 23.0405C7.09099 23.0405 6.49559 23.6434 6.49559 24.4808C6.49559 25.3189 7.09099 25.9212 7.85048 25.9212C8.23574 25.9212 8.51917 25.7662 8.70596 25.5192V25.8522H9.29488V24.4808ZM29.196 24.4808C29.196 23.9987 29.508 23.6027 30.0178 23.6027C30.5055 23.6027 30.8337 23.9817 30.8337 24.4808C30.8337 24.98 30.5055 25.359 30.0178 25.359C29.508 25.359 29.196 24.9629 29.196 24.4808ZM31.3896 24.4808V22.008H30.8V23.4424C30.6132 23.1955 30.3298 23.0405 29.9445 23.0405C29.185 23.0405 28.5896 23.6434 28.5896 24.4808C28.5896 25.3189 29.185 25.9212 29.9445 25.9212C30.3298 25.9212 30.6132 25.7662 30.8 25.5192V25.8522H31.3896V24.4808ZM16.6051 23.5744C16.9845 23.5744 17.2284 23.8155 17.2906 24.2398H15.8851C15.9481 23.8437 16.1854 23.5744 16.6051 23.5744ZM16.6168 23.0405C15.8229 23.0405 15.2677 23.6257 15.2677 24.4808C15.2677 25.3531 15.8456 25.9212 16.6563 25.9212C17.0643 25.9212 17.4379 25.8181 17.7667 25.537L17.4781 25.0949C17.2511 25.2782 16.9618 25.382 16.69 25.382C16.3106 25.382 15.9649 25.204 15.88 24.71H17.8912C17.8971 24.6358 17.9029 24.561 17.9029 24.4808C17.8971 23.6257 17.3756 23.0405 16.6168 23.0405ZM23.7278 24.4808C23.7278 23.9987 24.0398 23.6027 24.5496 23.6027C25.0367 23.6027 25.3655 23.9817 25.3655 24.4808C25.3655 24.98 25.0367 25.359 24.5496 25.359C24.0398 25.359 23.7278 24.9629 23.7278 24.4808V24.4808ZM25.9207 24.4808V23.1094H25.3318V23.4424C25.1443 23.1955 24.8616 23.0405 24.4763 23.0405C23.7168 23.0405 23.1214 23.6434 23.1214 24.4808C23.1214 25.3189 23.7168 25.9212 24.4763 25.9212C24.8616 25.9212 25.1443 25.7662 25.3318 25.5192V25.8522H25.9207V24.4808ZM20.4019 24.4808C20.4019 25.313 20.9739 25.9212 21.8469 25.9212C22.2549 25.9212 22.5267 25.8292 22.8211 25.5941L22.5383 25.112C22.3172 25.2729 22.085 25.359 21.8294 25.359C21.3592 25.3531 21.0135 25.0089 21.0135 24.4808C21.0135 23.9528 21.3592 23.6086 21.8294 23.6027C22.085 23.6027 22.3172 23.6887 22.5383 23.8496L22.8211 23.3676C22.5267 23.1324 22.2549 23.0405 21.8469 23.0405C20.9739 23.0405 20.4019 23.6487 20.4019 24.4808V24.4808ZM27.9949 23.0405C27.655 23.0405 27.4338 23.2014 27.2808 23.4424V23.1094H26.6971V25.8522H27.2866V24.3147C27.2866 23.8608 27.4792 23.6086 27.8645 23.6086C27.9838 23.6086 28.1084 23.6257 28.2329 23.6776L28.4145 23.1153C28.2841 23.0635 28.1142 23.0405 27.9949 23.0405V23.0405ZM12.2077 23.3275C11.9242 23.1383 11.5338 23.0405 11.1031 23.0405C10.4169 23.0405 9.97525 23.3735 9.97525 23.9186C9.97525 24.3659 10.3041 24.6417 10.9099 24.7278L11.1881 24.7678C11.5111 24.8138 11.6635 24.8999 11.6635 25.0549C11.6635 25.267 11.4482 25.3879 11.0461 25.3879C10.6381 25.3879 10.3436 25.2558 10.1452 25.1008L9.86758 25.5652C10.1906 25.8062 10.5985 25.9212 11.0402 25.9212C11.8224 25.9212 12.2758 25.5481 12.2758 25.026C12.2758 24.5439 11.9191 24.2917 11.3295 24.2056L11.0519 24.1649C10.797 24.1308 10.5927 24.0795 10.5927 23.8956C10.5927 23.6946 10.7853 23.5744 11.1083 23.5744C11.454 23.5744 11.7887 23.7065 11.9528 23.8096L12.2077 23.3275ZM19.8065 23.0405C19.4666 23.0405 19.2455 23.2014 19.093 23.4424V23.1094H18.5093V25.8522H19.0982V24.3147C19.0982 23.8608 19.2909 23.6086 19.6761 23.6086C19.7955 23.6086 19.92 23.6257 20.0445 23.6776L20.2261 23.1153C20.0958 23.0635 19.9258 23.0405 19.8065 23.0405V23.0405ZM14.7806 23.1094H13.8175V22.2773H13.2221V23.1094H12.6727V23.6546H13.2221V24.9058C13.2221 25.5422 13.4659 25.9212 14.1625 25.9212C14.418 25.9212 14.7125 25.8411 14.8993 25.709L14.7294 25.198C14.5536 25.3012 14.361 25.3531 14.2079 25.3531C13.9135 25.3531 13.8175 25.1692 13.8175 24.894V23.6546H14.7806V23.1094ZM5.97478 25.8522V24.1308C5.97478 23.4825 5.56682 23.0464 4.90915 23.0405C4.56345 23.0346 4.20673 23.1436 3.95703 23.5285C3.77024 23.2244 3.47578 23.0405 3.06198 23.0405C2.77271 23.0405 2.48993 23.1265 2.26876 23.4477V23.1094H1.6792V25.8522H2.27395V24.3317C2.27395 23.8556 2.53468 23.6027 2.93745 23.6027C3.32855 23.6027 3.52637 23.8608 3.52637 24.3258V25.8522H4.12177V24.3317C4.12177 23.8556 4.39352 23.6027 4.78462 23.6027C5.18674 23.6027 5.37937 23.8608 5.37937 24.3258V25.8522H5.97478Z" fill="white"></path>
            <path d="M32.6887 16.7307V16.3301H32.5856L32.4663 16.6053L32.3476 16.3301H32.2438V16.7307H32.3171V16.4286L32.4286 16.6893H32.5045L32.6161 16.4279V16.7307H32.6887ZM32.0343 16.7307V16.3984H32.1666V16.3307H31.8293V16.3984H31.9617V16.7307H32.0343Z" fill="#F79410"></path>
            <path d="M20.9622 18.4541H12.0366V2.21021H20.9622V18.4541Z" fill="#FF5F00"></path>
            <path d="M12.6085 10.3308C12.6085 7.03568 14.132 4.10045 16.5045 2.20887C14.7696 0.825656 12.5799 6.07694e-05 10.2003 6.07694e-05C4.56668 6.07694e-05 0 4.62523 0 10.3308C0 16.0364 4.56668 20.6616 10.2003 20.6616C12.5799 20.6616 14.7696 19.836 16.5045 18.4528C14.132 16.5612 12.6085 13.626 12.6085 10.3308Z" fill="#EB001B"></path>
            <path d="M33 10.3308C33 16.0364 28.4334 20.6616 22.7998 20.6616C20.4201 20.6616 18.2305 19.836 16.4949 18.4528C18.868 16.5612 20.3916 13.626 20.3916 10.3308C20.3916 7.03568 18.868 4.10045 16.4949 2.20887C18.2305 0.825656 20.4201 6.07694e-05 22.7998 6.07694e-05C28.4334 6.07694e-05 33 4.62523 33 10.3308Z" fill="#F79E1B"></path>
          </g>
          <defs>
            <clipPath id="clip0">
              <rect width="33" height="26" fill="white"></rect>
            </clipPath>
          </defs>
        </svg>