<svg width="64" height="18" viewBox="0 0 64 18" fill="none" xmlns="http://www.w3.org/2000/svg">
          <path fill-rule="evenodd" clip-rule="evenodd" d="M17.2411 0.533936V0.541558C17.2333 0.541558 14.7621 0.533936 14.1032 2.82818C13.4991 4.93187 11.7967 10.7399 11.7497 10.9H11.279C11.279 10.9 9.5374 4.96236 8.92549 2.82056C8.26652 0.526314 5.78752 0.533936 5.78752 0.533936H0.13916V17.9885H5.78752V7.62246H6.02286H6.25821L9.55309 17.9885H13.4756L16.7704 7.63008H17.2411V17.9885H22.8895V0.533936H17.2411Z" fill="#4DB45E"></path>
          <path fill-rule="evenodd" clip-rule="evenodd" d="M37.8734 0.533936C37.8734 0.533936 36.2182 0.678755 35.4415 2.36323L31.4406 10.9H30.9699V0.533936H25.3215V17.9885H30.6561C30.6561 17.9885 32.3898 17.836 33.1665 16.1592L37.0889 7.62246H37.5596V17.9885H43.208V0.533936H37.8734Z" fill="#4DB45E"></path>
          <path fill-rule="evenodd" clip-rule="evenodd" d="M45.7183 8.46094V17.9885H51.3666V12.4244H57.4857C60.1529 12.4244 62.4123 10.7704 63.2517 8.46094H45.7183Z" fill="#4DB45E"></path>
          <path fill-rule="evenodd" clip-rule="evenodd" d="M57.4858 0.533936H44.926C45.5536 3.85716 48.1189 6.52488 51.4373 7.3938C52.1904 7.59197 52.9828 7.69868 53.7986 7.69868H63.4793C63.5656 7.30234 63.6048 6.89837 63.6048 6.47915C63.6048 3.19404 60.8669 0.533936 57.4858 0.533936Z" fill="url(#mir_paint0_linear)"></path>
          <defs>
            <linearGradient id="mir_paint0_linear" x1="44.9275" y1="4.11631" x2="63.6048" y2="4.11631" gradientUnits="userSpaceOnUse">
              <stop offset="0.3" stop-color="#00B4E6"></stop>
              <stop offset="1" stop-color="#088CCB"></stop>
            </linearGradient>
          </defs>
        </svg>