<svg width="37" height="24" viewBox="0 0 37 24" fill="none" xmlns="http://www.w3.org/2000/svg">
          <path d="M36.547 23.9846H0V0.711893H36.547V23.9846Z" fill="white"></path>
          <path d="M0.608398 20.2029H35.9372V23.3784H0.608398V20.2029V20.2029Z" fill="#F7B600"></path>
          <path d="M0.608398 4.49756H35.9372V1.32234H0.608398V4.49756V4.49756Z" fill="#1A1F71"></path>
          <path d="M17.5706 7.36436L15.8001 15.6615H13.6587L15.4292 7.36436H17.5706ZM26.5789 12.7219L27.7064 9.60601L28.3541 12.7219H26.5789V12.7219ZM28.9692 15.6615H30.949L29.2193 7.36436H27.3926C26.9806 7.36436 26.6344 7.60402 26.4807 7.9726L23.2676 15.6615H25.5163L25.9623 14.4221H28.7096L28.9692 15.6615ZM23.3793 12.9525C23.3883 10.7631 20.3594 10.6417 20.3792 9.66334C20.3865 9.366 20.669 9.04933 21.2876 8.96842C21.5941 8.92873 22.4406 8.89701 23.3994 9.33988L23.7745 7.57943C23.2593 7.39268 22.5964 7.21289 21.7717 7.21289C19.6548 7.21289 18.1657 8.33999 18.1539 9.95525C18.14 11.15 19.2175 11.8159 20.0278 12.2139C20.8624 12.6203 21.1423 12.8815 21.1384 13.2446C21.1325 13.8013 20.4719 14.0478 19.8577 14.0569C18.7808 14.074 18.1564 13.7652 17.6584 13.5326L17.2698 15.3514C17.7708 15.5816 18.6941 15.7816 19.6504 15.7917C21.9008 15.7917 23.3727 14.6775 23.3793 12.9525ZM14.5106 7.36436L11.0413 15.6615H8.77778L7.07038 9.03966C6.967 8.63275 6.87698 8.48298 6.56193 8.31099C6.04705 8.03061 5.19682 7.76838 4.44946 7.60521L4.49988 7.36436H8.14396C8.60774 7.36436 9.02532 7.67391 9.13141 8.2099L10.0336 13.0116L12.2608 7.36436H14.5106Z" fill="#1A1F71"></path>
          <path d="M20.3112 17.9454H19.4412V18.7571H20.4144V19.0012H19.1479V16.7491H20.3645V16.9931H19.4412V17.7047H20.3112V17.9454Z" fill="#1A1F71"></path>
          <path d="M22.7567 18.0356C22.7601 17.852 22.68 17.5612 22.3501 17.5612C22.0501 17.5612 21.9234 17.8319 21.9 18.0356H22.7567ZM21.8968 18.2461C21.9034 18.6439 22.1535 18.8076 22.4499 18.8076C22.6601 18.8076 22.79 18.7708 22.8968 18.7241L22.9501 18.9346C22.8467 18.9813 22.6668 19.0381 22.41 19.0381C21.9136 19.0381 21.6169 18.7073 21.6169 18.2195C21.6169 17.7317 21.9034 17.3507 22.3734 17.3507C22.9034 17.3507 23.0401 17.8119 23.0401 18.1093C23.0401 18.1693 23.0367 18.2127 23.0299 18.2461H21.8968V18.2461Z" fill="#1A1F71"></path>
          <path d="M24.6358 18.9445C24.5592 18.9813 24.3892 19.0381 24.1726 19.0381C23.686 19.0381 23.3694 18.7073 23.3694 18.2127C23.3694 17.7149 23.7091 17.3507 24.2359 17.3507C24.4091 17.3507 24.5624 17.394 24.6424 17.4376L24.576 17.6615C24.5057 17.6247 24.3958 17.5845 24.2359 17.5845C23.8658 17.5845 23.666 17.8618 23.666 18.1961C23.666 18.5703 23.9059 18.8008 24.2259 18.8008C24.3925 18.8008 24.5025 18.7608 24.5858 18.724L24.6358 18.9445Z" fill="#1A1F71"></path>
          <path d="M20.8638 16.629H21.157V19.0012H20.8638V16.629Z" fill="#1A1F71"></path>
          <path d="M25.4586 16.9966V17.3842H25.8784V17.6079H25.4586V18.48C25.4586 18.6807 25.5153 18.7942 25.6785 18.7942C25.7584 18.7942 25.8053 18.7876 25.8486 18.774L25.862 18.9981C25.8053 19.0181 25.7153 19.0381 25.6019 19.0381C25.4652 19.0381 25.3552 18.9913 25.2853 18.9146C25.2053 18.8242 25.172 18.6807 25.172 18.4902V17.6079H24.9219V17.3842H25.172V17.0834L25.4586 16.9966Z" fill="#1A1F71"></path>
          <path d="M26.288 17.8888C26.288 17.6983 26.2845 17.5346 26.2747 17.3842H26.5313L26.5447 17.7049H26.5545C26.6279 17.4878 26.8078 17.3508 27.0044 17.3508C27.0345 17.3508 27.0579 17.3541 27.0846 17.3574V17.6349C27.0545 17.6281 27.0247 17.6281 26.9845 17.6281C26.778 17.6281 26.6312 17.7818 26.5912 18.0024C26.5846 18.0425 26.5812 18.0925 26.5812 18.1395V19.0015H26.288V17.8888Z" fill="#1A1F71"></path>
          <path d="M27.6106 18.1961C27.6106 18.5503 27.8106 18.8176 28.0972 18.8176C28.3773 18.8176 28.5871 18.5535 28.5871 18.1893C28.5871 17.9154 28.4505 17.5711 28.1038 17.5711C27.7607 17.5711 27.6106 17.892 27.6106 18.1961ZM28.8872 18.1793C28.8872 18.7774 28.4705 19.0381 28.0839 19.0381C27.6505 19.0381 27.3108 18.7172 27.3108 18.2061C27.3108 17.6681 27.6673 17.3507 28.1106 17.3507C28.5739 17.3507 28.8872 17.6881 28.8872 18.1793" fill="#1A1F71"></path>
          <path d="M29.3369 17.8217C29.3369 17.6514 29.3333 17.5178 29.3235 17.3841H29.5834L29.6001 17.6514H29.6067C29.6868 17.501 29.8734 17.3507 30.14 17.3507C30.3632 17.3507 30.7099 17.4843 30.7099 18.0388V19.0012H30.4167V18.069C30.4167 17.8085 30.3201 17.5912 30.0434 17.5912C29.8534 17.5912 29.7033 17.7283 29.6502 17.8919C29.6367 17.9287 29.6301 17.9788 29.6301 18.029V19.0012H29.3369V17.8217Z" fill="#1A1F71"></path>
        </svg>