<svg width="60" height="20" viewBox="0 0 60 20" fill="none" xmlns="http://www.w3.org/2000/svg">
          <path d="M25.9674 19.7074H21.113L24.1493 0.933594H29.0034L25.9674 19.7074Z" fill="#00579F"></path>
          <path d="M43.5646 1.39254C42.6071 1.01268 41.0884 0.593262 39.2106 0.593262C34.4168 0.593262 31.0411 3.14957 31.0204 6.80431C30.9805 9.50078 33.4373 10.9985 35.2748 11.8975C37.1528 12.8163 37.7913 13.4159 37.7913 14.2349C37.7721 15.4926 36.2737 16.0723 34.8761 16.0723C32.938 16.0723 31.8995 15.7734 30.3214 15.0737L29.6822 14.7737L29.0029 18.988C30.1415 19.5067 32.2391 19.967 34.4168 19.9872C39.5103 19.9872 42.8264 17.4705 42.8656 13.5757C42.885 11.4386 41.5878 9.80101 38.791 8.46286C37.0931 7.60386 36.0533 7.02464 36.0533 6.14573C36.0733 5.34672 36.9328 4.52833 38.8494 4.52833C40.4275 4.48824 41.587 4.86757 42.4653 5.24717L42.9044 5.44653L43.5646 1.39254V1.39254Z" fill="#00579F"></path>
          <path d="M50.0165 13.0565C50.4163 11.978 51.9546 7.80377 51.9546 7.80377C51.9344 7.84385 52.3536 6.70532 52.5933 6.00639L52.9325 7.62406C52.9325 7.62406 53.8518 12.1179 54.0514 13.0565C53.2928 13.0565 50.9754 13.0565 50.0165 13.0565ZM56.0086 0.933594H52.2538C51.0959 0.933594 50.2162 1.27284 49.7166 2.49127L42.5061 19.7072H47.5996C47.5996 19.7072 48.4382 17.39 48.6184 16.891C49.1772 16.891 54.1321 16.891 54.851 16.891C54.9903 17.5501 55.4302 19.7072 55.4302 19.7072H59.9248L56.0086 0.933594V0.933594Z" fill="#00579F"></path>
          <path d="M17.0584 0.933594L12.3044 13.7356L11.7849 11.1392C10.906 8.14328 8.14955 4.8883 5.07349 3.26984L9.42797 19.6875H14.5613L22.1914 0.933594H17.0584V0.933594Z" fill="#00579F"></path>
          <path d="M7.89004 0.933594H0.0799008L0 1.31292C6.0924 2.87086 10.1273 6.62622 11.785 11.14L10.0872 2.51171C9.80767 1.31266 8.94866 0.973146 7.89004 0.933594Z" fill="#FAA61A"></path>
        </svg>