<svg width="40" height="40" viewBox="0 0 40 40" fill="none" xmlns="http://www.w3.org/2000/svg">
<path d="M40 35.4382C40 38.68 35.3448 38.9744 32.103 38.9744H20.1722C16.8805 38.9744 12 38.7299 12 35.4382V35.4382V35.4382C12 32.0185 16.9071 31.7949 20.3268 31.7949H32.0275C35.3191 31.7949 40 32.1465 40 35.4382V35.4382V35.4382Z" fill="#BAB4B4"/>
<path d="M0 35.5001C0 37.9853 2.01472 40.0001 4.5 40.0001V40.0001C6.98528 40.0001 9 37.9853 9 35.5001V35.2693C9 32.784 6.98528 30.7693 4.5 30.7693V30.7693C2.01472 30.7693 0 32.784 0 35.2693V35.5001Z" fill="#BAB4B4"/>
<path d="M40 20.0534C40 23.2953 35.3448 23.5896 32.103 23.5896H20.1722C16.8805 23.5896 12 23.3451 12 20.0534V20.0534V20.0534C12 16.6337 16.9071 16.4102 20.3268 16.4102H32.0275C35.3191 16.4102 40 16.7618 40 20.0534V20.0534V20.0534Z" fill="#BAB4B4"/>
<path d="M0 20.1153C0 22.6006 2.01472 24.6153 4.5 24.6153V24.6153C6.98528 24.6153 9 22.6006 9 20.1153V19.8845C9 17.3992 6.98528 15.3845 4.5 15.3845V15.3845C2.01472 15.3845 0 17.3992 0 19.8845V20.1153Z" fill="#BAB4B4"/>
<path d="M40 4.66887C40 7.91074 35.3448 8.20512 32.103 8.20512H20.1722C16.8805 8.20512 12 7.96058 12 4.66887V4.66887V4.66887C12 1.24917 16.9071 1.02563 20.3268 1.02563H32.0275C35.3191 1.02563 40 1.37724 40 4.66887V4.66887V4.66887Z" fill="#BAB4B4"/>
<path d="M4.5 0C2.01472 0 0 2.01472 0 4.5V4.73077C0 7.21605 2.01472 9.23077 4.5 9.23077V9.23077C6.98528 9.23077 9 7.21605 9 4.73077V4.5C9 2.01472 6.98528 0 4.5 0V0Z" fill="#BAB4B4"/>
</svg>
