<svg width="40" height="40" viewBox="0 0 40 40" fill="none" xmlns="http://www.w3.org/2000/svg">
<path d="M0 4.51613C0 7.01032 2.02194 9.03226 4.51613 9.03226C7.01032 9.03226 9.03226 7.01032 9.03226 4.51613C9.03226 2.02194 7.01032 0 4.51613 0C2.02194 0 0 2.02194 0 4.51613Z" fill="black"/>
<path d="M15.4844 4.51613C15.4844 7.01032 17.5063 9.03226 20.0005 9.03226C22.4947 9.03226 24.5166 7.01032 24.5166 4.51613C24.5166 2.02194 22.4947 0 20.0005 0C17.5063 0 15.4844 2.02194 15.4844 4.51613Z" fill="black"/>
<path d="M35.4849 0C32.9907 0 30.9688 2.02194 30.9688 4.51613C30.9688 7.01032 32.9907 9.03226 35.4849 9.03226C37.9791 9.03226 40.001 7.01032 40.001 4.51613C40.001 2.02194 37.9791 0 35.4849 0Z" fill="black"/>
<path d="M0 20C0 22.4942 2.02194 24.5161 4.51613 24.5161C7.01032 24.5161 9.03226 22.4942 9.03226 20C9.03226 17.5058 7.01032 15.4839 4.51613 15.4839C2.02194 15.4839 0 17.5058 0 20Z" fill="black"/>
<path d="M15.4844 20C15.4844 22.4942 17.5063 24.5161 20.0005 24.5161C22.4947 24.5161 24.5166 22.4942 24.5166 20C24.5166 17.5058 22.4947 15.4839 20.0005 15.4839C17.5063 15.4839 15.4844 17.5058 15.4844 20Z" fill="black"/>
<path d="M30.9688 20C30.9688 22.4942 32.9907 24.5161 35.4849 24.5161C37.9791 24.5161 40.001 22.4942 40.001 20C40.001 17.5058 37.9791 15.4839 35.4849 15.4839C32.9907 15.4839 30.9688 17.5058 30.9688 20Z" fill="black"/>
<path d="M0 35.4839C0 37.9781 2.02194 40 4.51613 40C7.01032 40 9.03226 37.9781 9.03226 35.4839C9.03226 32.9897 7.01032 30.9678 4.51613 30.9678C2.02194 30.9678 0 32.9897 0 35.4839Z" fill="black"/>
<path d="M15.4844 35.4839C15.4844 37.9781 17.5063 40 20.0005 40C22.4947 40 24.5166 37.9781 24.5166 35.4839C24.5166 32.9897 22.4947 30.9678 20.0005 30.9678C17.5063 30.9678 15.4844 32.9897 15.4844 35.4839Z" fill="black"/>
<path d="M30.9688 35.4839C30.9688 37.9781 32.9907 40 35.4849 40C37.9791 40 40.001 37.9781 40.001 35.4839C40.001 32.9897 37.9791 30.9678 35.4849 30.9678C32.9907 30.9678 30.9688 32.9897 30.9688 35.4839Z" fill="black"/>
</svg>
