<svg width="40" height="40" viewBox="0 0 40 40" fill="none" xmlns="http://www.w3.org/2000/svg">
<path d="M37.2414 7.61176H2.75862C1.24138 7.61176 0 5.89911 0 3.80588C0 1.71265 1.24138 0 2.75862 0H37.2414C38.7586 0 40 1.71265 40 3.80588C40 5.89911 38.7586 7.61176 37.2414 7.61176Z" fill="#BAB4B4"/>
<path d="M37.2414 39.9999H2.75862C1.24138 39.9999 0 38.2873 0 36.1941C0 34.1008 1.24138 32.3882 2.75862 32.3882H37.2414C38.7586 32.3882 40 34.1008 40 36.1941C40 38.2873 38.7586 39.9999 37.2414 39.9999Z" fill="#BAB4B4"/>
<path d="M37.2414 23.8059H2.75862C1.24138 23.8059 0 22.0932 0 20C0 17.9067 1.24138 16.1941 2.75862 16.1941H37.2414C38.7586 16.1941 40 17.9067 40 20C40 22.0932 38.7586 23.8059 37.2414 23.8059Z" fill="#BAB4B4"/>
</svg>
