<svg width="21" height="21" viewBox="0 0 21 21" fill="none" xmlns="http://www.w3.org/2000/svg">
<path d="M10.625 19.125C15.4575 19.125 19.375 15.2075 19.375 10.375C19.375 5.54251 15.4575 1.625 10.625 1.625C5.79251 1.625 1.875 5.54251 1.875 10.375C1.875 15.2075 5.79251 19.125 10.625 19.125Z" stroke="black" stroke-width="1.5"/>
<path d="M10.625 15.625V10.375V15.625Z" fill="black"/>
<path d="M10.625 15.625V10.375" stroke="black" stroke-width="2" stroke-linecap="round"/>
<path d="M10.5 8C11.3284 8 12 7.32843 12 6.5C12 5.67157 11.3284 5 10.5 5C9.67157 5 9 5.67157 9 6.5C9 7.32843 9.67157 8 10.5 8Z" fill="black"/>
</svg>
