<svg width="28" height="24" viewBox="0 0 28 24" fill="none" xmlns="http://www.w3.org/2000/svg">
<g clip-path="url(#clip0)">
<path d="M10.5946 14.2101C10.7284 14.3437 10.9034 14.4282 11.0912 14.45C11.2791 14.4718 11.4687 14.4295 11.6296 14.3301L14.5596 12.5001C14.9696 12.246 15.4535 12.1378 15.9327 12.1932C16.4119 12.2485 16.8583 12.4642 17.1996 12.8051C17.7114 13.3171 18.4056 13.6049 19.1296 13.6051C19.4079 13.6028 19.6839 13.656 19.9415 13.7616C20.199 13.8672 20.4329 14.0231 20.6296 14.2201L21.9996 15.6401C22.2575 15.9053 22.6102 16.0572 22.9801 16.0624C23.35 16.0675 23.7069 15.9255 23.9721 15.6676C24.2373 15.4097 24.3892 15.057 24.3943 14.6871C24.3995 14.3171 24.2575 13.9603 23.9996 13.6951L20.8246 10.4651C20.2511 9.88127 19.5672 9.41745 18.8126 9.10068C18.058 8.78392 17.2479 8.62055 16.4296 8.62012C15.9811 8.62006 15.537 8.70834 15.1226 8.87992C14.7083 9.0515 14.3317 9.30302 14.0146 9.62012L10.6096 13.0251C10.4509 13.1805 10.3603 13.3925 10.3575 13.6145C10.3547 13.8366 10.4399 14.0507 10.5946 14.2101Z" fill="white"/>
<path d="M10.5652 23.6199C10.6796 23.6169 10.7908 23.5809 10.8853 23.5163C10.9798 23.4516 11.0537 23.3611 11.098 23.2555C11.1424 23.15 11.1553 23.0338 11.1353 22.9211C11.1153 22.8083 11.0631 22.7038 10.9852 22.6199L7.20515 18.8399C7.07254 18.7073 6.89269 18.6328 6.70515 18.6328C6.51762 18.6328 6.33776 18.7073 6.20515 18.8399C6.07255 18.9725 5.99805 19.1524 5.99805 19.3399C5.99805 19.5275 6.07255 19.7073 6.20515 19.8399L9.60015 23.2349C9.85849 23.4854 10.2053 23.6238 10.5652 23.6199Z" fill="white"/>
<path d="M3.415 12.205L7.455 8.16501C7.52666 8.09349 7.58351 8.00854 7.6223 7.91503C7.66109 7.82151 7.68105 7.72126 7.68105 7.62001C7.68105 7.51877 7.66109 7.41852 7.6223 7.325C7.58351 7.23149 7.52666 7.14654 7.455 7.07501L0.825 0.465019C0.754648 0.404472 0.668831 0.364703 0.577158 0.350165C0.485485 0.335628 0.391575 0.346894 0.305942 0.382704C0.220309 0.418514 0.146335 0.477454 0.092301 0.552924C0.0382674 0.628393 0.00630776 0.717414 6.19602e-07 0.810018V10.81C-0.000310855 11.2058 0.116818 11.5928 0.33656 11.922C0.556301 12.2512 0.868774 12.5078 1.23442 12.6593C1.60007 12.8108 2.00244 12.8504 2.39061 12.7731C2.77878 12.6958 3.13529 12.505 3.415 12.225V12.205Z" fill="white"/>
<path d="M27.1743 0.464951L20.6193 6.99995C20.5375 7.08167 20.4726 7.17871 20.4284 7.28553C20.3841 7.39234 20.3613 7.50683 20.3613 7.62245C20.3613 7.73807 20.3841 7.85256 20.4284 7.95937C20.4726 8.06618 20.5375 8.16322 20.6193 8.24495L24.5843 12.2099C24.8643 12.4903 25.2213 12.6811 25.6099 12.7583C25.9986 12.8354 26.4014 12.7954 26.7672 12.6432C27.1331 12.4911 27.4455 12.2338 27.6649 11.9038C27.8842 11.5738 28.0006 11.1862 27.9993 10.7899V0.789951C27.9897 0.699043 27.9554 0.612511 27.9 0.539762C27.8446 0.467012 27.7704 0.410831 27.6854 0.377325C27.6003 0.34382 27.5077 0.334272 27.4176 0.349722C27.3275 0.365171 27.2433 0.405025 27.1743 0.464951Z" fill="white"/>
<path d="M5.71944 12L4.31444 13.405C3.99583 13.7232 3.81433 14.1535 3.80873 14.6038C3.80312 15.0542 3.97385 15.4888 4.28444 15.8149L5.59444 17.1949C5.64992 17.2523 5.71635 17.2978 5.78979 17.3289C5.86323 17.3601 5.94218 17.3761 6.02194 17.3761C6.1017 17.3761 6.18065 17.3601 6.25409 17.3289C6.32753 17.2978 6.39396 17.2523 6.44944 17.1949C6.52559 17.1188 6.61601 17.0583 6.71552 17.0171C6.81504 16.9758 6.92171 16.9546 7.02944 16.9546C7.13716 16.9546 7.24383 16.9758 7.34335 17.0171C7.44287 17.0583 7.53329 17.1188 7.60944 17.1949L12.6794 22.2999C13.5597 23.179 14.7529 23.6727 15.9969 23.6727C17.241 23.6727 18.4341 23.179 19.3144 22.2999L20.8144 20.7999C21.3924 20.2207 21.717 19.4358 21.717 18.6174C21.717 17.7991 21.3924 17.0142 20.8144 16.4349C20.2577 15.9086 19.5206 15.6152 18.7544 15.6149C18.2506 15.5974 17.772 15.3902 17.4144 15.0349L16.4144 14.0349C16.1959 13.8158 15.9084 13.6787 15.6006 13.6468C15.2927 13.6149 14.9833 13.6902 14.7244 13.86L12.8994 15.0599C12.3276 15.4365 11.6591 15.6397 10.9744 15.6449H10.5944C10.3933 15.6463 10.194 15.6078 10.0078 15.5317C9.8216 15.4557 9.6523 15.3436 9.50963 15.2018C9.36696 15.0601 9.25373 14.8915 9.17647 14.7059C9.09921 14.5202 9.05943 14.3211 9.05944 14.12V13.85C9.06014 13.0546 9.37667 12.292 9.93944 11.7299L11.8344 9.83495C11.9273 9.74195 11.9906 9.6235 12.0162 9.49456C12.0419 9.36562 12.0287 9.23199 11.9784 9.11053C11.9281 8.98907 11.8429 8.88525 11.7337 8.81217C11.6244 8.73909 11.4959 8.70004 11.3644 8.69995C9.90903 8.70212 8.51381 9.28106 7.48444 10.31L5.71944 12Z" fill="white"/>
</g>
<defs>
<clipPath id="clip0">
<rect width="28" height="24" fill="white"/>
</clipPath>
</defs>
</svg>
