<svg width="22" height="22" viewBox="0 0 22 22" fill="none" xmlns="http://www.w3.org/2000/svg">
<g clip-path="url(#clip0)">
<path fill-rule="evenodd" clip-rule="evenodd" d="M8.28278 9.90039H16.0048L19.0408 4.40039H5.67578L8.28278 9.90039Z" fill="white"/>
<path fill-rule="evenodd" clip-rule="evenodd" d="M6.6 17.6C5.39 17.6 4.411 18.59 4.411 19.8C4.411 21.01 5.39 22 6.6 22C7.81 22 8.8 21.01 8.8 19.8C8.8 18.59 7.81 17.6 6.6 17.6ZM17.6 17.6C16.39 17.6 15.411 18.59 15.411 19.8C15.411 21.01 16.39 22 17.6 22C18.81 22 19.8 21.01 19.8 19.8C19.8 18.59 18.81 17.6 17.6 17.6ZM16.005 12.1C16.83 12.1 17.556 11.649 17.93 10.967L21.868 3.828C22.275 3.102 21.747 2.2 20.911 2.2H4.631L3.597 0H0V2.2H2.2L6.16 10.549L4.675 13.233C3.872 14.707 4.928 16.5 6.6 16.5H19.8V14.3H6.6L7.81 12.1H16.005ZM5.676 4.4H19.041L16.005 9.9H8.283L5.676 4.4Z" fill="#1D1D1D"/>
</g>
<defs>
<clipPath id="clip0">
<rect width="22" height="22" fill="white"/>
</clipPath>
</defs>
</svg>
