<svg width="28" height="28" viewBox="0 0 28 28" fill="none" xmlns="http://www.w3.org/2000/svg">
<g clip-path="url(#clip0)">
<path d="M10.5783 17.5322L4.35489 15.0427V17.1489L10.5783 19.6384V17.5322ZM10.5783 11.0705L4.35489 8.58131V10.6875L10.5783 13.1767V11.0705ZM27.3162 0.267896C26.889 -0.0214338 26.3458 -0.0799221 25.8664 0.11172L13.9998 4.8586L2.13264 0.11172C1.65323 -0.0799221 1.11065 -0.0211227 0.682881 0.267896C0.25573 0.557226 0 1.03975 0 1.55619V21.4671C0 22.1033 0.387018 22.6751 0.977189 22.9116L13.3954 27.8784C13.3954 27.8784 13.6498 27.9605 13.6981 27.9702C13.7976 27.9895 13.8984 28.0003 13.9998 28.0003C14.1006 28.0003 14.2014 27.9895 14.3019 27.9699C14.3492 27.9602 14.6053 27.8775 14.6053 27.8775L27.0222 22.9112C27.6127 22.6751 27.9997 22.1033 27.9997 21.4671V1.55619C27.9997 1.03975 27.7433 0.557226 27.3162 0.267896ZM12.4443 24.8177L2.48886 20.8358V3.40137L12.4443 7.38417V24.8177ZM25.5108 20.8358L15.5554 24.8177V7.38386L25.5108 3.40106V20.8358ZM23.6448 15.0427L17.4214 17.5322V19.6384L23.6448 17.1489V15.0427ZM23.6448 8.58131L17.4214 11.0705V13.1767L23.6448 10.6875V8.58131Z" fill="white"/>
</g>
<defs>
<clipPath id="clip0">
<rect width="28" height="28" fill="white"/>
</clipPath>
</defs>
</svg>
