<svg width="16" height="21" viewBox="0 0 16 21" fill="none" xmlns="http://www.w3.org/2000/svg">
<path fill-rule="evenodd" clip-rule="evenodd" d="M3.31034 13.4167H8.27586V12.5417H3.31034V13.4167ZM3.31034 10.7917H11.0345V9.91667H3.31034V10.7917ZM3.31034 8.16667H11.0345V7.29167H3.31034V8.16667ZM3.31034 5.54167H11.0345V4.66667H3.31034V5.54167ZM4.5 19.7656L1.21879 16.1878H4.5V19.7656ZM5.51724 16.0417C5.51724 15.8096 5.43005 15.587 5.27485 15.4229C5.11964 15.2589 4.90914 15.1667 4.68966 15.1667H1.21879V1.24609H13V11.0833H14.3448V1.75C14.3448 0.785167 13.6022 0 12.6897 0H1.65517C0.742621 0 0 0.785167 0 1.75V15.7762C0 16.2318 0.159448 16.6518 0.448 16.9575L3.792 20.5071C4.08841 20.8207 4.48994 20.9978 4.90924 21H10.4828V19.7656H5.51724V16.0417ZM13.5172 15.4583C13.061 15.4583 12.6897 15.0658 12.6897 14.5833C12.6897 14.1009 13.061 13.7083 13.5172 13.7083C13.9735 13.7083 14.3448 14.1009 14.3448 14.5833C14.3448 15.0658 13.9735 15.4583 13.5172 15.4583ZM16 14.5833C16 13.1361 14.8861 11.9583 13.5172 11.9583C12.859 11.9591 12.2279 12.2359 11.7625 12.728C11.297 13.2201 11.0352 13.8874 11.0345 14.5833C11.0345 15.6281 11.6188 16.5247 12.4563 16.947L11.3528 20.4464L12.923 21L13.5172 19.1152L14.1114 21L15.6817 20.4464L14.5782 16.947C15.4157 16.5247 16 15.6281 16 14.5833Z" fill="black"/>
</svg>
