<svg width="30" height="38" viewBox="0 0 30 38" fill="none" xmlns="http://www.w3.org/2000/svg">
<path fill-rule="evenodd" clip-rule="evenodd" d="M6.2069 24.2778H15.5172V22.6944H6.2069V24.2778ZM6.2069 19.5278H20.6897V17.9444H6.2069V19.5278ZM6.2069 14.7778H20.6897V13.1944H6.2069V14.7778ZM6.2069 10.0278H20.6897V8.44444H6.2069V10.0278ZM7.24138 32.7549L5.14862 30.6111H7.24138V32.7549ZM10.3448 29.0278C10.3448 28.6079 10.1813 28.2051 9.89034 27.9082C9.59933 27.6113 9.20465 27.4444 8.7931 27.4444H3.10345V3.16667H23.7931V20.0556H26.8966V3.16667C26.8966 1.42078 25.5041 0 23.7931 0H3.10345C1.39241 0 0 1.42078 0 3.16667V28.5475C0 29.3719 0.298966 30.1319 0.84 30.685L7.11 37.1081C7.66576 37.6755 8.41863 37.996 9.20483 38H19.6552V34.8333H10.3448V29.0278ZM25.3448 27.9722C24.4893 27.9722 23.7931 27.2618 23.7931 26.3889C23.7931 25.5159 24.4893 24.8056 25.3448 24.8056C26.2003 24.8056 26.8966 25.5159 26.8966 26.3889C26.8966 27.2618 26.2003 27.9722 25.3448 27.9722ZM30 26.3889C30 23.7701 27.9114 21.6389 25.3448 21.6389C24.1106 21.6403 22.9274 22.1412 22.0546 23.0317C21.1819 23.9222 20.691 25.1295 20.6897 26.3889C20.6897 28.2794 21.7852 29.9018 23.3555 30.666L21.2866 36.9983L24.2307 38L25.3448 34.5895L26.459 38L29.4031 36.9983L27.3341 30.666C28.9045 29.9018 30 28.2794 30 26.3889Z" fill="black"/>
</svg>
