<svg width="32" height="28" viewBox="0 0 32 28" fill="none" xmlns="http://www.w3.org/2000/svg">
<path d="M29.0206 9.28821C28.019 9.28821 27.2056 10.1379 27.2056 11.1813C27.2056 12.2255 28.019 13.074 29.0206 13.074C30.019 13.074 30.8316 12.2251 30.8316 11.1813C30.8316 10.1379 30.0186 9.28821 29.0206 9.28821ZM2.9786 9.28821C1.97693 9.28821 1.16353 10.1379 1.16353 11.1813C1.16353 12.2255 1.97693 13.074 2.9786 13.074C3.97767 13.074 4.7907 12.2251 4.7907 11.1813C4.7907 10.1379 3.97767 9.28821 2.9786 9.28821ZM23.6294 5.84499C22.1421 5.84499 20.9358 7.10888 20.9358 8.66443C20.9358 10.2169 22.1421 11.4784 23.6294 11.4784C25.117 11.4784 26.3271 10.2169 26.3271 8.66443C26.3271 7.11043 25.117 5.84499 23.6294 5.84499ZM31.9955 22.9787H28.9243V17.0707C28.9243 16.0557 28.6389 15.1134 28.1805 14.2917C28.4506 14.2092 28.7278 14.1505 29.0206 14.1505C30.6582 14.1505 31.9955 15.5482 31.9955 17.2639V22.9787ZM8.36577 5.84499C6.8774 5.84499 5.66809 7.10888 5.66809 8.66443C5.66809 10.2169 6.8774 11.4784 8.36577 11.4784C9.8493 11.4784 11.0586 10.2169 11.0586 8.66443C11.0586 7.11043 9.84967 5.84499 8.36577 5.84499ZM2.9786 14.1505C3.27144 14.1505 3.54493 14.2088 3.81581 14.2917C3.35256 15.1134 3.072 16.0557 3.072 17.0707V22.9787H0V17.2639C0 15.5478 1.33805 14.1505 2.9786 14.1505ZM15.9948 0.21582C13.7994 0.21582 12.0097 2.08443 12.0097 4.38121C12.0097 6.6776 13.7976 8.54854 15.9948 8.54854C18.1924 8.54854 19.9825 6.6776 19.9825 4.38121C19.9844 2.08404 18.1924 0.21582 15.9948 0.21582ZM27.9379 25.1774H23.2327V16.1883C23.2327 14.952 22.9206 13.802 22.416 12.7711C22.8011 12.6521 23.206 12.5677 23.6298 12.5677C26.0037 12.5677 27.9379 14.5853 27.9379 17.0707V25.1774ZM8.75795 16.1883V25.1774H4.05879V17.0707C4.05879 14.5876 5.99033 12.5677 8.368 12.5677C8.79181 12.5677 9.19256 12.6521 9.57693 12.7711C9.072 13.802 8.75795 14.952 8.75795 16.1883ZM9.74437 27.7795H22.246V16.1883C22.246 12.5856 19.4407 9.65571 15.9944 9.65571C12.5455 9.65571 9.74437 12.5856 9.74437 16.1883V27.7795Z" fill="white"/>
</svg>
