<svg width="21" height="21" viewBox="0 0 21 21" fill="none" xmlns="http://www.w3.org/2000/svg">
<path d="M10.5 1.3125C15.5654 1.3125 19.6875 5.43457 19.6875 10.5C19.6875 15.5654 15.5654 19.6875 10.5 19.6875C5.43457 19.6875 1.3125 15.5654 1.3125 10.5C1.3125 5.43457 5.43457 1.3125 10.5 1.3125ZM10.5 0C4.70142 0 0 4.70142 0 10.5C0 16.2986 4.70142 21 10.5 21C16.2986 21 21 16.2986 21 10.5C21 4.70142 16.2986 0 10.5 0ZM16.3537 14.0107L16.2947 13.8312C16.1563 13.4185 15.7 12.9879 15.2796 12.8725L13.7274 12.4482C13.307 12.3342 12.7072 12.488 12.3983 12.7969L11.8369 13.3583C9.79638 12.8059 8.1955 11.205 7.64433 9.16445L8.20575 8.60303C8.51337 8.29541 8.66718 7.69556 8.55311 7.27387L8.13008 5.72168C8.01601 5.30127 7.58276 4.84497 7.17006 4.70654L6.99316 4.64756C6.57915 4.50913 5.98828 4.64883 5.68066 4.95776L4.83984 5.79858C4.68989 5.94727 4.59375 6.37407 4.59375 6.37539C4.56553 9.04399 5.61147 11.6139 7.49819 13.5019C9.37978 15.3834 11.9407 16.4281 14.6003 16.405C14.6144 16.405 15.054 16.3114 15.204 16.1614L16.0448 15.3206C16.3524 15.0143 16.4908 14.4234 16.3537 14.0107Z" fill="black"/>
</svg>
