<?xml version="1.0"?>
<svg xmlns="http://www.w3.org/2000/svg" viewBox="0 0 64 64" width="512" height="512"><g id="Data"><path d="M57,8H54V3a1,1,0,0,0-1-1H11a1,1,0,0,0-1,1V8H7a5.006,5.006,0,0,0-5,5V43a5.006,5.006,0,0,0,5,5H23.719l-1.5,6H18a5.006,5.006,0,0,0-5,5v2a1,1,0,0,0,1,1H50a1,1,0,0,0,1-1V59a5.006,5.006,0,0,0-5-5H41.78l-1.5-6H57a5.006,5.006,0,0,0,5-5V13A5.006,5.006,0,0,0,57,8Zm-3,6h2V38H54ZM8,38V14h2V38Zm4-28H52V38H12Zm0-6H52V8H12ZM49,59v1H15V59a3,3,0,0,1,3-3H46A3,3,0,0,1,49,59Zm-9.281-5H24.281l1.5-6H38.219ZM60,43a3,3,0,0,1-3,3H7a3,3,0,0,1-3-3V13a3,3,0,0,1,3-3h3v2H7a1,1,0,0,0-1,1V39a1,1,0,0,0,1,1H57a1,1,0,0,0,1-1V13a1,1,0,0,0-1-1H54V10h3a3,3,0,0,1,3,3Z"/><path d="M35,43a3,3,0,1,0-3,3A3,3,0,0,0,35,43Zm-3,1a1,1,0,1,1,1-1A1,1,0,0,1,32,44Z"/><path d="M15,5H14a1,1,0,0,0,0,2h1a1,1,0,0,0,0-2Z"/><path d="M19,5H18a1,1,0,0,0,0,2h1a1,1,0,0,0,0-2Z"/><path d="M23,5H22a1,1,0,0,0,0,2h1a1,1,0,0,0,0-2Z"/><path d="M17,28H29a1,1,0,0,0,1-1V15a1,1,0,0,0-1-1H17a1,1,0,0,0-1,1V27A1,1,0,0,0,17,28Zm7-12v3.382l-.553-.277a1,1,0,0,0-.894,0L22,19.382V16Zm-6,0h2v5a1,1,0,0,0,1.447.895L23,21.118l1.553.777A1,1,0,0,0,26,21V16h2V26H18Z"/><path d="M34,16h1a1,1,0,0,0,0-2H34a1,1,0,0,0,0,2Z"/><path d="M47,14H39a1,1,0,0,0,0,2h8a1,1,0,0,0,0-2Z"/><path d="M47,22H34a1,1,0,0,0,0,2H47a1,1,0,0,0,0-2Z"/><path d="M47,26H34a1,1,0,0,0,0,2H47a1,1,0,0,0,0-2Z"/><path d="M47,30H17a1,1,0,0,0,0,2H47a1,1,0,0,0,0-2Z"/><path d="M47,34H17a1,1,0,0,0,0,2H47a1,1,0,0,0,0-2Z"/><path d="M47,18H34a1,1,0,0,0,0,2H47a1,1,0,0,0,0-2Z"/></g></svg>
