<?xml version="1.0"?>
<svg xmlns="http://www.w3.org/2000/svg" viewBox="0 0 64 64" width="512" height="512"><g id="Boxes"><path d="M60.832,36.445l-4-6A1,1,0,0,0,56,30H47V13a1.77,1.77,0,0,0-.168-.555l-4-6A1,1,0,0,0,42,6H22a1,1,0,0,0-.832.445l-4,6a.511.511,0,0,0-.062.125A.986.986,0,0,0,17,13V30H8a1,1,0,0,0-.832.445l-4,6A1.786,1.786,0,0,0,3,37V61a1,1,0,0,0,1,1H60a1,1,0,0,0,1-1V37A1.786,1.786,0,0,0,60.832,36.445ZM58.132,36H49.847l-.667-4h6.285ZM44,38h4v7.131l-1.445-.963a1,1,0,0,0-1.11,0L44,45.131Zm3.153-6,.666,4H47V32ZM41.465,8l2.667,4H35.847L35.18,8ZM30.847,8h2.306l.666,4H30.181ZM30,14h4v7.131l-1.445-.963a1,1,0,0,0-1.11,0L30,21.131ZM22.535,8H28.82l-.667,4H19.868ZM19,14h9v9a1,1,0,0,0,1.555.832L32,22.2l2.445,1.63A1,1,0,0,0,36,23V14h9V36H19ZM16,38h4v7.131l-1.445-.963a1,1,0,0,0-1.11,0L16,45.131Zm1-6v4h-.819l.666-4ZM8.535,32H14.82l-.667,4H5.868ZM5,38h9v9a1,1,0,0,0,1.555.832L18,46.2l2.445,1.63A1,1,0,0,0,22,47V38h9V60H5ZM59,60H33V38h9v9a1,1,0,0,0,1.555.832L46,46.2l2.445,1.63A1,1,0,0,0,50,47V38h9Z"/></g></svg>
