<svg width="23" height="17" viewBox="0 0 23 17" fill="none" xmlns="http://www.w3.org/2000/svg">
<g clip-path="url(#clip0)">
<path fill-rule="evenodd" clip-rule="evenodd" d="M2.0918 11.6875H2.90725C3.48225 11.0394 4.30816 10.625 5.22816 10.625C6.14816 10.625 6.97407 11.0394 7.54907 11.6875H14.6373V2.125H2.0918V11.6875Z" fill="white"/>
<path fill-rule="evenodd" clip-rule="evenodd" d="M16.7273 4.25V0H2.09091C0.940909 0 0 0.95625 0 2.125V13.8125H2.09091C2.09091 15.5763 3.49182 17 5.22727 17C6.96273 17 8.36364 15.5763 8.36364 13.8125H14.6364C14.6364 15.5763 16.0373 17 17.7727 17C19.5082 17 20.9091 15.5763 20.9091 13.8125H23V8.5L19.8636 4.25H16.7273ZM5.22727 14.875C4.65227 14.875 4.18182 14.3969 4.18182 13.8125C4.18182 13.2281 4.65227 12.75 5.22727 12.75C5.80227 12.75 6.27273 13.2281 6.27273 13.8125C6.27273 14.3969 5.80227 14.875 5.22727 14.875ZM14.6364 11.6875H7.54818C6.97318 11.0394 6.15773 10.625 5.22727 10.625C4.29682 10.625 3.48136 11.0394 2.90636 11.6875H2.09091V2.125H14.6364V11.6875ZM17.7727 14.875C17.1977 14.875 16.7273 14.3969 16.7273 13.8125C16.7273 13.2281 17.1977 12.75 17.7727 12.75C18.3477 12.75 18.8182 13.2281 18.8182 13.8125C18.8182 14.3969 18.3477 14.875 17.7727 14.875ZM16.7273 8.5V5.84375H19.3409L21.39 8.5H16.7273Z" fill="#1D1D1D"/>
</g>
<defs>
<clipPath id="clip0">
<rect width="23" height="17" fill="white"/>
</clipPath>
</defs>
</svg>
