<svg width="29" height="21" viewBox="0 0 29 21" fill="none" xmlns="http://www.w3.org/2000/svg">
<g clip-path="url(#clip0)">
<path fill-rule="evenodd" clip-rule="evenodd" d="M2.63672 14.4375H3.6649C4.3899 13.6369 5.43126 13.125 6.59126 13.125C7.75126 13.125 8.79263 13.6369 9.51763 14.4375H18.4549V2.625H2.63672V14.4375Z" fill="white"/>
<path fill-rule="evenodd" clip-rule="evenodd" d="M21.0909 5.25V0H2.63636C1.18636 0 0 1.18125 0 2.625V17.0625H2.63636C2.63636 19.2412 4.40273 21 6.59091 21C8.77909 21 10.5455 19.2412 10.5455 17.0625H18.4545C18.4545 19.2412 20.2209 21 22.4091 21C24.5973 21 26.3636 19.2412 26.3636 17.0625H29V10.5L25.0455 5.25H21.0909ZM6.59091 18.375C5.86591 18.375 5.27273 17.7844 5.27273 17.0625C5.27273 16.3406 5.86591 15.75 6.59091 15.75C7.31591 15.75 7.90909 16.3406 7.90909 17.0625C7.90909 17.7844 7.31591 18.375 6.59091 18.375ZM18.4545 14.4375H9.51727C8.79227 13.6369 7.76409 13.125 6.59091 13.125C5.41773 13.125 4.38955 13.6369 3.66455 14.4375H2.63636V2.625H18.4545V14.4375ZM22.4091 18.375C21.6841 18.375 21.0909 17.7844 21.0909 17.0625C21.0909 16.3406 21.6841 15.75 22.4091 15.75C23.1341 15.75 23.7273 16.3406 23.7273 17.0625C23.7273 17.7844 23.1341 18.375 22.4091 18.375ZM21.0909 10.5V7.21875H24.3864L26.97 10.5H21.0909Z" fill="#1D1D1D"/>
</g>
<defs>
<clipPath id="clip0">
<rect width="29" height="21" fill="white"/>
</clipPath>
</defs>
</svg>
