<svg width="27" height="27" viewBox="0 0 27 27" fill="none" xmlns="http://www.w3.org/2000/svg">
<path d="M24.5441 22.0909H10.8182C10.4488 21.0489 9.63142 20.2316 8.58947 19.8622V2.45453V1.22729V0H2.45312V2.45453H6.13494V19.8622C4.70761 20.369 3.68041 21.7166 3.68041 23.3181C3.68041 25.3517 5.32866 27 7.36223 27C8.9638 27 10.3114 25.9727 10.8182 24.5454H24.544V22.0909H24.5441ZM7.36223 25.7727C6.00733 25.7727 4.9077 24.6731 4.9077 23.3182C4.9077 21.9633 6.00733 20.8637 7.36223 20.8637C8.71713 20.8637 9.81676 21.9633 9.81676 23.3182C9.81676 24.6731 8.71713 25.7727 7.36223 25.7727Z" fill="black"/>
<path d="M11.5874 20.8643H22.0892V12.2734H9.81641V19.0934C10.5528 19.5205 11.1603 20.128 11.5874 20.8643ZM15.9479 13.5007L17.7839 16.6806H16.5615V19.6371H15.3342V16.6806H14.1119L15.9479 13.5007Z" fill="black"/>
<path d="M17.1801 3.06836H15.9528V6.75018L14.7255 4.90929L13.4983 6.75018V3.06836H9.81641V11.0456H17.1801V3.06836Z" fill="black"/>
<path d="M7.36205 24.5444C8.03987 24.5444 8.58934 23.9949 8.58934 23.3171C8.58934 22.6393 8.03987 22.0898 7.36205 22.0898C6.68424 22.0898 6.13477 22.6393 6.13477 23.3171C6.13477 23.9949 6.68424 24.5444 7.36205 24.5444Z" fill="black"/>
</svg>
