<svg width="21" height="21" viewBox="0 0 21 21" fill="none" xmlns="http://www.w3.org/2000/svg">
<g clip-path="url(#clip0)">
<path d="M20.3856 12.8496H16.4316C16.1828 12.8496 15.9585 12.9995 15.8632 13.2294C15.768 13.4593 15.8207 13.7239 15.9966 13.8999L17.9735 15.8769C18.0889 15.9922 18.2454 16.0571 18.4086 16.0571C18.5717 16.0571 18.7282 15.9922 18.8436 15.8769L20.8206 13.8999C20.9966 13.724 21.0492 13.4593 20.954 13.2295C20.8587 12.9995 20.6344 12.8496 20.3856 12.8496ZM18.4086 14.5717L17.9169 14.0801H18.9002L18.4086 14.5717Z" fill="black"/>
<path d="M16.4297 12.1039H20.3836C20.6325 12.1039 20.8568 11.954 20.952 11.7241C21.0472 11.4942 20.9946 11.2296 20.8187 11.0536L18.8417 9.07667C18.7262 8.96129 18.5698 8.89648 18.4066 8.89648C18.2434 8.89648 18.0869 8.96133 17.9716 9.07671L15.9947 11.0537C15.8187 11.2296 15.7661 11.4943 15.8613 11.7241C15.9566 11.954 16.1808 12.1039 16.4297 12.1039ZM18.4066 10.3818L18.8983 10.8734H17.915L18.4066 10.3818Z" fill="black"/>
<path d="M12.8064 3.95312H2.26267C1.01501 3.95312 0 4.96814 0 6.21584V20.384C0 20.7238 0.275461 20.9992 0.615234 20.9992H14.4539C14.7936 20.9992 15.0691 20.7238 15.0691 20.384V6.21584C15.0691 4.96814 14.0541 3.95312 12.8064 3.95312ZM1.23047 6.21584C1.23047 5.64666 1.69349 5.1836 2.26267 5.1836H6.9193V19.7688H1.23047V6.21584ZM13.8386 19.7688H8.14976V5.1836H12.8064C13.3756 5.1836 13.8386 5.64666 13.8386 6.21584V19.7688Z" fill="black"/>
<path d="M4.57031 3.20742H10.5012C10.841 3.20742 11.1164 2.93196 11.1164 2.59219V0.615234C11.1164 0.275461 10.841 0 10.5012 0H4.57031C4.23054 0 3.95508 0.275461 3.95508 0.615234V2.59219C3.95508 2.932 4.23054 3.20742 4.57031 3.20742ZM5.18554 1.23047H9.88597V1.97695H5.18554V1.23047Z" fill="black"/>
</g>
<defs>
<clipPath id="clip0">
<rect width="21" height="21" fill="white"/>
</clipPath>
</defs>
</svg>
