<?xml version="1.0"?>
<svg xmlns="http://www.w3.org/2000/svg" viewBox="0 0 64 64" width="512" height="512"><g id="Weight"><path d="M56,40a1,1,0,0,0,1-1V33a1,1,0,0,0-1-1H47V9a1.786,1.786,0,0,0-.168-.555l-4-6A1,1,0,0,0,42,2H22a1,1,0,0,0-.832.445l-4,6A1.77,1.77,0,0,0,17,9V32H8a1,1,0,0,0-1,1v6a1,1,0,0,0,1,1H28v4H8a1,1,0,0,0-1,1V61a1,1,0,0,0,1,1H56a1,1,0,0,0,1-1V45a1,1,0,0,0-1-1H36V40ZM44.132,8H35.847L35.18,4h6.285ZM30,10h4v7.131l-1.445-.963a1,1,0,0,0-1.11,0L30,17.131Zm3.153-6,.666,4H30.181l.666-4ZM22.535,4H28.82l-.667,4H19.868ZM19,10h9v9a1,1,0,0,0,1.555.832L32,18.2l2.445,1.63A1,1,0,0,0,36,19V10h9V32H19ZM9,34H55v4H9ZM55,60H9V46H55ZM34,44H30V40h4Z"/><path d="M30,58H14a1,1,0,0,1-1-1V49a1,1,0,0,1,1-1H30a1,1,0,0,1,1,1v8A1,1,0,0,1,30,58ZM15,56H29V50H15Z"/><path d="M37,51H36a1,1,0,0,1,0-2h1a1,1,0,0,1,0,2Z"/><path d="M42,51H41a1,1,0,0,1,0-2h1a1,1,0,0,1,0,2Z"/><path d="M37,54H36a1,1,0,0,1,0-2h1a1,1,0,0,1,0,2Z"/><path d="M42,54H41a1,1,0,0,1,0-2h1a1,1,0,0,1,0,2Z"/><path d="M37,57H36a1,1,0,0,1,0-2h1a1,1,0,0,1,0,2Z"/><path d="M42,57H41a1,1,0,0,1,0-2h1a1,1,0,0,1,0,2Z"/><path d="M47,51H46a1,1,0,0,1,0-2h1a1,1,0,0,1,0,2Z"/><path d="M52,51H51a1,1,0,0,1,0-2h1a1,1,0,0,1,0,2Z"/><path d="M47,54H46a1,1,0,0,1,0-2h1a1,1,0,0,1,0,2Z"/><path d="M52,54H51a1,1,0,0,1,0-2h1a1,1,0,0,1,0,2Z"/><path d="M47,57H46a1,1,0,0,1,0-2h1a1,1,0,0,1,0,2Z"/><path d="M52,57H51a1,1,0,0,1,0-2h1a1,1,0,0,1,0,2Z"/></g></svg>
