<svg width="28" height="28" viewBox="0 0 28 28" fill="none" xmlns="http://www.w3.org/2000/svg">
<g clip-path="url(#clip0)">
<path d="M4.38583 11.5584H0V27.9955H4.38583V11.5584Z" fill="white"/>
<path d="M20.1283 11.5584H15.7441V27.9955H20.1283V11.5584Z" fill="white"/>
<path d="M28.0005 7.86823H23.6152V27.9954H28.0005V7.86823Z" fill="white"/>
<path d="M12.2552 16.8141H7.87109V27.9954H12.2552V16.8141Z" fill="white"/>
<path d="M2.19336 6.86648C2.57161 6.86648 2.87866 6.53823 2.87866 6.1331C2.87866 5.7292 2.57161 5.40094 2.19336 5.40094C1.81567 5.40094 1.50977 5.7292 1.50977 6.1331C1.50977 6.53823 1.81567 6.86648 2.19336 6.86648Z" fill="white"/>
<path d="M2.19206 8.4809C3.40145 8.4809 4.38583 7.42902 4.38583 6.13309C4.38583 4.83838 3.40145 3.78528 2.19206 3.78528C0.983806 3.78528 0 4.83838 0 6.13309C0 7.42902 0.983806 8.4809 2.19206 8.4809ZM2.19206 4.76272C2.89787 4.76272 3.47266 5.37774 3.47266 6.13309C3.47266 6.88965 2.89787 7.50467 2.19206 7.50467C1.48624 7.50467 0.913174 6.88965 0.913174 6.13309C0.913174 5.37774 1.48624 4.76272 2.19206 4.76272Z" fill="white"/>
<path d="M10.0625 11.8414C9.68538 11.8414 9.37891 12.1697 9.37891 12.5736C9.37891 12.9787 9.68538 13.307 10.0625 13.307C10.4396 13.307 10.7472 12.9787 10.7472 12.5736C10.7472 12.1697 10.4396 11.8414 10.0625 11.8414Z" fill="white"/>
<path d="M10.0631 10.2246C8.85375 10.2246 7.87109 11.2777 7.87109 12.5736C7.87109 13.8683 8.85375 14.9214 10.0631 14.9214C11.272 14.9214 12.2552 13.8683 12.2552 12.5736C12.2552 11.2777 11.272 10.2246 10.0631 10.2246ZM10.0631 13.944C9.3579 13.944 8.78368 13.3302 8.78368 12.5736C8.78368 11.8183 9.3579 11.2033 10.0631 11.2033C10.7678 11.2033 11.3426 11.8183 11.3426 12.5736C11.3426 13.3302 10.7678 13.944 10.0631 13.944Z" fill="white"/>
<path d="M17.9367 3.66083C17.559 3.66083 17.252 3.98908 17.252 4.3942C17.252 4.79934 17.559 5.1276 17.9367 5.1276C18.3149 5.1276 18.6208 4.79934 18.6208 4.3942C18.6208 3.98908 18.3149 3.66083 17.9367 3.66083Z" fill="white"/>
<path d="M17.9362 2.04639C16.7268 2.04639 15.7441 3.09948 15.7441 4.39296C15.7441 5.68889 16.7268 6.74199 17.9362 6.74199C19.1445 6.74199 20.1283 5.68889 20.1283 4.39296C20.1283 3.09948 19.1445 2.04639 17.9362 2.04639ZM17.9362 5.76455C17.2304 5.76455 16.6562 5.14954 16.6562 4.39296C16.6562 3.63762 17.2304 3.02382 17.9362 3.02382C18.6414 3.02382 19.2168 3.63762 19.2168 4.39296C19.2168 5.14954 18.6414 5.76455 17.9362 5.76455Z" fill="white"/>
<path d="M4.44459 7.30457C4.25774 7.71458 3.97803 8.06601 3.63281 8.32716L7.6854 11.7378C7.82098 11.2997 8.05853 10.9117 8.36843 10.6054L4.44459 7.30457Z" fill="white"/>
<path d="M15.8585 5.89148L11.5 10.3772C11.8464 10.6383 12.1272 10.9898 12.314 11.3998L16.7996 6.78228C16.4202 6.57482 16.0949 6.26732 15.8585 5.89148Z" fill="white"/>
<path d="M25.0562 2.81396L25.4738 4.24167L27.9621 1.07873L24.2342 0L24.6814 1.53267L20.1406 3.12023C20.3332 3.49974 20.4425 3.93293 20.4425 4.39298C20.4425 4.40518 20.4408 4.41739 20.4408 4.42837L25.0562 2.81396Z" fill="white"/>
</g>
<defs>
<clipPath id="clip0">
<rect width="28" height="28" fill="white"/>
</clipPath>
</defs>
</svg>
