<svg width="22" height="20" viewBox="0 0 22 20" fill="none" xmlns="http://www.w3.org/2000/svg">
<path d="M9.21819 17.7641C9.61453 18.0579 9.98182 18.3198 10.3127 18.546C10.5118 18.6827 10.6555 18.7779 10.7336 18.8283L11 19L11.2655 18.8283C11.3437 18.7779 11.4873 18.6827 11.6864 18.546C12.0173 18.319 12.3846 18.057 12.7809 17.7641C13.9118 16.9261 15.0436 16.0002 16.1 15.0141C18.46 12.8116 20.1109 10.6295 20.7327 8.55721C20.9091 7.97059 21 7.39862 21 6.8421C21 1.31682 15.3636 -1.04593 10.9955 3.11734C6.64365 -1.04675 1 1.46247 1 6.8421C1 7.39862 1.09091 7.97141 1.26637 8.55721C1.88817 10.6295 3.5382 12.8108 5.89908 15.0141C6.95636 16.0002 8.08728 16.9253 9.21819 17.7641ZM1.90912 6.8421C1.90912 2.03116 6.84274 -0.0378499 10.6527 3.99606L11 4.363L11.3473 3.99524C15.1573 -0.0378795 20.0909 2.03035 20.0909 6.8421C20.0909 7.32457 20.0109 7.82657 19.8554 8.34648C19.2818 10.2585 17.7091 12.3381 15.4445 14.4511C14.4136 15.4136 13.3073 16.3183 12.2009 17.1376C11.8145 17.424 11 18.0204 11 18.0204C11 18.0204 10.0318 17.3101 9.79819 17.1368C8.69182 16.3167 7.58636 15.4119 6.55457 14.4503C4.29091 12.3373 2.71817 10.2585 2.14363 8.34566C1.98908 7.82576 1.90912 7.32457 1.90912 6.8421Z" fill="black" stroke="black"/>
</svg>
