<svg width="20" height="18" viewBox="0 0 20 18" fill="none" xmlns="http://www.w3.org/2000/svg">
<path d="M8.21819 16.7641C8.61453 17.0579 8.98182 17.3198 9.31273 17.546C9.51182 17.6827 9.65548 17.7779 9.73365 17.8283L10 18L10.2655 17.8283C10.3437 17.7779 10.4873 17.6827 10.6864 17.546C11.0173 17.319 11.3846 17.057 11.7809 16.7641C12.9118 15.9261 14.0436 15.0002 15.1 14.0141C17.46 11.8116 19.1109 9.62953 19.7327 7.55721C19.9091 6.97059 20 6.39862 20 5.8421C20 0.316818 14.3636 -2.04593 9.99547 2.11734C5.64365 -2.04675 0 0.462471 0 5.8421C0 6.39862 0.0909149 6.97141 0.266372 7.55721C0.888169 9.62953 2.5382 11.8108 4.89908 14.0141C5.95636 15.0002 7.08728 15.9253 8.21819 16.7641ZM0.909116 5.8421C0.909116 1.03116 5.84274 -1.03785 9.65273 2.99606L9.99998 3.363L10.3473 2.99524C14.1573 -1.03788 19.0909 1.03035 19.0909 5.8421C19.0909 6.32457 19.0109 6.82657 18.8554 7.34648C18.2818 9.25852 16.7091 11.3381 14.4445 13.4511C13.4136 14.4136 12.3073 15.3183 11.2009 16.1376C10.8145 16.424 9.99998 17.0204 9.99998 17.0204C9.99998 17.0204 9.03182 16.3101 8.79819 16.1368C7.69182 15.3167 6.58636 14.4119 5.55457 13.4503C3.29091 11.3373 1.71817 9.25849 1.14363 7.34566C0.989083 6.82576 0.909116 6.32457 0.909116 5.8421Z" fill="black"/>
</svg>
