<svg width="12" height="12" viewBox="0 0 12 12" fill="none" xmlns="http://www.w3.org/2000/svg">
<path d="M6.0002 7.58992C5.8202 7.58992 5.7002 7.46992 5.7002 7.28992V5.96992C5.7002 5.78992 5.8202 5.66992 6.0002 5.66992C6.6602 5.66992 7.2002 5.12992 7.2002 4.46992C7.2002 3.80992 6.6602 3.26992 6.0002 3.26992C5.3402 3.26992 4.8002 3.80992 4.8002 4.46992C4.8002 4.64992 4.6802 4.76992 4.5002 4.76992C4.3202 4.76992 4.2002 4.64992 4.2002 4.46992C4.2002 3.47992 5.0102 2.66992 6.0002 2.66992C6.9902 2.66992 7.8002 3.47992 7.8002 4.46992C7.8002 5.36992 7.1402 6.08992 6.3002 6.23992V7.28992C6.3002 7.46992 6.1802 7.58992 6.0002 7.58992Z" fill="#dc0606"/>
<path d="M6 12C2.7 12 0 9.3 0 6C0 2.7 2.7 0 6 0C7.35 0 8.61 0.45 9.69 1.26C9.81 1.35 9.84 1.56 9.75 1.68C9.66 1.8 9.45 1.83 9.33 1.74C8.37 0.99 7.2 0.6 6 0.6C3.03 0.6 0.6 3.03 0.6 6C0.6 8.97 3.03 11.4 6 11.4C8.97 11.4 11.4 8.97 11.4 6C11.4 5.04 11.13 4.08 10.65 3.24C10.56 3.09 10.62 2.91 10.74 2.82C10.89 2.73 11.07 2.79 11.16 2.91C11.7 3.87 12 4.92 12 6C12 9.3 9.3 12 6 12Z" fill="#dc0606"/>
<path d="M6.0002 9.74984C5.8202 9.74984 5.7002 9.62984 5.7002 9.44984V8.63984C5.7002 8.45984 5.8202 8.33984 6.0002 8.33984C6.1802 8.33984 6.3002 8.45984 6.3002 8.63984V9.44984C6.3002 9.62984 6.1802 9.74984 6.0002 9.74984Z" fill="#dc0606"/>
</svg>
