<svg width="21" height="17" viewBox="0 0 21 17" fill="none" xmlns="http://www.w3.org/2000/svg">
<path d="M18.375 0H2.625C1.17534 0 0 1.26862 0 2.83333V14.1667C0 15.7314 1.17534 17 2.625 17H18.375C19.8247 17 21 15.7314 21 14.1667V2.83333C21 1.26862 19.8247 0 18.375 0ZM14.0543 7.56062L19.6106 2.42104C19.6491 2.55385 19.6875 2.68666 19.6875 2.83333V14.1667C19.6875 14.2649 19.6529 14.3521 19.635 14.4447L14.0543 7.56062ZM18.375 1.41667C18.4622 1.41667 18.5391 1.45266 18.6211 1.47063L10.5 8.98423L2.37891 1.47063C2.46094 1.45266 2.53784 1.41667 2.625 1.41667H18.375ZM1.36443 14.4434C1.34646 14.3507 1.3125 14.2649 1.3125 14.1667V2.83333C1.3125 2.68666 1.35159 2.55385 1.39006 2.42104L6.94448 7.55924L1.36443 14.4434ZM2.625 15.5833C2.49236 15.5833 2.37185 15.5418 2.25073 15.5017L7.94165 8.48198L10.0732 10.4534C10.1956 10.5683 10.3481 10.625 10.5 10.625C10.6519 10.625 10.8044 10.5683 10.9268 10.4535L13.0583 8.48203L18.7493 15.5017C18.6288 15.5418 18.5083 15.5833 18.375 15.5833H2.625Z" fill="black"/>
</svg>
