<svg width="28" height="28" viewBox="0 0 28 28" fill="none" xmlns="http://www.w3.org/2000/svg">
<path d="M14 0C6.3 0 0 6.3 0 14C0 21.7 6.3 28 14 28C21.7 28 28 21.7 28 14C28 6.3 21.7 0 14 0ZM23.66 8.4H19.6C19.18 6.58 18.48 5.04 17.64 3.36C20.16 4.34 22.4 6.02 23.66 8.4ZM14 2.8C15.12 4.48 16.1 6.3 16.66 8.4H11.34C11.9 6.44 12.88 4.48 14 2.8ZM3.22 16.8C2.94 15.96 2.8 14.98 2.8 14C2.8 13.02 2.94 12.04 3.22 11.2H7.98C7.84 12.18 7.84 13.02 7.84 14C7.84 14.98 7.98 15.82 7.98 16.8H3.22ZM4.34 19.6H8.4C8.82 21.42 9.52 22.96 10.36 24.64C7.84 23.66 5.6 21.98 4.34 19.6ZM8.4 8.4H4.34C5.74 6.02 7.84 4.34 10.36 3.36C9.52 5.04 8.82 6.58 8.4 8.4ZM14 25.2C12.88 23.52 11.9 21.7 11.34 19.6H16.66C16.1 21.56 15.12 23.52 14 25.2ZM17.22 16.8H10.78C10.64 15.82 10.5 14.98 10.5 14C10.5 13.02 10.64 12.18 10.78 11.2H17.36C17.5 12.18 17.64 13.02 17.64 14C17.64 14.98 17.36 15.82 17.22 16.8ZM17.64 24.64C18.48 23.1 19.18 21.4201 19.6 19.6H23.66C22.4 21.98 20.16 23.66 17.64 24.64ZM20.16 16.8C20.3 15.82 20.3 14.98 20.3 14C20.3 13.02 20.16 12.18 20.16 11.2H24.92C25.2 12.04 25.3399 13.02 25.3399 14C25.3399 14.98 25.1999 15.96 24.92 16.8H20.16Z" fill="white"/>
</svg>
