<svg width="50" height="50" viewBox="0 0 50 50" fill="none" xmlns="http://www.w3.org/2000/svg">
<g clip-path="url(#clip0)">
<path d="M48.8034 8.05977L42.573 1.79979C41.7105 0.929127 39.9975 1.23339 38.7578 2.4674L33.0447 8.16098L25.1855 0H0.705078V49.9994H39.2205V20.7369L48.1264 11.8668C49.3566 10.6328 49.6691 8.92541 48.8034 8.05977ZM25.8412 6.52338L30.1706 11.0238L27.8006 13.3869H25.8412V6.52338ZM26.7414 30.7618L18.1221 34.2514L16.2714 32.3893L19.7924 23.7826L26.7414 30.7618ZM35.1639 45.9465H4.75791V4.05283H22.8011V16.4257H24.7511L22.4415 18.724H9.08545V20.7501H20.4116L18.5804 22.57L16.7152 27.1358H9.08545V29.1638H15.8886L13.2747 35.547H9.08483V37.5718H30.847V35.547H19.111L27.9402 31.97L30.7559 29.1638H30.8439V29.0758L35.1601 24.7771V45.9472H35.1639V45.9465Z" fill="#dc0606"/>
</g>
<defs>
<clipPath id="clip0">
<rect width="50" height="49.9994" fill="white"/>
</clipPath>
</defs>
</svg>
