<svg width="20" height="20" viewBox="0 0 20 20" fill="none" xmlns="http://www.w3.org/2000/svg">
<path d="M10.0039 0C7.25433 0 4.99805 2.24847 4.99805 4.99805C4.99805 7.74763 7.25433 10.0039 10.0039 10.0039C12.7535 10.0039 15 7.74763 15 4.99805C15 2.24847 12.7535 0 10.0039 0ZM10.0039 2.00195C11.6726 2.00195 13 3.32935 13 4.99805C13 6.66675 11.6726 8.00195 10.0039 8.00195C8.33521 8.00195 6.99805 6.66675 6.99805 4.99805C6.99805 3.32935 8.33521 2.00195 10.0039 2.00195ZM6.00195 11C1 11 0 14 0 18C0 19 1 20 2 20H18C19 20 20 19 20 18C20 14 19 11 13.9961 11H6.00195ZM6.00195 13H13.9961C17 13 17.998 14.9802 17.998 17.998H2.00195C2 15 3 13 6.00195 13Z" fill="black"/>
</svg>
