<svg width="50" height="50" viewBox="0 0 50 50" fill="none" xmlns="http://www.w3.org/2000/svg">
<g clip-path="url(#clip0)">
<path d="M45.1658 45.7232L41.8516 49.0373C41.2596 49.6263 39.5262 49.9986 39.4743 49.9986C28.9826 50.087 18.8817 45.9675 11.4585 38.5426C4.01413 31.0996 -0.11018 20.9588 0.00427319 10.4367C0.00427319 10.4305 0.384253 8.74608 0.974779 8.16014L4.28893 4.84296C5.50504 3.62841 7.83336 3.0791 9.46451 3.62226L10.1633 3.85722C11.7945 4.40038 13.4988 6.20087 13.9504 7.85789L15.6197 13.9826C16.0728 15.6427 15.464 18.0047 14.2495 19.2192L12.0339 21.4347C14.2068 29.4881 20.5221 35.802 28.5709 37.9779L30.7864 35.7622C32.0011 34.5476 34.3692 33.9404 36.0293 34.392L42.1541 36.0644C43.8081 36.513 45.6086 38.2157 46.1549 39.8484L46.3868 40.5472C46.9296 42.1802 46.3804 44.5086 45.1658 45.7232ZM28.1253 24.9993H31.2502C31.2502 21.5478 28.4519 18.7495 25.0004 18.7495V21.8744C26.723 21.8744 28.1253 23.2781 28.1253 24.9993ZM40.6249 24.9993C40.6249 16.3691 33.6305 9.37469 25.0004 9.37469V12.4997C31.8941 12.4997 37.5 18.1087 37.5 24.9993H40.6249ZM25.0004 0V3.1249C37.0606 3.1249 46.8747 12.939 46.8747 24.9993H49.9996C49.9996 11.1935 38.8062 0 25.0004 0Z" fill="#dc0606"/>
</g>
<defs>
<clipPath id="clip0">
<rect width="50" height="50" fill="white"/>
</clipPath>
</defs>
</svg>
