<?xml version="1.0"?>
<svg xmlns="http://www.w3.org/2000/svg" viewBox="0 0 64 64" width="512" height="512"><g id="Search"><path d="M57.9,14.553l-6-12A1,1,0,0,0,51,2H13a1,1,0,0,0-.895.553l-6,12A1,1,0,0,0,6,15V57a1,1,0,0,0,1,1H43.344l2.092,2.092A4,4,0,0,0,52.192,58H57a1,1,0,0,0,1-1V15A1,1,0,0,0,57.9,14.553ZM55.382,14H38.847L37.18,4h13.2ZM27,16H37v9.125l-4.4-2.956a1,1,0,0,0-1.11,0L27,25.138ZM35.153,4l1.666,10H27.181L28.847,4ZM13.618,4h13.2L25.153,14H8.618Zm36.06,54.678a2.049,2.049,0,0,1-2.828,0l-5.658-5.657,2.829-2.829,5.657,5.657a2,2,0,0,1,0,2.829ZM32,50a9,9,0,1,1,9-9A9.011,9.011,0,0,1,32,50Zm8.448-1.966L41.9,49.485,40.485,50.9l-1.451-1.451A11.111,11.111,0,0,0,40.448,48.034ZM52.042,56a3.956,3.956,0,0,0-.95-1.565l-6.364-6.364a1.031,1.031,0,0,0-1.415,0L41.6,46.357A11.02,11.02,0,1,0,37.357,50.6l1.715,1.715h0a1,1,0,0,0,0,1.414L41.343,56H8V16H25V27a1,1,0,0,0,1.552.833L32.035,24.2l5.407,3.629A1,1,0,0,0,39,27V16H56V56Z"/><path d="M32,33a8,8,0,1,0,8,8A8.009,8.009,0,0,0,32,33Zm0,14a6,6,0,1,1,6-6A6.006,6.006,0,0,1,32,47Z"/><path d="M32,37a1,1,0,0,0,0,2,2,2,0,0,1,2,2,1,1,0,0,0,2,0A4,4,0,0,0,32,37Z"/></g></svg>
