<svg width="21" height="22" viewBox="0 0 21 22" fill="none" xmlns="http://www.w3.org/2000/svg">
<path d="M20.6351 3.43987C20.4277 3.18629 20.1291 3.0404 19.8143 3.0404H4.81079L4.59908 1.69261C4.51222 1.1345 4.05948 0.724609 3.52857 0.724609H1.08571C0.485314 0.724609 0 1.24219 0 1.8825C0 2.52282 0.485314 3.0404 1.08571 3.0404H2.60897L4.62839 15.9671C4.63708 16.0192 4.66205 16.0621 4.67725 16.1107C4.69462 16.1721 4.70874 16.23 4.73588 16.2856C4.77062 16.362 4.81731 16.4268 4.86616 16.4928C4.89982 16.538 4.93022 16.5831 4.96931 16.6225C5.03228 16.685 5.10502 16.729 5.17885 16.773C5.22011 16.7973 5.25593 16.8298 5.30045 16.8483C5.42639 16.9027 5.55885 16.9351 5.69891 16.9351C5.69999 16.9351 17.6428 16.9351 17.6428 16.9351C18.2432 16.9351 18.7285 16.4176 18.7285 15.7772C18.7285 15.1369 18.2432 14.6193 17.6428 14.6193H6.61959L6.43936 13.4615H18.7285C19.2692 13.4615 19.7274 13.0377 19.8034 12.468L20.8891 4.36271C20.9336 4.02924 20.8403 3.69229 20.6351 3.43987ZM18.5624 5.35619L18.253 7.67198H14.3857V5.35619H18.5624ZM13.3 5.35619V7.67198H10.0428V5.35619H13.3ZM13.3 8.82987V11.1457H10.0428V8.82987H13.3ZM8.95713 5.35619V7.67198H5.69999C5.64245 7.67198 5.59033 7.68935 5.53931 7.70671L5.17233 5.35619H8.95713ZM5.71519 8.82987H8.95713V11.1457H6.07673L5.71519 8.82987ZM14.3857 11.1457V8.82987H18.0967L17.7872 11.1457H14.3857Z" fill="#030104"/>
<path d="M7.32779 21.5674C8.22722 21.5674 8.95636 20.7898 8.95636 19.8306C8.95636 18.8714 8.22722 18.0938 7.32779 18.0938C6.42835 18.0938 5.69922 18.8714 5.69922 19.8306C5.69922 20.7898 6.42835 21.5674 7.32779 21.5674Z" fill="#030104"/>
<path d="M17.0993 21.5674C17.9987 21.5674 18.7278 20.7898 18.7278 19.8306C18.7278 18.8714 17.9987 18.0938 17.0993 18.0938C16.1998 18.0938 15.4707 18.8714 15.4707 19.8306C15.4707 20.7898 16.1998 21.5674 17.0993 21.5674Z" fill="#030104"/>
</svg>
