<svg width="18" height="28" viewBox="0 0 18 28" fill="none" xmlns="http://www.w3.org/2000/svg">
<path d="M15.3462 1.91924C13.577 0.639956 11.3549 0 8.68066 0C6.6451 0 4.92859 0.4508 3.53265 1.35022C1.31897 2.75987 0.141828 5.15262 0 8.52818H5.13031C5.13031 7.54569 5.41645 6.59836 5.98872 5.68556C6.56162 4.77338 7.53269 4.31791 8.90255 4.31791C10.2954 4.31791 11.255 4.68813 11.7798 5.42796C12.3052 6.16871 12.5677 6.98911 12.5677 7.88884C12.5677 8.67067 12.1761 9.38716 11.7047 10.0386C11.4452 10.4182 11.1032 10.7672 10.6783 11.0868C10.6783 11.0868 7.8961 12.8756 6.6749 14.3124C5.96638 15.1464 5.90276 16.3943 5.84038 18.1854C5.83603 18.3126 5.88476 18.5758 6.32948 18.5758C6.77421 18.5758 9.9239 18.5758 10.3196 18.5758C10.7153 18.5758 10.7978 18.28 10.8034 18.1521C10.8313 17.4994 10.9046 17.1668 11.0228 16.7904C11.2472 16.0792 11.857 15.4579 12.5413 14.9246L13.9537 13.9474C15.2283 12.9522 16.2456 12.1349 16.6941 11.4949C17.4612 10.4415 18 9.14449 18 7.60449C18 5.09382 17.1149 3.19853 15.3462 1.91924ZM8.5981 21.6586C6.83007 21.6057 5.37114 22.8318 5.31528 24.7545C5.26003 26.6765 6.64759 27.9459 8.41562 27.9981C10.2619 28.0532 11.6814 26.8666 11.7366 24.9449C11.7919 23.0222 10.4443 21.7134 8.5981 21.6586Z" fill="white"/>
</svg>
