<svg width="20" height="20" viewBox="0 0 20 20" fill="none" stroke-width="5" xmlns="http://www.w3.org/2000/svg">
<path d="M13.1992 10C13.1992 10.15 13.1492 10.25 13.0492 10.35L9.04922 14.35C8.84922 14.55 8.54922 14.55 8.34922 14.35C8.14922 14.15 8.14922 13.85 8.34922 13.65L11.9992 10L8.34922 6.35C8.14922 6.15 8.14922 5.85 8.34922 5.65C8.54922 5.45 8.84922 5.45 9.04922 5.65L13.0492 9.65C13.1492 9.75 13.1992 9.9 13.1992 10Z" fill="#dc0606" stroke-width="15"/>
<path d="M20 10C20 15.5 15.5 20 10 20C4.5 20 0 15.5 0 10C0 7.75 0.75 5.65 2.1 3.85C2.25 3.65 2.6 3.6 2.8 3.75C3 3.95 3.05 4.25 2.9 4.45C1.65 6.05 1 7.95 1 10C1 14.95 5.05 19 10 19C14.95 19 19 14.95 19 10C19 5.05 14.95 1 10 1C8.4 1 6.8 1.45 5.4 2.25C5.15 2.4 4.85 2.3 4.7 2.1C4.55 1.85 4.65 1.55 4.85 1.4C6.4 0.500002 8.15 0 9.95 0C15.5 0 20 4.45 20 10Z" fill="#dc0606"/>
</svg>
