<svg width="20" height="20" viewBox="0 0 20 20" fill="grey" xmlns="http://www.w3.org/2000/svg">
<path d="M10 20C15.5143 20 20 15.5143 20 10C20 4.48566 15.5143 0 10 0C4.48566 0 0 4.48645 0 10C0 15.5136 4.48566 20 10 20ZM10 1.54918C14.6592 1.54918 18.4508 5.34004 18.4508 10C18.4508 14.66 14.6592 18.4508 10 18.4508C5.34004 18.4508 1.54918 14.66 1.54918 10C1.54918 5.34004 5.34082 1.54918 10 1.54918Z" />
<path d="M5.57695 8.93092L9.44992 12.8039C9.75203 13.1044 10.24 13.1044 10.5421 12.8039L14.4151 8.93092C14.6637 8.64123 14.6637 8.21287 14.4151 7.92318C14.137 7.59861 13.6475 7.56068 13.3229 7.83877L9.99988 11.1617L6.66914 7.83873C6.36703 7.53818 5.87906 7.53818 5.57695 7.83873C5.2764 8.14084 5.2764 8.62885 5.57695 8.93092Z" />
</svg>
