<svg width="50" height="36" viewBox="0 0 50 36" fill="none" xmlns="http://www.w3.org/2000/svg">
<path d="M50 19.3568L41.6765 6.68944L33.1582 6.68483L33.1491 21.1846L43.0506 21.1902L43.0516 19.2665L35.2331 19.2627L35.2402 8.6103L40.5037 8.61312L47.917 19.894L47.9109 29.4202L44.6221 29.4188C44.1278 26.7759 41.6287 24.7574 38.6258 24.7557C35.6258 24.7557 33.1266 26.7715 32.6292 29.4124L30.1408 29.4113L30.1549 6.68398L26.5451 6.68209L26.5492 0.0150773L0.0193878 0L0 31.3185L5.37082 31.3217C6.00765 34.8206 9.51531 36.0692 11.3652 35.9848H11.3693C14.3687 35.9848 16.8673 33.9695 17.3646 31.3285L32.6278 31.3361C33.1218 33.9795 35.621 35.9983 38.6233 36H38.6243C41.6245 36 44.1237 33.9839 44.621 31.3428L49.993 31.3459L50 19.3568ZM11.3692 34.0611H11.3661C9.66837 34.0611 7.36429 32.8181 7.36429 30.3614C7.36429 28.3231 9.16153 26.6652 11.3712 26.6652C13.5788 26.6671 15.3741 28.3268 15.3731 30.3651C15.372 32.4033 13.5759 34.0611 11.3692 34.0611ZM28.0575 29.4099L17.3657 29.4048C16.8714 26.7618 14.373 24.7433 11.3683 24.7416C8.36888 24.7416 5.8701 26.7571 5.37286 29.3982L2.08398 29.3967L2.10133 1.92547L24.465 1.93678L24.4609 8.60389L28.0706 8.60577L28.0575 29.4099ZM38.6242 34.0762H38.6227C36.4146 34.0743 34.6194 32.4146 34.6204 30.3763C34.6213 28.3371 36.4191 26.6793 38.6272 26.6793C40.8353 26.6812 42.6306 28.3409 42.6296 30.3792C42.6285 32.4184 40.8312 34.0762 38.6242 34.0762Z" fill="black"/>
</svg>
