<svg width="50" height="30" viewBox="0 0 50 30" fill="none" xmlns="http://www.w3.org/2000/svg">
<path d="M42.3729 0H33.8983V20.625H37.3688C36.7635 21.4219 36.36 22.3594 36.1985 23.4375H34.7054V21.5625H27.3204V23.4375H25.5448C25.3834 22.3594 24.9798 21.4219 24.3745 20.625H32.6877V0H0V20.625H5.08475C4.318 21.6094 3.83374 22.9219 3.83374 24.375C3.83374 27.4688 6.01291 30 8.67635 30C11.0573 30 13.0751 27.9844 13.4383 25.3125H16.021C16.4245 27.9844 18.4019 30 20.7829 30C23.1638 30 25.1816 27.9844 25.5448 25.3125H27.3204V27.1875H34.7054V25.3125H36.1985C36.6021 27.9844 38.5795 30 40.9605 30C43.3414 30 45.3592 27.9844 45.7224 25.3125H47.1751C48.749 25.3125 50 23.8594 50 22.0312V13.6406L46.8927 3.65625C46.247 1.5 44.3906 0 42.3729 0ZM1.61421 1.875H7.26392V11.7188H8.87813V1.875H15.3349V11.7188H16.9492V1.875H23.406V11.7188H25.0202V1.875H31.0734V18.75H1.61421V1.875ZM12.3083 20.625H17.2316C16.6263 21.4219 16.2228 22.3594 16.0613 23.4375H13.4786C13.3172 22.3594 12.8733 21.4219 12.3083 20.625ZM8.67635 28.125C6.90073 28.125 5.44794 26.4375 5.44794 24.375C5.44794 22.3125 6.90073 20.625 8.67635 20.625C10.452 20.625 11.9048 22.3125 11.9048 24.375C11.9048 26.4375 10.452 28.125 8.67635 28.125ZM20.7829 28.125C19.0073 28.125 17.5545 26.4375 17.5545 24.375C17.5545 22.3125 19.0073 20.625 20.7829 20.625C22.5585 20.625 24.0113 22.3125 24.0113 24.375C24.0113 26.4375 22.5989 28.125 20.7829 28.125ZM33.0912 25.3125H28.9346V23.4375H33.0912V25.3125ZM45.5206 4.6875L48.063 12.8438L42.9379 11.6719C42.3729 11.5313 41.9693 10.9688 41.9693 10.3125V4.6875H45.5206ZM40.9605 28.125C39.1848 28.125 37.732 26.4375 37.732 24.375C37.732 22.3125 39.1848 20.625 40.9605 20.625C42.7361 20.625 44.1889 22.3125 44.1889 24.375C44.1889 26.4375 42.7764 28.125 40.9605 28.125ZM47.2155 23.4375H45.7627C45.3995 20.8594 43.5028 18.8438 41.1622 18.75H35.5125V1.875H42.3729C43.18 1.875 43.9064 2.25 44.5117 2.8125H40.3551V10.2656C40.3551 11.8125 41.3236 13.1719 42.615 13.5L48.4262 14.8594V22.0312C48.4262 22.8281 47.9015 23.4375 47.2155 23.4375Z" fill="black"/>
</svg>
