<svg width="45" height="24" viewBox="0 0 45 24" fill="none" xmlns="http://www.w3.org/2000/svg">
<path d="M3.05148 5.25964L11.6254 1.05511C13.0527 0.354678 14.5564 0 16.095 0H21.3505C23.2333 0 25.1162 0.551699 26.7947 1.5967L34.5635 6.43069L40.1365 7.42493C41.4874 7.66593 42.7224 8.49466 43.6159 9.75916C44.5086 11.0227 45 12.6385 45 14.3084V18.3328C45 18.9544 44.5877 19.4588 44.0798 19.4588H40.1319C39.9341 20.5544 39.4804 21.5565 38.8105 22.356C37.9197 23.4156 36.7445 24 35.5013 24C34.259 24 33.0838 23.4156 32.193 22.356C31.5221 21.5554 31.0676 20.551 30.8706 19.4588H14.377C14.1792 20.5544 13.7255 21.5565 13.0546 22.3549C12.1647 23.4156 10.9896 24 9.74726 24C8.50405 24 7.32886 23.4156 6.43897 22.356C5.7681 21.5565 5.3144 20.5543 5.11656 19.4588H0.920219C0.412209 19.4588 0 18.9543 0 18.3328V10.7794C-8.7738e-05 8.33593 1.19804 6.16957 3.05148 5.25964ZM12.3101 3.14501L5.69163 6.39132H10.6859L12.8844 2.8883C12.692 2.96713 12.5005 3.05274 12.3101 3.14501ZM20.4873 2.25207H16.095C15.9275 2.25207 15.7609 2.25659 15.5953 2.2667L13.0067 6.39132H20.4873V2.25207ZM25.961 3.60444C24.83 2.90067 23.5904 2.46157 22.3279 2.31176V6.39132H30.4398L25.961 3.60444ZM40.0132 9.68378C40.3914 11.25 41.5205 12.4256 42.888 12.5855C42.4086 11.1139 41.3347 9.98221 40.0132 9.68378ZM35.5022 21.748C37.1052 21.748 38.4046 20.1581 38.4046 18.1966C38.4046 16.2351 37.1052 14.6452 35.5022 14.6452C33.8991 14.6452 32.5998 16.2351 32.5998 18.1966C32.5997 20.1581 33.899 21.748 35.5022 21.748ZM9.74621 21.748C11.3493 21.748 12.6496 20.1581 12.6496 18.1966C12.6496 16.2351 11.3493 14.6452 9.74621 14.6452C8.14317 14.6452 6.84379 16.2351 6.84379 18.1966C6.84379 20.1581 8.14317 21.748 9.74621 21.748ZM1.84044 17.2068H5.0742C5.45978 14.4773 7.407 12.393 9.74718 12.393C12.0865 12.393 14.0337 14.4773 14.4193 17.2068H30.8282C31.2138 14.4773 33.162 12.393 35.5012 12.393C37.8414 12.393 39.7886 14.4773 40.1742 17.2068H43.1595V14.8557C40.5524 14.8264 38.4009 12.4257 38.0797 9.33361L34.2101 8.6434H11.1395C11.1395 8.6434 11.1395 8.6434 11.1386 8.6434C11.1386 8.6434 11.1386 8.6434 11.1377 8.6434H5.31441V10.1094C5.31441 12.1701 3.94419 13.8467 2.26099 13.8467H1.84044V17.2068ZM1.84044 11.5947H2.26099C2.92914 11.5947 3.47388 10.9282 3.47388 10.1095V8.64351H2.39441C2.04197 9.25382 1.84044 9.99243 1.84044 10.7795V11.5947Z" fill="black"/>
</svg>
