<svg width="50" height="30" viewBox="0 0 50 30" fill="none" xmlns="http://www.w3.org/2000/svg">
<path d="M42.3729 0H33.8983V20.625H37.3688C36.7635 21.4219 36.36 22.3594 36.1985 23.4375L37.3688 20.625H24.3745H32.6877V0H0V20.625H5.08475C4.318 21.6094 3.83374 22.9219 3.83374 24.375C3.83374 27.4688 6.01291 30 8.67635 30C11.0573 30 13.0751 27.9844 13.4383 25.3125L13.4786 23.4375C12.2581 20.625 12.2714 20.625 17.2316 20.625H24.3745H37.3688L36.1985 23.4375V25.3125C36.6021 27.9844 38.5795 30 40.9605 30C43.3414 30 45.3592 27.9844 45.7224 25.3125H47.1751C48.749 25.3125 50 23.8594 50 22.0312V13.6406L46.8927 3.65625C46.247 1.5 44.3906 0 42.3729 0ZM1.61421 1.875H7.26392H8.87813H15.3349H16.9492H23.406H25.0202H31.0734V18.75H1.61421V1.875ZM8.67635 28.125C6.90073 28.125 5.44794 26.4375 5.44794 24.375C5.44794 22.3125 6.90073 20.625 8.67635 20.625C10.452 20.625 11.9048 22.3125 11.9048 24.375C11.9048 26.4375 10.452 28.125 8.67635 28.125ZM45.5206 4.6875L48.063 12.8438L42.9379 11.6719C42.3729 11.5313 41.9693 10.9688 41.9693 10.3125V4.6875H45.5206ZM40.9605 28.125C39.1848 28.125 37.732 26.4375 37.732 24.375C37.732 22.3125 39.1848 20.625 40.9605 20.625C42.7361 20.625 44.1889 22.3125 44.1889 24.375C44.1889 26.4375 42.7764 28.125 40.9605 28.125ZM47.2155 23.4375H45.7627C45.3995 20.8594 43.5028 18.8438 41.1622 18.75H35.5125V1.875H42.3729C43.18 1.875 43.9064 2.25 44.5117 2.8125H40.3551V10.2656C40.3551 11.8125 41.3237 13.1719 42.615 13.5L48.4262 14.8594V22.0312C48.4262 22.8281 47.9015 23.4375 47.2155 23.4375Z" fill="black"/>
</svg>
