<svg width="95" height="30" viewBox="0 0 95 30" fill="none" xmlns="http://www.w3.org/2000/svg">
<path d="M87.0849 5.55191V3.27339C87.0849 2.92129 86.9146 2.60844 86.662 2.49712L81.0954 0.0426401C80.6949 -0.134013 80.2812 0.260259 80.2812 0.818912V5.55191H87.0849Z" fill="black"/>
<path d="M19.2763 27H3.4015C2.77535 27 2.26758 26.3283 2.26758 25.5V22.5H19.2763V27Z" fill="black"/>
<path d="M29.5452 24H1.13393C0.507771 24 0 23.3283 0 22.5V19.5H37.4194L31.5737 23.3667C30.9437 23.7831 30.2494 24 29.5452 24Z" fill="black"/>
<path d="M17.0092 30C18.888 30 20.411 27.9853 20.411 25.5C20.411 23.0147 18.888 21 17.0092 21C15.1305 21 13.6074 23.0147 13.6074 25.5C13.6074 27.9853 15.1305 30 17.0092 30Z" fill="black"/>
<path d="M17.0095 27.75C17.9489 27.75 18.7104 26.7426 18.7104 25.5C18.7104 24.2574 17.9489 23.25 17.0095 23.25C16.0701 23.25 15.3086 24.2574 15.3086 25.5C15.3086 26.7426 16.0701 27.75 17.0095 27.75Z" fill="#DCDBDE"/>
<path d="M10.2045 30C12.0833 30 13.6063 27.9853 13.6063 25.5C13.6063 23.0147 12.0833 21 10.2045 21C8.32576 21 6.80273 23.0147 6.80273 25.5C6.80273 27.9853 8.32576 30 10.2045 30Z" fill="black"/>
<path d="M10.2048 27.75C11.1442 27.75 11.9057 26.7426 11.9057 25.5C11.9057 24.2574 11.1442 23.25 10.2048 23.25C9.26542 23.25 8.50391 24.2574 8.50391 25.5C8.50391 26.7426 9.26542 27.75 10.2048 27.75Z" fill="#DCDBDE"/>
<path d="M95.0009 21H70.0547V27H95.0009V21Z" fill="black"/>
<path d="M76.8569 30C78.7356 30 80.2586 27.9853 80.2586 25.5C80.2586 23.0147 78.7356 21 76.8569 21C74.9781 21 73.4551 23.0147 73.4551 25.5C73.4551 27.9853 74.9781 30 76.8569 30Z" fill="black"/>
<path d="M76.8571 27.75C77.7965 27.75 78.558 26.7426 78.558 25.5C78.558 24.2574 77.7965 23.25 76.8571 23.25C75.9178 23.25 75.1562 24.2574 75.1562 25.5C75.1562 26.7426 75.9178 27.75 76.8571 27.75Z" fill="#DCDBDE"/>
<path d="M70.0541 30C71.9329 30 73.4559 27.9853 73.4559 25.5C73.4559 23.0147 71.9329 21 70.0541 21C68.1754 21 66.6523 23.0147 66.6523 25.5C66.6523 27.9853 68.1754 30 70.0541 30Z" fill="black"/>
<path d="M70.0544 27.75C70.9938 27.75 71.7553 26.7426 71.7553 25.5C71.7553 24.2574 70.9938 23.25 70.0544 23.25C69.115 23.25 68.3535 24.2574 68.3535 25.5C68.3535 26.7426 69.115 27.75 70.0544 27.75Z" fill="#DCDBDE"/>
<path d="M94.9996 24H87.6404V21.0769H80.2812V5H92.2284C92.9707 5 93.5968 5.54888 93.6889 6.28032L94.7155 14.4352C94.9048 15.9385 94.9996 17.452 94.9996 18.9671V24Z" fill="black"/>
<path d="M94.9997 21H89.3301V24H94.9997V21Z" fill="white"/>
<path d="M89.3295 30C91.2083 30 92.7313 27.9853 92.7313 25.5C92.7313 23.0147 91.2083 21 89.3295 21C87.4508 21 85.9277 23.0147 85.9277 25.5C85.9277 27.9853 87.4508 30 89.3295 30Z" fill="black"/>
<path d="M89.3298 27.75C90.2692 27.75 91.0307 26.7426 91.0307 25.5C91.0307 24.2574 90.2692 23.25 89.3298 23.25C88.3904 23.25 87.6289 24.2574 87.6289 25.5C87.6289 26.7426 88.3904 27.75 89.3298 27.75Z" fill="#DCDBDE"/>
<path d="M89.3295 7.5H86.4947C86.1816 7.5 85.9277 7.83585 85.9277 8.25V12.5975C85.9277 13.1247 86.2046 13.5814 86.5936 13.6957L89.3295 14.4998V7.5Z" fill="white"/>
<path d="M94.7803 14.1834L94.1486 7.5H86.4947C86.1816 7.5 85.9277 7.83585 85.9277 8.25V12.5975C85.9277 13.1247 86.2046 13.5814 86.5936 13.6957L94.9188 16.1429C94.8832 15.4886 94.8418 14.8346 94.7803 14.1834Z" fill="white"/>
<path d="M89.3301 14.4999L94.9195 16.1431C94.8839 15.4886 94.8424 14.8347 94.7808 14.1833L94.1492 7.5H89.3301V14.4999Z" fill="white"/>
<path d="M1.76057 0H76.8662C77.8384 0 78.9437 0.6717 78.9437 1.5V19.5C78.9437 20.3283 77.8384 21 76.8662 21H1.76057C0.788382 21 0 20.3283 0 19.5V1.5C0 0.671697 0.788382 0 1.76057 0Z" fill="black"/>
<path d="M74.6249 18H5.6558C4.74902 18 4.01367 17.3283 4.01367 16.5C4.01367 15.6717 4.74902 15 5.6558 15H74.6251C75.5319 15 76.2672 15.6717 76.2672 16.5C76.267 17.3283 75.5319 18 74.6249 18Z" fill="white"/>
</svg>
