<svg width="59" height="30" viewBox="0 0 59 30" fill="none" xmlns="http://www.w3.org/2000/svg">
<path d="M51.3729 0H42.8983V20.625H46.3688C45.7635 21.4219 45.36 22.3594 45.1985 23.4375H43.7054V21.5625H36.3204V23.4375H34.5448C34.3834 22.3594 33.9798 21.4219 33.3745 20.625H41.6877V0H0V20.625H14.0847C13.4861 21.3935 13.0597 22.362 12.9015 23.4413C12.857 23.7444 12.8337 24.0563 12.8337 24.375C12.8337 24.6942 12.8569 25.0074 12.9015 25.3125C13.2886 27.9641 15.2877 30 17.6764 30C20.0573 30 22.0751 27.9844 22.4383 25.3125H25.021C25.4245 27.9844 27.4019 30 29.7829 30C32.1638 30 34.1816 27.9844 34.5448 25.3125H36.3204V27.1875H43.7054V25.3125H45.1985C45.6021 27.9844 47.5795 30 49.9605 30C52.3414 30 54.3592 27.9844 54.7224 25.3125H56.1751C57.749 25.3125 59 23.8594 59 22.0312V13.6406L55.8927 3.65625C55.247 1.5 53.3906 0 51.3729 0ZM2 1.875H7.5H9.13196H16.2639V11.7188H17.8781V1.875H24.3349V11.7188H25.9492V1.875H32.406V11.7188H34.0202V1.875H40.0734V18.75H2V1.875ZM21.3083 20.625H26.2316C25.6263 21.4219 25.2228 22.3594 25.0613 23.4375H22.4786C22.3172 22.3594 21.8733 21.4219 21.3083 20.625ZM17.6764 28.125C15.9007 28.125 14.4479 26.4375 14.4479 24.375C14.4479 22.3125 15.9007 20.625 17.6764 20.625C19.452 20.625 20.9048 22.3125 20.9048 24.375C20.9048 26.4375 19.452 28.125 17.6764 28.125ZM29.7829 28.125C28.0073 28.125 26.5545 26.4375 26.5545 24.375C26.5545 22.3125 28.0073 20.625 29.7829 20.625C31.5585 20.625 33.0113 22.3125 33.0113 24.375C33.0113 26.4375 31.5989 28.125 29.7829 28.125ZM42.0912 25.3125H37.9346V23.4375H42.0912V25.3125ZM54.5206 4.6875L57.063 12.8438L51.9379 11.6719C51.3729 11.5313 50.9693 10.9688 50.9693 10.3125V4.6875H54.5206ZM49.9605 28.125C48.1848 28.125 46.732 26.4375 46.732 24.375C46.732 22.3125 48.1848 20.625 49.9605 20.625C51.7361 20.625 53.1889 22.3125 53.1889 24.375C53.1889 26.4375 51.7764 28.125 49.9605 28.125ZM56.2155 23.4375H54.7627C54.3995 20.8594 52.5028 18.8438 50.1622 18.75H44.5125V1.875H51.3729C52.18 1.875 52.9064 2.25 53.5117 2.8125H49.3551V10.2656C49.3551 11.8125 50.3237 13.1719 51.615 13.5L57.4262 14.8594V22.0312C57.4262 22.8281 56.9015 23.4375 56.2155 23.4375Z" fill="black"/>
<path d="M5.84262 20.625H2.25101C1.48426 21.6094 1 22.9219 1 24.375C1 27.4688 3.17918 30 5.84262 30C8.22357 30 10.2413 27.9844 10.6045 25.3125H12.9015C12.8569 25.0074 12.8337 24.6942 12.8337 24.375C12.8337 24.0563 12.857 23.7444 12.9015 23.4413L10.6449 23.4375C10.4835 22.3594 10.0395 21.4219 9.47458 20.625H5.84262C7.61824 20.625 9.07103 22.3125 9.07103 24.375C9.07103 26.4375 7.61824 28.125 5.84262 28.125C4.06699 28.125 2.6142 26.4375 2.6142 24.375C2.6142 22.3125 4.06699 20.625 5.84262 20.625Z" fill="black"/>
<path d="M7.5 11.7188H9.13196V1.875H7.5V11.7188Z" fill="black"/>
</svg>
