<svg width="50" height="30" viewBox="0 0 50 30" fill="none" xmlns="http://www.w3.org/2000/svg">
<path d="M49.504 14.3428L46.6192 12.6522L44.971 5.54521C44.5322 3.65357 42.8815 2.33249 40.9567 2.33249H32.6665V1.0052C32.6665 0.450019 32.2205 0 31.6705 0H0.995994C0.445995 0 0 0.450019 0 1.0052V24.9659C0 25.5211 0.445995 25.9711 0.995994 25.9711H4.19706C4.65995 28.2668 6.67557 29.9999 9.08485 29.9999C11.4941 29.9999 13.5098 28.2668 13.9727 25.9711H34.1364V25.9712C34.5993 28.2669 36.6149 30 39.0241 30C41.4334 30 43.4491 28.2669 43.912 25.9712H49.004C49.554 25.9712 50 25.5212 50 24.966V15.212C49.9999 14.8539 49.811 14.5227 49.504 14.3428ZM9.08485 27.9897C7.43299 27.9897 6.08905 26.6332 6.08905 24.9661C6.08905 23.299 7.43299 21.9425 9.08485 21.9425C10.7368 21.9425 12.0807 23.2989 12.0807 24.9661C12.0807 26.6333 10.7368 27.9897 9.08485 27.9897ZM30.6747 20.3561H21.6909C21.1409 20.3561 20.6949 20.8061 20.6949 21.3613C20.6949 21.9165 21.1409 22.3665 21.6909 22.3665H30.6747V23.9608H13.9727C13.5098 21.6651 11.4941 19.932 9.08485 19.932C6.67557 19.932 4.65995 21.665 4.19706 23.9608H1.99199V18.7618H30.6747V20.3561ZM30.6747 3.33779V16.7514H1.99199V2.0105H30.6747V3.33779ZM38.4444 4.34309H40.9569C41.9517 4.34299 42.8049 5.02581 43.0315 6.00341L44.4913 12.2986H38.4445V4.34309H38.4444ZM39.0241 27.9897C37.4394 27.9897 36.1388 26.7411 36.0357 25.1675C36.0489 25.1024 36.0557 25.0351 36.0557 24.9661C36.0557 24.8971 36.0488 24.8298 36.0357 24.7648C36.1388 23.1912 37.4394 21.9425 39.0241 21.9425C40.6761 21.9425 42.02 23.2989 42.02 24.9661C42.02 26.6333 40.6761 27.9897 39.0241 27.9897ZM48.0079 19.19H46.1131V18.1258H48.0079V19.19ZM48.0079 16.1154H45.1171C44.5671 16.1154 44.1211 16.5655 44.1211 17.1206V20.1952C44.1211 20.7504 44.5671 21.2004 45.1171 21.2004H48.0079V23.9608H43.912C43.4491 21.6651 41.4334 19.932 39.0241 19.932C36.6149 19.932 34.5993 21.665 34.1364 23.9608H32.6666V4.34299H36.4524V13.3038C36.4524 13.8589 36.8984 14.309 37.4484 14.309H45.4791L48.0078 15.791V16.1154H48.0079Z" fill="black"/>
</svg>
