<svg width="63" height="37" viewBox="0 0 63 37" fill="none" xmlns="http://www.w3.org/2000/svg">
<path d="M1.56532 28.7106V2.45826C1.56532 1.1028 2.85106 0.000105614 4.43141 0.000105614H35.0754C35.5857 0.000105614 35.9995 0.354953 35.9995 0.792648C35.9995 1.23034 35.5857 1.58519 35.0754 1.58519H4.43154C3.87029 1.58519 3.41366 1.97681 3.41366 2.45826V3.7017H6.71495C7.22531 3.7017 7.63906 4.05655 7.63906 4.49424C7.63906 4.93194 7.22531 5.28679 6.71495 5.28679H3.41366V21.3911H5.23021C6.55847 21.3911 7.63906 22.3179 7.63906 23.457V23.6815H37.0445C37.5548 23.6815 37.9686 24.0363 37.9686 24.474C37.9686 24.9117 37.5548 25.2666 37.0445 25.2666H7.63906V28.6913H12.2926C12.9454 28.4292 13.6729 28.2818 14.44 28.2818C15.2071 28.2818 15.9346 28.4291 16.5874 28.6913H44.3686V25.2666H40.9828C40.4724 25.2666 40.0587 24.9117 40.0587 24.474C40.0587 24.0363 40.4724 23.6815 40.9828 23.6815H44.3686V5.28668H10.6533C10.1429 5.28668 9.72915 4.93183 9.72915 4.49414C9.72915 4.05644 10.1429 3.7016 10.6533 3.7016H44.3685V2.45815C44.3685 1.97671 43.9118 1.58508 43.3506 1.58508H39.0136C38.5032 1.58508 38.0895 1.23024 38.0895 0.792542C38.0895 0.354848 38.5032 0 39.0136 0H43.3506C44.9309 0 46.2167 1.10269 46.2167 2.45815V6.30431H48.2077C49.5914 6.30431 50.7172 7.26983 50.7172 8.45653V13.2519H58.4121C60.181 13.2519 61.6201 14.4862 61.6201 16.0033V26.0593V28.7428C62.4123 28.9184 63 29.5347 63 30.268V32.5743C63 33.4438 62.1752 34.1512 61.1614 34.1512H56.8948C56.177 35.8127 54.3108 37 52.1269 37C49.9431 37 48.0769 35.8126 47.359 34.1512H19.2078C18.49 35.8127 16.6237 37 14.4399 37C12.256 37 10.3898 35.8126 9.67198 34.1512H1.83861C0.824799 34.1512 0 33.4438 0 32.5743V30.268C0 29.4785 0.681007 28.8244 1.56532 28.7106ZM5.23021 22.9762H3.41366V25.0412H5.79084V23.457C5.79072 23.1919 5.53923 22.9762 5.23021 22.9762ZM5.79072 26.6263H3.41354V28.6913H5.79072V26.6263ZM19.5205 32.5661H47.0463C47.0629 31.7233 47.3596 30.9383 47.8603 30.2763H18.7064C19.2072 30.9383 19.5039 31.7234 19.5205 32.5661ZM54.2743 28.6912H56.2082C56.1929 28.6025 56.1824 27.1228 56.1824 27.1228C56.1824 26.0994 57.1532 25.2669 58.3466 25.2669H59.7719V24.2933C59.7719 24.2933 54.4217 19.6802 54.3463 19.5726H50.7172V28.4536C51.1651 28.3426 51.6378 28.2818 52.1269 28.2818C52.8941 28.2818 53.6215 28.4291 54.2743 28.6912ZM59.7719 26.852H58.3466C58.1723 26.852 58.0306 26.9735 58.0306 27.1228V28.4203C58.0306 28.5697 58.1723 28.6911 58.3466 28.6911H59.7719V26.852ZM48.869 8.45664C48.869 8.14395 48.5723 7.88949 48.2077 7.88949H46.2167V28.6912H48.869V14.0446V8.45664ZM50.7172 17.9875H54.0895V14.8371H50.7172V17.9875ZM58.4121 14.8371H55.9377V18.7633L59.7719 22.0516V16.0033C59.7719 15.3603 59.162 14.8371 58.4121 14.8371ZM61.1518 30.2763H56.3936C56.8942 30.9383 57.1909 31.7234 57.2076 32.5661H61.1518V30.2763ZM52.1269 35.415C53.9105 35.415 55.3614 34.1706 55.3614 32.641C55.3614 31.1113 53.9105 29.8669 52.1269 29.8669C50.3433 29.8669 48.8923 31.1113 48.8923 32.641C48.8923 34.1706 50.3434 35.415 52.1269 35.415ZM14.44 35.415C16.2235 35.415 17.6745 34.1706 17.6745 32.641C17.6745 31.1113 16.2235 29.8669 14.44 29.8669C12.6564 29.8669 11.2054 31.1113 11.2054 32.641C11.2054 34.1706 12.6564 35.415 14.44 35.415ZM1.84822 32.5661H9.35926C9.37589 31.7233 9.67259 30.9383 10.1732 30.2763H1.8481V32.5661H1.84822Z" fill="black"/>
</svg>
