<svg width="25" height="22" viewBox="0 0 25 22" fill="none" xmlns="http://www.w3.org/2000/svg">
<path d="M12.3355 20.4058L12.3377 20.4073C12.3959 20.4464 12.4498 20.4824 12.4994 20.5153C12.5491 20.4824 12.6031 20.4464 12.6613 20.4073L12.6617 20.407C13.0613 20.139 13.5081 19.8274 13.9934 19.4768C15.3744 18.4761 16.7516 17.374 18.0323 16.2051L18.0324 16.205C20.9263 13.5643 22.792 11.0821 23.4709 8.86987L23.4711 8.86927C23.6599 8.25515 23.75 7.6802 23.75 7.14034C23.75 4.23195 22.2635 2.31989 20.3502 1.59178C18.4225 0.85821 15.7873 1.22774 13.3465 3.50232L12.4927 4.29807L11.6403 3.50064C9.22133 1.23742 6.59583 0.900523 4.66119 1.65456C2.72901 2.40764 1.25 4.33339 1.25 7.14034C1.25 7.68038 1.34014 8.25654 1.52797 8.86989L12.3355 20.4058ZM12.3355 20.4058C11.937 20.1395 11.4911 19.8287 11.0066 19.4776M12.3355 20.4058L11.0066 19.4776M11.0066 19.4776C9.62495 18.4755 8.24838 17.3741 6.96612 16.2048C4.07163 13.5634 2.20713 11.0824 1.52815 8.87048L11.0066 19.4776Z" stroke="#dc0606" stroke-width="2.5"/>
</svg>
