<svg width="24" height="24" viewBox="0 0 24 24" fill="none" xmlns="http://www.w3.org/2000/svg">
<path d="M1.28518 9.81601C1.09463 9.10913 1 8.43319 1 7.78946C1 4.5137 2.53163 2.29573 4.44393 1.44877C6.32385 0.616139 8.88297 0.974507 11.2662 3.50825L11.9931 4.28116L12.7216 3.50968C15.1246 0.965007 17.6927 0.569733 19.566 1.37987C21.4633 2.20032 23 4.40601 23 7.78946C23 8.43294 22.9054 9.1075 22.714 9.81513L22.7138 9.81556C22.0318 12.3412 20.1839 15.1048 17.4002 17.9913L17.4001 17.9914C16.1625 19.275 14.8333 20.4836 13.5019 21.5798C13.0343 21.9637 12.6034 22.3052 12.2175 22.5994L12.2172 22.5996C12.1361 22.6615 12.0633 22.7164 11.9995 22.7643C11.9356 22.7164 11.8629 22.6615 11.7819 22.5997L11.7801 22.5983C11.395 22.3059 10.9646 21.9649 10.4975 21.5802C9.16586 20.4827 7.83751 19.2751 6.59871 17.9913C3.81411 15.1038 1.96732 12.3416 1.28518 9.81601Z" stroke="#dc0606" stroke-width="2"/>
</svg>
