<svg width="40" height="36" viewBox="0 0 40 36" fill="none" xmlns="http://www.w3.org/2000/svg">
<path d="M19.4719 33.8536L19.4746 33.8555C19.6834 33.9989 19.8592 34.1177 19.9991 34.211C20.139 34.1176 20.3149 33.9988 20.5238 33.8554L20.5243 33.8551C21.1694 33.4126 21.8893 32.8991 22.6699 32.3223C24.8925 30.6752 27.1112 28.8596 29.1764 26.9317L29.1765 26.9316C33.8279 22.5907 36.8991 18.448 38.0287 14.6833L38.0289 14.6826C38.3451 13.6307 38.5 12.6327 38.5 11.6842C38.5 6.70041 35.9929 3.36176 32.7275 2.09088C29.4518 0.815945 25.0494 1.48564 21.0258 5.3205L19.9889 6.30879L18.9539 5.31845C14.9607 1.4975 10.5713 0.88586 7.28703 2.19503C3.99915 3.50563 1.5 6.86116 1.5 11.6842C1.5 12.6329 1.65488 13.6328 1.96946 14.6833L19.4719 33.8536ZM19.4719 33.8536C18.8282 33.4137 18.1095 32.9012 17.33 32.3235M19.4719 33.8536L17.33 32.3235M17.33 32.3235C15.1066 30.6743 12.8892 28.86 10.8216 26.9316C6.16878 22.5894 3.09945 18.4486 1.96968 14.684L17.33 32.3235Z" stroke="#dc0606" stroke-width="3"/>
</svg>
