<svg width="100" height="22" viewBox="0 0 100 22" fill="none" xmlns="http://www.w3.org/2000/svg">
          <g>
            <path fill-rule="evenodd" clip-rule="evenodd" d="M0.359716 0.310241C0.131699 0.558619 0 0.938139 0 1.43489V19.0538C0 19.5505 0.131699 19.93 0.367579 20.1685L0.428514 20.2221L10.1939 10.3506V10.1301L0.420652 0.256592L0.359716 0.310241Z" fill="url(#android_paint0_linear)"></path>
            <path fill-rule="evenodd" clip-rule="evenodd" d="M13.4431 13.6512L10.186 10.3587V10.1282L13.4431 6.83569L13.5139 6.87941L17.3666 9.09294C18.4693 9.72084 18.4693 10.7581 17.3666 11.3939L13.5139 13.6074L13.4431 13.6512Z" fill="url(#paint1_linear)"></path>
            <path fill-rule="evenodd" clip-rule="evenodd" d="M13.5138 13.6074L10.186 10.2434L0.359619 20.1765C0.719335 20.566 1.32279 20.6097 1.99702 20.2302L13.5138 13.6074Z" fill="url(#paint2_linear)"></path>
            <path fill-rule="evenodd" clip-rule="evenodd" d="M13.5138 6.87944L1.99702 0.266648C1.32279 -0.122807 0.71737 -0.0691576 0.359619 0.320298L10.186 10.2435L13.5138 6.87944Z" fill="url(#paint3_linear)"></path>
            <path fill-rule="evenodd" clip-rule="evenodd" d="M24.9167 0.649453C25.1082 0.485323 25.3303 0.35913 25.5677 0.27784C25.8357 0.187259 26.1191 0.142356 26.4025 0.146227C26.6353 0.143904 26.8674 0.174872 27.0918 0.23913C27.2794 0.291001 27.4563 0.378485 27.6126 0.494614C27.7504 0.59913 27.863
             0.734614 27.9419 0.889452C28.0185 1.04584 28.0591
              1.21771 28.0568 1.39268C28.0583 1.60403 28.0055 1.81229 27.9036 1.99655C27.7964 2.18545 27.6355 2.33719 27.4441 2.43784C27.5513 2.48816
               27.6509 2.5501 27.7428 2.62365C27.8301 2.69332 27.9074 2.77384 27.9725 2.86365C28.0369 2.94881 28.0889 3.04171 28.1257 3.14236C28.1625
                3.24687 28.1793 3.35681 28.1793 3.46752C28.1793 3.675 28.1372 3.88016 28.0568 4.07139C27.9779 4.25719 27.8607 4.42365 27.7121 4.55913C27.5513
                 4.70236 27.3637 4.81307 27.1607 4.88429C26.9156 4.971 26.6552 5.01281 26.3948 5.00816C26.0755 5.00816 25.7592 4.95087 25.4605 4.83784C25.3195
                  4.78519 25.1847 4.72171 25.0546 4.64429C24.9335 4.57229 24.8202 4.48636 24.7176 4.38881L24.978 3.963C25.0009 3.93203 25.03 3.90648 25.0622
                   3.88558C25.1005 3.87474 25.1388 3.87474 25.1771 3.88558C25.2437 3.89023 25.3073 3.91423 25.3609 3.95526L25.606 4.10236C25.7132 4.16197 25.8266
                    4.21074 25.943 4.24945C26.0961 4.299 26.257 4.32223 26.4178 4.31913C26.6598 4.33461 26.9003 4.26494 27.0994 4.12558C27.2679 3.97848 27.356 3.76016
                     27.3369 3.53719C27.3369 3.43655 27.3139 3.339 27.2679 3.25074C27.2243 3.16558 27.1607 3.09048 27.0841 3.03397C27.0037 2.96971 26.9133 2.92016
                      26.8161 2.88687C26.6912 2.85358 26.5633 2.8381 26.4331 2.84042H25.7745V2.11268H26.3795C26.6031 2.12584 26.8252 2.06932 27.0152 1.9501C27.1684
                       1.84326 27.2541 1.66519 27.2449 1.47784C27.2488 1.30752 27.1684 1.14494 27.0305 1.04429C26.8436 0.923517 26.6246 0.866227 26.4025 0.881711C26.2646
                        0.880162 26.1283 0.897194 25.9966 0.935904C25.8947 0.966872 25.7944 1.00558 25.6979 1.05203L25.4834 1.16816C25.4375 1.19913 25.3854 1.21848 25.3303
                         1.22236C25.295 1.23397 25.2583 1.23397 25.223 1.22236C25.1893 1.17745 25.1679 1.12403 25.1618 1.06752L24.9167 0.649453ZM28.7231 2.05074C29.0984
                          1.69848 29.5962 1.50648 30.1093 1.51655C30.2878 1.515 30.4647 1.54907 30.6301 1.61719C30.7779 1.67758 30.9112 1.77048 31.0207 1.88816C31.1295
                           2.00584 31.2122 2.14597 31.2658 2.29848C31.324 2.46881 31.3523 2.64687 31.35 2.82494V4.95397H30.9824C30.925 4.96945 30.8637 4.96945 30.8063
                            4.95397C30.7572 4.92145 30.722 4.8719 30.7067 4.81461L30.6378 4.57461L30.3927 4.7759C30.313 4.83319 30.2288 4.88197 30.1399 4.923C30.0519
                             4.96403 29.9592 4.995 29.8642 5.0159C29.7547 5.02752 29.6444 5.02752 29.5349 5.0159C29.4024 5.0159 29.2707 4.995 29.1443 4.95397C29.0317
                              4.91913 28.9268 4.86107 28.838 4.78365C28.7507 4.70468 28.6825 4.60713 28.6388 4.49719C28.5898 4.37177
                               28.5661 4.23707 28.5699 4.10236C28.5714 3.92042 28.6365 3.74623 28.7537 3.60687C28.8226 3.52171 28.9015
                                3.44429 28.9911 3.38236C29.1083 3.30726 29.2347 3.24687 29.3664 3.20429C29.5364 3.14855 29.7111 3.10752
                                 29.8872 3.08042C30.1108 3.0479 30.3352 3.02932 30.5612 3.02623V2.82494C30.5719 2.64532 30.5206 2.46726
                                  30.4157 2.32171C30.3084 2.20868 30.1568 2.14907 30.0021 2.15913C29.8933 2.15603 29.7846 2.17229 29.6804
                                   2.20558C29.6008 2.23113 29.5242 2.26519 29.4507 2.30623L29.2745 2.40687C29.2209 2.43784 29.1596 2.45332
                                    29.0984 2.45332C29.0601 2.44945 29.0233 2.43629 28.9911 2.41461C28.9544 2.38674 28.9237 2.35268 28.8992
                                     2.31397L28.7231 2.05074ZM30.5688 3.51397C30.3735 3.52171 30.1782 3.54184 29.9868 3.5759C29.855 3.59913
                                      29.7264 3.63784 29.6038 3.69203C29.5219 3.72687 29.4507 3.78261 29.3971 3.85461C29.2975 4.01565 29.3228
                                       4.22623 29.4583 4.35784C29.5487 4.41203 29.6521 4.43913 29.757 4.43526C29.9048 4.43836 30.0519 4.40661
                                        30.1859 4.34236C30.3123 4.27268 30.4264 4.17978 30.5229 4.07139V3.52171H30.5688V3.51397ZM34.3523
                                         2.18236H32.8971V4.95397H32.1312V1.58623H34.4288V2.1901H34.3523V2.18236ZM35.6006 2.043C35.7331
                                          1.88971 35.8917 1.76197 36.0678 1.66365C36.2562 1.563 36.4661 1.5119 36.6805 1.51655C36.8528 1.515 37.0236 1.55526 37.1783 1.63268C37.3315 1.71165 37.4655 1.82623 37.5689 1.96558C37.6861 2.12816 37.7719 2.31242 37.8217 2.50752C37.8891 2.7599 37.9197 3.02081 37.9136 3.28171C37.9166 3.52016 37.8829 3.75784 37.814 3.98623C37.7527 4.18907 37.6532 4.37797 37.523 4.54365C37.4004 4.70003 37.2473 4.827 37.0711 4.91526C36.885 5.00584 36.6805 5.05152 36.4737 5.04687C36.3114 5.05152 36.1498 5.0221 35.9989 4.96171C35.8687 4.90442 35.7484 4.82236 35.6466 4.72171V6.06107H34.8807V1.58623H35.3709C35.4658 1.57848 35.5524 1.64042 35.5776 1.73332L35.6006 2.043ZM35.6466 4.07913C35.7247 4.18365 35.8273 4.26494 35.9453 4.31913C36.0571 4.36558 36.1766 4.39036 36.2976 4.38881C36.4186 4.39423 36.5396 4.37023 36.6499 4.31913C36.7494 4.27268 36.8375 4.20068 36.9026 4.1101C36.9777 4.00171 37.0328 3.88171 37.0634 3.75397C37.1017 3.58674 37.1209 3.41487 37.1171 3.243C37.1201 3.07423 37.1048 2.90545 37.0711 2.73977C37.0458 2.62132 36.9991 2.50752 36.9332 2.40687C36.8613 2.31552 36.7617 2.25048 36.6499 2.22107C36.561 2.17926 36.4645 2.15913 36.3665 2.15913C36.2164 2.15448 36.0678 2.19165 35.9376 2.26752C35.8112 2.34803 35.7002 2.45023 35.6083 2.56945V4.11784L35.6466 4.07913ZM41.4672 1.58623L39.6444 5.89074C39.6261 5.94184 39.5939 5.98752 39.5525 6.02236C39.5005 6.05719 39.4377 6.07345 39.3764 6.06881H38.7867L39.4147 4.71397L38.0667 1.61719H38.7713C38.8234 1.61487 38.8755 1.63113 38.9169 1.66365C38.9506 1.69307 38.9766 1.73023 38.9934 1.77203L39.7134 3.483C39.7363 3.54107 39.7578 3.60068 39.7746 3.66107L39.8206 3.83913L39.8665 3.66107L39.9278 3.483L40.6018 1.73332C40.6355 1.64042 40.7259 1.58003 40.8239 1.58623H41.4672ZM41.6434 1.9501C41.7789 1.82003 41.9375 1.71784 42.1106 1.64816C42.3235 1.5661 42.5494 1.52661 42.7769 1.53203C42.9637 1.53048 43.1491 1.55526 43.3283 1.60945C43.4738 1.65126 43.6117 1.71939 43.7342 1.81074C43.8384 1.88661 43.9241 1.98416 43.9869 2.09719C44.0429 2.20171 44.0712 2.31861 44.0712 2.43784C44.0788 2.50442 44.0788 2.57255 44.0712 2.63913C44.0513 2.71036 44.0199 2.77848 43.9793 2.84042C43.9333 2.9101 43.8767 2.97436 43.8108 3.02623C43.7319 3.08816 43.6446 3.13848 43.5504 3.17332C43.7227 3.23526 43.8759 3.3421 43.9946 3.483C44.1079 3.62545 44.1677 3.80352 44.1631 3.98623C44.1654 4.14107 44.1248 4.29358 44.0482 4.42752C43.9716 4.55603 43.8705 4.66752 43.7495 4.75268C43.6216 4.84326 43.4792 4.91139 43.3283 4.95397C43.169 5.00042 43.0036 5.02365 42.8381 5.02365C42.7363 5.03139 42.6336 5.03139 42.5318 5.02365C42.2959 4.98494 42.0707 4.8959 41.8731 4.76042C41.7506 4.67061 41.6449 4.56068 41.5591 4.43526L41.7889 4.14107C41.8195 4.08997 41.8754 4.06055 41.9344 4.06365C41.9865 4.06365 42.0378 4.07913 42.0799 4.1101L42.2407 4.21848C42.3081 4.26184 42.3801 4.29823 42.4552 4.32687C42.5548 4.36094 42.6574 4.37642 42.7615 4.37332C42.9262 4.38571 43.0909 4.33616 43.2211 4.23397C43.3206 4.14726 43.3781 4.01952 43.3742 3.88558C43.3773 3.75861 43.3168 3.63939 43.2134 3.56816C43.0549 3.47836 42.8734 3.4381 42.6926 3.45203H42.3097V2.94107H42.685C42.8534 2.9519 43.0204 2.91474 43.1675 2.83268C43.2716 2.77229 43.3359 2.66003 43.3359 2.53848C43.3359 2.427 43.2823 2.32171 43.1904 2.25977C43.0694 2.17074 42.9262 2.12042 42.7769 2.11268C42.6804 2.09874 42.5823 2.09874 42.4858 2.11268L42.279 2.1901L42.1335 2.26752C42.0983 2.27681 42.0615 2.27681 42.0263 2.26752H41.9344C41.8992 2.24429 41.8701 2.21177 41.8502 2.17461L41.6434 1.9501ZM47.7704 1.58623V4.96171H47.0045V2.63913C46.9647 2.73203 46.9156 2.81952 46.859 2.90236L46.7977 2.99526L46.6445 3.21203L46.4377 3.50623L46.2003 3.84687L45.557 4.76042C45.5218 4.80919 45.4804 4.85332 45.4344 4.89203C45.3885 4.93307 45.3272 4.95552 45.2659 4.95397H44.7681V1.58623H45.534V3.90881C45.5784 3.8221 45.6297 3.73848 45.6872 3.66107L45.7485 3.56816L45.9016 3.35139L46.1084 3.05719L46.3458 2.71655L46.9892 1.803C47.0229 1.75036 47.0642 1.70236 47.1117 1.66365C47.1577 1.62261 47.2189 1.60171 47.2802 1.60171H47.7704V1.58623ZM51.4312 2.18236H50.2365V4.95397H49.4706V2.18236H48.2452V1.58623H51.4312V2.1901V2.18236ZM52.4269 3.37461C52.4345 3.5279 52.4652 3.67965 52.5188 3.82365C52.5617 3.93978 52.626 4.04429 52.7102 4.13332C52.7868 4.21461 52.8818 4.2781 52.986 4.31913C53.1008 4.36171 53.2234 4.38261 53.3459 4.38107C53.4608 4.38339 53.5734 4.3679 53.6829 4.33461C53.7671 4.30829 53.8491 4.275 53.928 4.23397L54.1118 4.13332C54.1577 4.10468 54.2114 4.08842 54.265 4.08687C54.3262 4.08223 54.3852 4.11242 54.4181 4.16429L54.6479 4.43526C54.5621 4.53745 54.461 4.62648 54.3492 4.69848C54.242 4.76816 54.1256 4.82545 54.0046 4.86881C53.8851 4.91216 53.7626 4.94313 53.6369 4.96171C53.5175 4.96945 53.3965 4.96945 53.277 4.96171C53.0549 4.96403 52.8343 4.92532 52.626 4.84558C52.4292 4.76816 52.2507 4.65048 52.1052 4.49719C51.952 4.33461 51.8356 4.14261 51.7606 3.93203C51.6717 3.68429 51.6273 3.42107 51.6304 3.15784C51.6281 2.93642 51.6641 2.71655 51.7376 2.50752C51.8754 2.10881 52.1726 1.78752 52.5571 1.62494C52.77 1.53436 52.9997 1.48945 53.231 1.49332C53.4302 1.491 53.627 1.52429 53.8131 1.59397C53.9854 1.65745 54.1424 1.7581 54.2726 1.88816C54.4028 2.02597 54.5054 2.1901 54.5713 2.36816C54.6464 2.57719 54.6831 2.79707 54.6785 3.01848C54.6862 3.10365 54.6724 3.18881 54.6402 3.26623C54.6042 3.31268 54.5453 3.33745 54.4871 3.32816H52.4269V3.37461ZM53.9586 2.88687C53.9586 2.78623 53.9433 2.6879 53.9127 2.59268C53.8859 2.5021 53.8414 2.41771 53.7825 2.34494C53.7212 2.27526 53.6446 2.21874 53.5604 2.18236C53.2709 2.05384 52.9339 2.10494 52.6949 2.31397C52.5509 2.4719 52.4621 2.67319 52.4422 2.88687H53.9739H53.9586ZM58.1862 1.58623C58.37 1.58236 58.5523 1.60326 58.73 1.64816C58.8679 1.68145 58.9965 1.73874 59.1129 1.81848C59.2071 1.88352 59.283 1.971 59.335 2.07397C59.381 2.17616 59.404 2.28687 59.404 2.39913C59.4116 2.47345 59.4116 2.54932 59.404 2.62365C59.3841 2.70339 59.3504 2.78003 59.3044 2.84816C59.2523 2.92403 59.188 2.98907 59.1129 3.04171C59.021 3.10752 58.9169 3.15474 58.8066 3.18107C58.9123 3.20274 59.0149 3.23681 59.1129 3.28171C59.201 3.32197 59.2814 3.37694 59.3504 3.44429C59.4155 3.50777 59.4675 3.58365 59.5035 3.66881C59.5403 3.76171 59.5587 3.86236 59.5572 3.963C59.5602 4.11784 59.5234 4.26881 59.4499 4.40429C59.381 4.52816 59.2837 4.63423 59.1666 4.71397C59.0402 4.79758 58.9 4.85797 58.753 4.89203C58.5921 4.93307 58.4283 4.95397 58.2628 4.95397H56.8689V1.58623H58.1862ZM57.6348 2.11268V2.99526H58.1633C58.2345 3.00687 58.3065 3.00687 58.3777 2.99526C58.4405 2.97203 58.4979 2.93332 58.5462 2.88687C58.5921 2.84352 58.6289 2.79087 58.6534 2.73203C58.6795 2.6701 58.6917 2.60507 58.6917 2.53848C58.6994 2.48971 58.6994 2.44016 58.6917 2.39139C58.6749 2.34107 58.6458 2.29616 58.6075 2.25977C58.5577 2.19397 58.4926 2.14365 58.416 2.11268C58.3317 2.09952 58.2475 2.09952 58.1633 2.11268H57.6348ZM58.2322 4.43526C58.3754 4.443 58.5156 4.3981 58.6304 4.31139C58.73 4.22623 58.7836 4.10081 58.776 3.97074C58.7836 3.91423 58.7836 3.85694 58.776 3.80042C58.753 3.74468 58.717 3.69668 58.6687 3.66107C58.6205 3.61771 58.563 3.58597 58.5002 3.56816C58.4114 3.555 58.321 3.555 58.2322 3.56816H57.6348V4.43526H58.2322ZM33.4715 13.8107V18.1153C32.9561 18.5039 32.3786 18.8004 31.7636 18.9901C31.1356 19.1782 30.4815 19.2719 29.8259 19.2688C29.0425 19.2765 28.2636 19.1395 27.5283 18.8662C26.8643 18.6185 26.257 18.236 25.7438 17.7436C25.2384 17.2691 24.8401 16.6907 24.572 16.0482C24.3009 15.3529 24.1661 14.612 24.1738 13.8649C24.1646 13.114 24.2948 12.3684 24.5567 11.6662C25.0446 10.3501 26.0732 9.31423 27.3751 8.82494C28.1104 8.54855 28.8893 8.41461 29.6728 8.4301C30.0733 8.427 30.4731 8.46106 30.8675 8.53074C31.2198 8.59577 31.566 8.691 31.9015 8.81719C32.2078 8.93177 32.5004 9.08042 32.7746 9.25848C33.0304 9.42494 33.2724 9.61461 33.4945 9.82365L32.9354 10.7217C32.8619 10.8533 32.7363 10.9501 32.5907 10.9849C32.4299 11.0128 32.2637 10.9741 32.1312 10.8765L31.6487 10.5978C31.4779 10.5011 31.2987 10.4198 31.1126 10.3578C30.8982 10.2835 30.6776 10.2262 30.454 10.1875C30.1729 10.1395 29.8887 10.1163 29.6038 10.1178C29.1213 10.1101 28.6427 10.1991 28.1946 10.3811C27.7841 10.5545 27.418 10.8193 27.1224 11.1553C26.8184 11.499 26.5863 11.9024 26.4408 12.3398C26.2754 12.8384 26.1957 13.3617 26.2034 13.8882C26.1957 14.4409 26.2838 14.9914 26.4638 15.514C26.6307 15.9692 26.8926 16.3834 27.2296 16.7295C27.5459 17.0701 27.9342 17.3333 28.3631 17.5036C28.8349 17.684 29.3358 17.7731 29.8413 17.7669C30.1706 17.7514 30.4976 17.6941 30.8139 17.5965C31.1226 17.5114 31.4228 17.3976 31.71 17.2559V15.274H30.385C30.2778 15.2794 30.1729 15.2399 30.094 15.1656C30.0235 15.0959 29.9845 15.0015 29.9868 14.9024V13.8107H33.4792H33.4715ZM38.2965 11.4804C38.8196 11.4704 39.3396 11.5625 39.8282 11.7514C40.2663 11.9233 40.663 12.1873 40.9924 12.5256C41.3317 12.874 41.5928 13.2897 41.7582 13.7488C42.1075 14.7963 42.1075 15.9297 41.7582 16.9772C41.5921 17.4378 41.3309 17.8575 40.9924 18.2082C40.663 18.5488 40.2671 18.812 39.8282 18.9824C39.3396 19.1713 38.8196 19.2634 38.2965 19.2533C37.7734 19.2611 37.2534 19.1705 36.7648 18.9824C36.3259 18.812 35.93 18.5488 35.6006 18.2082C35.2636 17.8567 35.0032 17.4371 34.8348 16.9772C34.4809 15.9305 34.4809 14.7955 34.8348 13.7488C35.0009 13.2905 35.2621 12.874 35.6006 12.5256C35.93 12.1865 36.3267 11.9217 36.7648 11.7514C37.2549 11.564 37.7734 11.4727 38.2965 11.4804ZM38.2965 17.8598C38.8326 17.8985 39.3534 17.66 39.6751 17.2249C40.0067 16.6675 40.1622 16.0226 40.1193 15.3746C40.1614 14.7243 40.0059 14.0763 39.6751 13.5165C39.3534 13.0784 38.8341 12.8353 38.2965 12.874C37.7527 12.8337 37.2243 13.0753 36.895 13.5165C36.558 14.074 36.401 14.7227 36.4431 15.3746C36.4002 16.0249 36.558 16.6706 36.895 17.2249C37.2266 17.6616 37.7527 17.9008 38.2965 17.8598ZM46.6598 11.4804C47.1829
                                           11.4704 47.703 11.5625 48.1916 11.7514C48.6297 11.9233 49.0264 12.1873 49.3557 12.5256C49.695 12.874 49.9562 13.2897 50.1216 13.7488C50.4708 14.7963 50.4708 15.9297 50.1216 16.9772C49.9554 17.4378 49.6942 17.8575 49.3557 18.2082C49.0264 18.5488 48.6304 18.812 48.1916 18.9824C47.703 19.1713 47.1829 19.2634 46.6598 19.2533C46.1367 19.2611 45.6167 19.1705 45.1281 18.9824C44.6892 18.812 44.2933 18.5488 43.964 18.2082C43.627 17.8567 43.3666 17.4371 43.1981 16.9772C42.8443 15.9305 42.8443 14.7955 43.1981 13.7488C43.3643 13.2905 43.6254 12.874 43.964 12.5256C44.2933 12.1865 44.69 11.9217 45.1281 11.7514C45.6183 11.564 46.1367 11.4727 46.6598 11.4804ZM46.6598 17.8598C47.1959 17.8985 47.7167 17.66 48.0384 17.2249C48.37 16.6675 48.5255 16.0226 48.4826 15.3746C48.5247 14.7243 48.3693 14.0763 48.0384 13.5165C47.7167 13.0784 47.1975 12.8353 46.6598 12.874C46.1161 12.8337 45.5876 13.0753 45.2583 13.5165C44.9213 14.074 44.7643 14.7227 44.8064 15.3746C44.7635 16.0249 44.9213 16.6706 45.2583 17.2249C45.5899 17.6616 46.1161 17.9008 46.6598 17.8598ZM58.2016 11.8598V12.5333C58.2016 12.7485 58.0315 12.9243 57.8186 12.9282L57.1523 13.052C57.2557 13.323 57.3078 13.6125 57.3055 13.9036C57.3185 14.5965 57.0091 15.2554 56.4707 15.6843C56.1934 15.9026 55.8794 16.0675 55.544 16.172C55.1687 16.2882 54.7796 16.3462 54.3875 16.3424C54.2474 16.3501 54.1064 16.3501 53.9663 16.3424L53.568 16.2804C53.3742 16.3656 53.2387 16.5483 53.2157 16.7604C53.2104 16.9036 53.2923 17.036 53.4225 17.0933C53.5964 17.1762 53.7825 17.228 53.9739 17.2482C54.2282 17.2791 54.484 17.2969 54.7398 17.3024C55.0308 17.3024 55.3295 17.3024 55.6359 17.3488C55.9369 17.3736 56.2363 17.4185 56.5319 17.4804C56.8 17.5346 57.0589 17.6314 57.2978 17.7669C57.5245 17.8969 57.7137 18.0843 57.8493 18.3088C58.0024 18.5604 58.0867 18.8492 58.0943 19.1449C58.092 19.4833 58.0078 19.8154 57.8493 20.1127C57.6754 20.4378 57.4357 20.7243 57.1446 20.9488C56.8031 21.2097 56.4201 21.4087 56.0112 21.5372C55.5156 21.6936 54.9987 21.7695 54.4794 21.7617C53.9847 21.771 53.4914 21.7153 53.0089 21.5991C52.6428 21.5217 52.2913 21.3862 51.9673 21.1965C51.7146 21.0378 51.5002 20.8203 51.347 20.5617C51.2091 20.3271 51.1379 20.06 51.1402 19.7875C51.1287 19.4608 51.2398 19.1426 51.4542 18.8972C51.6962 18.6572 51.9903 18.4776 52.312 18.3707C52.122 18.2778 51.9582 18.1354 51.8371 17.9604C51.7123 17.7591 51.651 17.5245 51.661 17.2869C51.661 17.1684 51.684 17.0507 51.7223 16.9385C51.7682 16.8123 51.8295 16.6923 51.9061 16.5824C51.9903 16.4585 52.0914 16.347 52.2048 16.2495C52.335 16.1364 52.4805 16.0404 52.6337 15.963C52.2722 15.7718 51.9673 15.4892 51.7452 15.1424C51.5247 14.78 51.4129 14.3604 51.4236 13.9346C51.4129 13.2402 51.7246 12.5813 52.266 12.154C52.5471 11.9325 52.8665 11.7669 53.2081 11.6662C53.8859 11.468 54.6019 11.444 55.2912 11.5965C55.5593 11.6585 55.8159 11.7591 56.0571 11.8907H58.2016V11.8598ZM56.4094 19.4856C56.4117 19.3617 56.3681 19.2394 56.2869 19.1449C56.1873 19.0443 56.0625 18.9692 55.9269 18.9282C55.7554 18.8716 55.5777 18.8329 55.3985 18.812L54.7551 18.7578H54.0582C53.8185 18.7578 53.5833 18.7369 53.3536 18.6959C53.1698 18.7965 53.0066 18.9297 52.8711 19.0907C52.747 19.2378 52.6819 19.4236 52.6873 19.6172C52.6888 19.7473 52.7233 19.875 52.7868 19.9888C52.8634 20.1127 52.9722 20.2149 53.1008 20.283C53.2755 20.3775 53.4646 20.4433 53.6599 20.4765C54.2228 20.5749 54.7972 20.5749 55.3602 20.4765C55.5692 20.4355 55.7707 20.362 55.9575 20.2598C56.1008 20.18 56.2202 20.0624 56.3022 19.9191C56.3818 19.7891 56.4217 19.6381 56.4171 19.4856H56.4094ZM54.3798 15.1888C54.5774 15.1927 54.775 15.1609 54.9619 15.0959C55.1166 15.0417 55.2575 14.955 55.3755 14.8404C55.485 14.732 55.5685 14.5989 55.6206 14.4533C55.678 14.2923 55.7071 14.122 55.7048 13.9501C55.7201 13.6226 55.6014 13.3029 55.3755 13.0675C54.7842 12.6324 53.9831 12.6324 53.3919 13.0675C53.1659 13.3029 53.0472 13.6226 53.0625 13.9501C53.061 14.1189 53.0893 14.2869 53.1468 14.4456C53.1989 14.5927 53.2823 14.7282 53.3919 14.8404C53.5098 14.955 53.6507 15.0417 53.8054 15.0959C53.9923 15.1609 54.1899 15.1927 54.3875 15.1888H54.3798ZM61.1578 8.21332V19.1449H59.358V8.21332H61.1578ZM64.3362 15.5991C64.3569 15.9429 64.4266 16.282 64.543 16.6056C64.6349 16.8642 64.7789 17.1011 64.9642 17.3024C65.1373 17.4851 65.3494 17.6252 65.5846 17.7127C65.8297 17.8025 66.09 17.8497 66.3504 17.852C66.6093 17.8598 66.8682 17.8257 67.1163 17.7514C67.3063 17.6918 67.4901 17.6167 67.6677 17.5269L68.0813 17.3024C68.1855 17.2389 68.3034 17.204 68.426 17.2017C68.5608 17.194 68.6887 17.2582 68.7629 17.372L69.2761 18.0378C69.0846 18.2662 68.8595 18.4636 68.6098 18.6262C68.3693 18.7811 68.112 18.9088 67.8439 19.0056C67.5781 19.1 67.3032 19.1682 67.0244 19.2069C66.7564 19.2456 66.4845 19.2673 66.2126 19.2688C65.7178 19.2727 65.2269 19.1836 64.7651 19.0056C64.3262 18.8353 63.9288 18.572 63.601 18.2314C63.2624 17.8675 63.0013 17.4386 62.8351 16.9695C62.636 16.4082 62.5402 15.8159 62.5517 15.2198C62.5425 14.7111 62.6252 14.204 62.7968 13.7256C62.953 13.2866 63.195 12.884 63.5091 12.5411C63.8277 12.2082 64.2106 11.9449 64.6349 11.7669C65.1189 11.5602 65.6412 11.4595 66.1666 11.4727C66.6108 11.4673 67.052 11.5424 67.4686 11.6972C67.8546 11.842 68.2039 12.0688 68.4949 12.363C68.7905 12.6704 69.0203 13.0365 69.1689 13.4391C69.3389 13.9036 69.4216 14.3991 69.4139 14.8946C69.4308 15.0843 69.4017 15.2755 69.3297 15.452C69.2531 15.5604 69.1229 15.6162 68.9927 15.5991H64.3362ZM67.7673 14.4998C67.7673 14.2737 67.7344 14.0492 67.6677 13.834C67.6088 13.6327 67.5092 13.4453 67.3767 13.2843C67.235 13.1372 67.0627 13.0226 66.8712 12.9514C66.6491 12.8554 66.4087 12.8074 66.1666 12.812C65.7148 12.7865 65.2721 12.9491 64.9412 13.2611C64.6272 13.6017 64.4281 14.0368 64.3745 14.4998H67.7673ZM77.0803 8.50752C77.6969 8.49513 78.3119 8.57874 78.9031 8.75526C79.3703 8.89616 79.803 9.13461 80.1745 9.45203C80.5114 9.74313 80.7749 10.1124 80.9403 10.5282C81.1073 10.9648 81.1908 11.4301 81.1854 11.8985C81.1915 12.3831 81.1058 12.8639 80.9327 13.3153C80.7657 13.7395 80.5038 14.1181 80.1668 14.4224C79.7946 14.7491 79.3588 14.9953 78.8878 15.1424C78.308 15.3235 77.703 15.4095 77.0956 15.3978H75.6328V19.1449H73.6722V8.50752H77.0956H77.0803ZM77.0803 13.8572C77.3943 13.8634 77.7068 13.8185 78.007 13.7256C78.2544 13.6482 78.4819 13.515 78.6734 13.3385C78.8533 13.1682 78.9904 12.9553 79.0716 12.7191C79.1581 12.4714 79.2018 12.2082 79.2018 11.9449C79.2056 11.6817 79.162 11.4185 79.0716 11.1707C78.9874 10.9462 78.8541 10.7449 78.681 10.5824C78.4911 10.412 78.2659 10.2851 78.0224 10.2107C77.716 10.1178 77.3989 10.0745 77.0803 10.0791H75.6175V13.8959H77.0803V13.8572ZM84.18 8.21332V19.1449H82.3802V8.21332H84.18ZM85.8036 12.6495C86.6361 11.8706 87.7336 11.444 88.8671 11.4572C89.2677 11.451 89.6659 11.5245 90.0389 11.674C90.3698 11.8095 90.6669 12.0146 90.912 12.2778C91.1548 12.5426 91.3409 12.8569 91.4558 13.1991C91.5821 13.5785 91.6442 13.9756 91.6396 14.3759V19.1449H90.8278C90.693 19.1527 90.5597 19.1248 90.4372 19.0675C90.3276 18.9955 90.2488 18.8856 90.2151 18.7578L90.0542 18.2159C89.8781 18.3754 89.6943 18.5256 89.5028 18.6649C89.3267 18.7919 89.1405 18.9003 88.9437 18.9901C88.7446 19.0799 88.5378 19.1473 88.3234 19.1914C88.0706 19.2425 87.8148 19.2657 87.5575 19.2611C87.2611 19.2634 86.9678 19.2185 86.6844 19.1295C86.4301 19.0505 86.1958 18.9189 85.9951 18.7424C85.7975 18.5658 85.6428 18.346 85.5432 18.0998C85.4306 17.8172 85.3763 17.5145 85.3824 17.2095C85.3824 17.0144 85.413 16.8208 85.4743 16.6365C85.5417 16.4384 85.6459 16.2541 85.7807 16.0946C85.943 15.9057 86.1314 15.7416 86.3397 15.6069C86.6024 15.4389 86.8858 15.3065 87.1822 15.212C87.5621 15.0866 87.9511 14.9937 88.3463 14.9333C88.8533 14.8559 89.3649 14.811 89.8781 14.8017V14.3759C89.9102 13.9749 89.7954 13.5754 89.5564 13.2533C89.3159 12.9994 88.9766 12.8662 88.6297 12.8895C88.3831 12.8817 88.1372 12.9158 87.9021 12.9901C87.726 13.052 87.5575 13.1295 87.3966 13.2224L86.9984 13.4546C86.8774 13.5243 86.7395 13.5591 86.6001 13.5553C86.4853 13.5591 86.3704 13.5243 86.2785 13.4546C86.1927 13.3927 86.1199 13.3129 86.064 13.2224L85.8036 12.6495ZM89.924 15.9243C89.4852 15.9421 89.0471 15.9885 88.6144 16.0636C88.3218 16.1124 88.0362 16.1984 87.7643 16.3191C87.5828 16.395 87.4242 16.5181 87.3047 16.6753C87.0773 17.0391 87.1386 17.5137 87.4503 17.8056C87.6754 17.9604 87.945 18.0332 88.2161 18.0146C88.5455 18.0224 88.8748 17.9542 89.1735 17.8133C89.4614 17.6554 89.7211 17.4495 89.9393 17.2017V15.9243H89.924ZM99.934 11.5965L95.8672 21.2198C95.8251 21.3344 95.7523 21.4365 95.6604 21.514C95.5455 21.5898 95.4077 21.6247 95.2698 21.6146H93.9295L95.3234 18.5875L92.3059 11.6198H93.8836C94.0015 11.612 94.1187 11.6484 94.2129 11.7204C94.288 11.7824 94.3485 11.8629 94.3891 11.9527L95.9744 15.8624C96.028 15.9909 96.074 16.1233 96.1123 16.2572L96.2195 16.6598L96.3497 16.2495C96.3957 16.1155 96.4439 15.9808 96.4952 15.8469L98.027 11.9759C98.0653 11.8784 98.1327 11.7955 98.2184 11.7359C98.3057 11.674 98.4099 11.6415 98.5171 11.643H99.957L99.934 11.5965Z" fill="grey"></path>
          </g>
          <defs>
            <linearGradient id="android_paint0_linear" x1="9.31799" y1="1.2448" x2="-6.34672" y2="5.37383" gradientUnits="userSpaceOnUse">
              <stop stop-color="#00A0FF"></stop>
              <stop offset="0.00657" stop-color="#00A1FF"></stop>
              <stop offset="0.2601" stop-color="#00BEFF"></stop>
              <stop offset="0.5122" stop-color="#00D2FF"></stop>
              <stop offset="0.7604" stop-color="#00DFFF"></stop>
              <stop offset="1" stop-color="#00E3FF"></stop>
            </linearGradient>
            <linearGradient id="paint1_linear" x1="18.8047" y1="10.2435" x2="-0.26805" y2="10.2435" gradientUnits="userSpaceOnUse">
              <stop stop-color="#FFE000"></stop>
              <stop offset="0.4087" stop-color="#FFBD00"></stop>
              <stop offset="0.7754" stop-color="#FFA500"></stop>
              <stop offset="1" stop-color="#FF9C00"></stop>
            </linearGradient>
            <linearGradient id="paint2_linear" x1="11.7043" y1="12.0739" x2="-1.05505" y2="33.3181" gradientUnits="userSpaceOnUse">
              <stop stop-color="#FF3A44"></stop>
              <stop offset="1" stop-color="#C31162"></stop>
            </linearGradient>
            <linearGradient id="paint3_linear" x1="-2.11476" y1="-5.54996" x2="3.57773" y2="3.93813" gradientUnits="userSpaceOnUse">
              <stop stop-color="#32A071"></stop>
              <stop offset="0.0685" stop-color="#2DA771"></stop>
              <stop offset="0.4762" stop-color="#15CF74"></stop>
              <stop offset="0.8009" stop-color="#06E775"></stop>
              <stop offset="1" stop-color="#00F076"></stop>
            </linearGradient>
            <clipPath id="clip0">
              <rect width="99.9571" height="21.7626" fill="white"></rect>
            </clipPath>
          </defs>
        </svg>