<svg width="85" height="23" viewBox="0 0 85 23" fill="none" xmlns="http://www.w3.org/2000/svg">
          <path fill-rule="evenodd" clip-rule="evenodd" d="M13.4834 10.4052C13.5026 8.88 14.2952 7.47097 15.5819 6.67355C14.767 5.49987 13.4528 4.78297 12.0359 4.73806C10.5042 4.57548 9.09495 5.64387 8.33673 5.64387C7.57852 5.64387 6.39142 4.75355 5.12772 4.78452C3.46808 4.83871 1.95931 5.77161 1.15284 7.23871C-0.562716 10.2503 0.716293 14.671 2.36292 17.1019C3.19006 18.2942 4.14741 19.6258 5.42641 19.5794C6.70542 19.5329 7.119 18.8052 8.60479 18.8052C10.0906 18.8052 10.5118 19.5794 11.7985 19.5794C13.0851 19.5794 13.9582 18.3871 14.7471 17.1794C15.3521 16.3332 15.8193 15.3948 16.1333 14.4C14.5265 13.7396 13.4773 12.1587 13.4834 10.4052ZM11.0556 3.13548C11.7755 2.26064 12.1309 1.13497 12.0436 0C10.9422 0.118452 9.92516 0.651871 9.19451 1.49419C8.47229 2.32413 8.10544 3.41032 8.1759 4.51355C9.29408 4.52516 10.3556 4.01806 11.0556 3.13548ZM23.0262 1.50194C23.2177 1.33781 23.4398 1.21161 23.6772 1.13032C23.9606 1.03432 24.2592 0.990968 24.5579 0.99871C24.7908 0.996387 25.0228 1.02735 25.2472 1.09161C25.4349 1.14348 25.6118 1.23097 25.768 1.3471C25.9059 1.45161 26.0185 1.5871 26.0973 1.74194C26.1739 1.89832 26.2145 2.07019 26.2122 2.24516C26.2138 2.45652 26.1609 2.66477 26.059 2.84903C25.9518 3.03794 25.791 3.18968 25.5995 3.29032C25.7067 3.34065 25.8063 3.40258 25.8982 3.47613C25.9733 3.5551 26.0376 3.64335 26.0897 3.73935C26.154 3.82452 26.2061 3.91742 26.2429 4.01806C26.2796 4.12258 26.2965 4.23252 26.2965 4.34323C26.2965 4.55071 26.2543 4.75587 26.1739 4.9471C26.095 5.1329 25.9779 5.29935 25.8293 5.43484C25.6685 5.57884 25.4808 5.68877 25.2779 5.76C25.0328 5.84671 24.7724 5.88852 24.512 5.88387C24.1926 5.88387 23.8763 5.82658 23.5776 5.71355C23.4367 5.6609 23.3019 5.59742 23.1717 5.52C23.0515 5.45497 22.9389 5.37677 22.8347 5.28774L23.0951 4.86194C23.1181 4.83097 23.1472 4.80542 23.1794 4.78452C23.2177 4.77368 23.2559 4.77368 23.2942 4.78452C23.3609 4.78916 23.4244 4.81316 23.4781 4.85419L23.7231 5.00129C23.8304 5.0609 23.9437 5.10968 24.0601 5.14839C24.2133 5.19794 24.3741 5.22116 24.535 5.21806C24.777 5.23355 25.0175 5.16387 25.2166 5.02452C25.3851 4.87742 25.4732 4.6591 25.454 4.43613C25.4563 4.33703 25.4356 4.23871 25.3927 4.14968C25.3491 4.06452 25.2855 3.98942 25.2089 3.9329C25.1323 3.85239 25.0404 3.78581 24.9409 3.73935C24.816 3.70606 24.6881 3.69058 24.5579 3.6929H23.8993V2.96516H24.5043C24.728 2.97832 24.9501 2.92181 25.14 2.80258C25.2932 2.69574 25.379 2.51768 25.3698 2.33032C25.3736 2.16 25.2932 1.99742 25.1553 1.89677C24.9792 1.77677 24.7701 1.71484 24.5579 1.71871C24.4201 1.71716 24.2838 1.73419 24.152 1.7729C24.0502 1.80387 23.9498 1.84258 23.8533 1.88903L23.6389 2.00516C23.5929 2.03613 23.5409 2.05548 23.4857 2.05935C23.4505 2.07019 23.4137 2.07019 23.3785 2.05935C23.3433 2.03226 23.3149 1.99742 23.2942 1.95871L23.0262 1.50194ZM26.8556 2.90323C27.2308 2.55097 27.7287 2.35897 28.2418 2.36903C28.4202 2.36748 28.5972 2.40155 28.7626 2.46968C28.9104 2.53006 29.0437 2.62297 29.1532 2.74065C29.2619 2.85832 29.3446 2.99845 29.3983 3.15097C29.4565 3.32129 29.4848 3.49935 29.4825 3.67742V5.80645H29.1072C29.049 5.82194 28.9893 5.82194 28.9311 5.80645C28.8821 5.77394 28.8468 5.72439 28.8315 5.6671L28.7626 5.4271L28.5175 5.62839C28.4378 5.68568 28.3536 5.73445 28.2648 5.77548C28.1767 5.81652 28.084 5.84748 27.989 5.86839C27.8795 5.88 27.7692 5.88 27.6597 5.86839C27.5272 5.86839 27.3955 5.84748 27.2691 5.80645C27.1565 5.77161 27.0516 5.71355 26.9628 5.63613C26.8755 5.55716 26.8073 5.45961 26.7637 5.34968C26.7146 5.22426 26.6909 5.08955 26.6947 4.95484C26.7047 4.77677 26.7598 4.60258 26.8556 4.45161C26.9268 4.368 27.0087 4.29523 27.1006 4.23484C27.2178 4.15974 27.3442 4.09935 27.4759 4.05677C27.6459 4.00103 27.8206 3.96 27.9967 3.9329C28.2203 3.90039 28.4447 3.88181 28.6707 3.87871V3.67742C28.6814 3.49781 28.6301 3.31974 28.5252 3.17419C28.4179 3.06116 28.2663 3.00155 28.1116 3.01161C28.0028 3.00852 27.8941 3.02477 27.7899 3.05806C27.7103 3.08361 27.6337 3.11768 27.5602 3.15871L27.384 3.25935C27.3304 3.29032 27.2691 3.30581 27.2079 3.30581C27.1558 3.30735 27.1045 3.29032 27.0623 3.25935C27.0256 3.23148 26.9949 3.19742 26.9704 3.15871L26.8556 2.90323ZM28.7013 4.36645C28.506 4.37419 28.3107 4.39432 28.1192 4.42839C27.9875 4.45161 27.8589 4.49032 27.7363 4.54452C27.6544 4.57935 27.5831 4.6351 27.5295 4.7071C27.43 4.86813 27.4552 5.07871 27.5908 5.21032C27.6881 5.27613 27.8029 5.30864 27.9201 5.30323C28.081 5.31252 28.2418 5.28 28.3873 5.21032C28.5198 5.14065 28.6385 5.05006 28.7396 4.93935V4.37419L28.7013 4.36645ZM32.4924 3.03484H31.0372V5.80645H30.2713V2.43871H32.569V3.04258H32.4924V3.03484ZM33.7484 2.89548C33.8809 2.74219 34.0394 2.61368 34.2156 2.51613C34.404 2.41548 34.6139 2.36439 34.8283 2.36903C35.0006 2.36748 35.1714 2.40774 35.3261 2.48516C35.4793 2.56413 35.6133 2.67871 35.7167 2.81806C35.8339 2.98064 35.9197 3.1649 35.9695 3.36C36.0368 3.61239 36.0675 3.87329 36.0614 4.13419C36.0644 4.37265 36.0307 4.61032 35.9618 4.83871C35.9005 5.04155 35.801 5.23045 35.6708 5.39613C35.418 5.72129 35.0297 5.9071 34.6215 5.89935C34.4591 5.904 34.2975 5.87458 34.1467 5.81419C33.9958 5.75071 33.8602 5.65548 33.7484 5.53548V6.91355H32.9825V2.43871H33.4727C33.5677 2.43097 33.6542 2.4929 33.6795 2.58581L33.7484 2.89548ZM33.7484 4.93935C33.8265 5.04387 33.9292 5.12516 34.0471 5.17935C34.1589 5.22581 34.2784 5.25058 34.3994 5.24903C34.5128 5.25058 34.6253 5.22735 34.7287 5.17935C34.8283 5.1329 34.9164 5.0609 34.9815 4.97032C35.0565 4.86194 35.1117 4.74194 35.1423 4.61419C35.1806 4.44697 35.1997 4.2751 35.1959 4.10323C35.199 3.93445 35.1837 3.76568 35.15 3.6C35.1247 3.48155 35.078 3.36774 35.0121 3.2671C34.9585 3.18658 34.8842 3.1231 34.7977 3.08129C34.7096 3.03716 34.6123 3.01316 34.5143 3.01161C34.3642 3.00697 34.2156 3.04413 34.0854 3.12C33.959 3.20052 33.848 3.30271 33.7561 3.42194V4.97032L33.7484 4.93935ZM39.592 2.43871L37.7693 6.74323C37.7509 6.79432 37.7187 6.84 37.6773 6.87484C37.6253 6.90968 37.5625 6.92593 37.5012 6.92129H36.9115L37.5778 5.56645L36.2298 2.46968H36.8885C36.9406 2.46735 36.9927 2.48361 37.034 2.51613C37.0677 2.54555 37.0938 2.58271 37.1106 2.62452L37.8229 4.37419C37.8458 4.43226 37.8673 4.49187 37.8841 4.55226L37.9301 4.73032L37.9914 4.51355L38.0526 4.33548L38.7266 2.58581C38.7603 2.4929 38.8507 2.43252 38.9487 2.43871H39.592ZM39.7682 2.80258C39.9037 2.67252 40.0623 2.57032 40.2354 2.50065C40.4498 2.41781 40.6796 2.37832 40.9093 2.38452C41.0962 2.38297 41.2815 2.40774 41.4608 2.46194C41.6063 2.50374 41.7441 2.57187 41.8667 2.66323C41.9708 2.7391 42.0566 2.83665 42.1194 2.94968C42.1753 3.05419 42.2037 3.1711 42.2037 3.29032C42.2113 3.3569 42.2113 3.42503 42.2037 3.49161C42.1837 3.56284 42.1523 3.63097 42.1118 3.6929C42.0658 3.76258 42.0091 3.82684 41.9433 3.87871C41.8644 3.94064 41.7771 3.99097 41.6829 4.02581C41.8552 4.08774 42.0084 4.19458 42.1271 4.33548C42.2404 4.47794 42.3002 4.656 42.2956 4.83871C42.2979 4.99742 42.255 5.15303 42.173 5.28774C42.0964 5.41626 41.9953 5.52774 41.8743 5.6129C41.7464 5.70348 41.604 5.77161 41.4531 5.81419C41.2938 5.86064 41.1284 5.88387 40.9629 5.88387C40.8611 5.89161 40.7585 5.89161 40.6566 5.88387C40.4207 5.84516 40.1955 5.75613 39.9979 5.62064C39.8754 5.52774 39.7682 5.41626 39.6839 5.28774L39.9137 4.99355C39.9443 4.94245 40.0002 4.91303 40.0592 4.91613C40.1113 4.91613 40.1626 4.93161 40.2047 4.96258L40.3656 5.07097C40.433 5.11432 40.505 5.15071 40.58 5.17935C40.6796 5.21342 40.7822 5.2289 40.8864 5.22581C41.051 5.23819 41.2157 5.18864 41.3459 5.08645C41.4454 4.99974 41.5029 4.872 41.4991 4.73806C41.5021 4.6111 41.4416 4.49187 41.3382 4.42065C41.1797 4.33084 40.9982 4.29058 40.8174 4.30452H40.4422V3.79355H40.8174C40.9859 3.80439 41.1529 3.76723 41.2999 3.68516C41.4041 3.62477 41.4684 3.51252 41.4684 3.39097C41.4684 3.27948 41.4148 3.17419 41.3229 3.11226C41.1958 3.01935 41.0434 2.96748 40.8864 2.96516C40.7899 2.95123 40.6918 2.95123 40.5953 2.96516L40.3885 3.04258L40.243 3.12C40.2078 3.12929 40.171 3.12929 40.1358 3.12H40.0439C40.0087 3.09677 39.9796 3.06426 39.9597 3.0271L39.7682 2.80258ZM45.8952 2.43871V5.81419H45.1293V3.49161C45.0895 3.58452 45.0405 3.672 44.9838 3.75484L44.9225 3.84774L44.7693 4.06452L44.5625 4.35871L44.3251 4.69935L43.7048 5.6129C43.6695 5.66168 43.6282 5.70581 43.5822 5.74452C43.5363 5.78555 43.475 5.808 43.4137 5.80645H42.8929V2.43871H43.6588V4.76129C43.7032 4.67458 43.7546 4.59097 43.812 4.51355L43.8733 4.42065L44.0264 4.20387L44.2332 3.90968L44.4706 3.55355L45.114 2.64C45.1477 2.58735 45.189 2.53935 45.2365 2.50065C45.2825 2.45961 45.3437 2.43871 45.405 2.43871H45.8952ZM49.556 3.03484H48.3613V5.80645H47.5341V3.03484H46.37V2.43871H49.556V3.04258V3.03484ZM50.5517 4.2271C50.5593 4.38039 50.59 4.53213 50.6436 4.67613C50.6865 4.79226 50.7508 4.89677 50.8351 4.98581C50.9116 5.0671 51.0066 5.13058 51.1108 5.17161C51.2257 5.21419 51.3482 5.2351 51.4707 5.23355C51.5856 5.23587 51.6982 5.22039 51.8077 5.1871C51.892 5.16077 51.9739 5.12748 52.0528 5.08645L52.2366 4.98581C52.2826 4.95716 52.3362 4.9409 52.3898 4.93935C52.451 4.93471 52.51 4.9649 52.543 5.01677L52.7727 5.28774C52.6869 5.38994 52.5858 5.47897 52.474 5.55097C52.3668 5.62065 52.2504 5.67794 52.1294 5.72129C52.0099 5.76464 51.8874 5.79561 51.7618 5.81419C51.6423 5.82194 51.5213 5.82194 51.4018 5.81419C51.1797 5.81652 50.9591 5.77781 50.7508 5.69806C50.554 5.62065 50.3755 5.50297 50.23 5.34968C50.0768 5.1871 49.9604 4.9951 49.8854 4.78452C49.7965 4.53677 49.7521 4.27355 49.7552 4.01032C49.7475 3.80361 49.7728 3.5969 49.8318 3.39871C49.9696 3 50.2668 2.67871 50.6512 2.51613C50.8764 2.42013 51.1184 2.37523 51.3635 2.38452C51.5626 2.38219 51.7595 2.41548 51.9456 2.48516C52.1179 2.54865 52.2749 2.64929 52.4051 2.77935C52.5353 2.91716 52.6379 3.08129 52.7038 3.25935C52.7788 3.46839 52.8156 3.68826 52.811 3.90968C52.8187 3.99484 52.8049 4.08 52.7727 4.15742C52.7367 4.20387 52.6777 4.22864 52.6195 4.21935H50.5517V4.2271ZM52.0834 3.73935C52.0834 3.63871 52.0681 3.54039 52.0375 3.44516C52.0107 3.35458 51.9663 3.27019 51.9073 3.19742C51.846 3.12774 51.7694 3.07123 51.6852 3.03484C51.3941 2.9071 51.0549 2.95742 50.8121 3.16645C50.6819 3.32903 50.6076 3.53032 50.5976 3.73935H52.0834ZM56.3111 2.43871C56.4949 2.43484 56.6771 2.45574 56.8548 2.50065C56.9927 2.53394 57.1213 2.59123 57.2378 2.67097C57.348 2.74219 57.4369 2.84439 57.4905 2.96516C57.5364 3.06735 57.5594 3.17806 57.5594 3.29032C57.5671 3.36465 57.5671 3.44052 57.5594 3.51484C57.5487 3.59226 57.5257 3.66968 57.4905 3.73935C57.4384 3.81523 57.3741 3.88026 57.299 3.9329C57.2071 3.99871 57.103 4.04594 56.9927 4.07226C57.0984 4.09394 57.201 4.128 57.299 4.1729C57.3871 4.21316 57.4675 4.26813 57.5364 4.33548C57.6015 4.39897 57.6536 4.47484 57.6896 4.56C57.7264 4.6529 57.7448 4.75355 57.7432 4.85419C57.7463 5.00903 57.7095 5.16 57.636 5.29548C57.5671 5.41935 57.4698 5.52542 57.3526 5.60516C57.2263 5.68877 57.0861 5.74916 56.9391 5.78323C56.7782 5.82426 56.6143 5.84516 56.4489 5.84516H54.9937V2.43871H56.3111ZM55.7596 2.96516V3.84774H56.2881C56.3593 3.85935 56.4313 3.85935 56.5025 3.84774C56.5653 3.82452 56.6228 3.78581 56.671 3.73935C56.717 3.696 56.7537 3.64335 56.7782 3.58452C56.805 3.52258 56.8181 3.45755 56.8165 3.39097C56.8242 3.34219 56.8242 3.29265 56.8165 3.24387C56.8012 3.18426 56.769 3.13084 56.7246 3.08903C56.6741 3.03329 56.6113 2.99071 56.5408 2.96516C56.4566 2.952 56.3723 2.952 56.2881 2.96516H55.7596ZM56.357 5.28774C56.4933 5.28 56.6228 5.22426 56.7246 5.1329C56.8242 5.04774 56.8778 4.92232 56.8701 4.79226C56.8778 4.73574 56.8778 4.67845 56.8701 4.62194C56.8548 4.58168 56.8318 4.54452 56.8012 4.51355C56.753 4.47019 56.6955 4.43845 56.6327 4.42065C56.5439 4.40748 56.4535 4.40748 56.3647 4.42065H55.7596V5.28774H56.357ZM31.6806 19.9974H30.1488C30.0002 20.0036 29.8539 19.9564 29.7352 19.8658C29.6303 19.783 29.5484 19.6723 29.4978 19.5484L28.7319 17.3806H24.3665L23.6006 19.5484C23.5562 19.6707 23.4796 19.7775 23.3785 19.8581C23.2613 19.9533 23.115 20.0021 22.9649 19.9974H21.4332L25.5536 9.36H27.5448L31.6806 19.9974ZM28.2265 15.9794L26.9475 12.4413C26.8663 12.2617 26.7996 12.0751 26.7483 11.8839C26.6771 11.6671 26.6082 11.4348 26.5415 11.1871C26.4803 11.4348 26.4113 11.6748 26.3424 11.8916C26.2735 12.1084 26.2122 12.3019 26.1433 12.4645L24.8719 15.9871H28.2265V15.9794ZM34.1773 13.4787C34.4737 13.1381 34.826 12.8539 35.2189 12.6348C35.6401 12.4103 36.1127 12.2981 36.5898 12.3097C36.9773 12.3043 37.3603 12.3917 37.708 12.5652C38.0549 12.751 38.3536 13.0157 38.5811 13.3394C38.8262 13.6986 39.0061 14.0996 39.1095 14.5239C39.2474 15.0465 39.3133 15.5845 39.3087 16.1265C39.3201 16.6498 39.2527 17.1716 39.1095 17.6748C38.9732 18.1293 38.7549 18.5543 38.4662 18.929C38.1935 19.2774 37.8481 19.56 37.4552 19.7574C37.0417 19.9587 36.5883 20.0594 36.1303 20.0516C35.7627 20.0625 35.3989 19.9974 35.0581 19.8581C34.7724 19.7265 34.5143 19.5406 34.2922 19.3161V22.4129H32.4771V12.449H33.5723C33.7844 12.4335 33.9782 12.5729 34.0318 12.7819L34.1773 13.4787ZM34.2692 18.0387C34.4454 18.2663 34.6751 18.4467 34.9355 18.5652C35.1783 18.6674 35.4387 18.72 35.7014 18.72C35.9649 18.7277 36.2268 18.6751 36.4673 18.5652C36.6909 18.4591 36.8831 18.2965 37.0264 18.0929C37.1903 17.8591 37.3097 17.5974 37.3787 17.3187C37.4667 16.9471 37.5089 16.5639 37.5012 16.1806C37.5073 15.8036 37.4706 15.4274 37.394 15.0581C37.345 14.7832 37.2431 14.52 37.0953 14.2839C36.9766 14.1043 36.8119 13.9587 36.6204 13.8658C36.4213 13.7768 36.2038 13.7319 35.9848 13.7342C35.6524 13.7249 35.3238 13.8085 35.0351 13.9742C34.7425 14.1523 34.4837 14.3799 34.2692 14.6477V18.0387ZM42.4411 13.4787C42.7375 13.1381 43.0898 12.8539 43.4827 12.6348C43.9039 12.4103 44.3764 12.2981 44.8536 12.3097C45.2518 12.2996 45.6455 12.3871 46.0024 12.5652C46.3493 12.751 46.648 13.0157 46.8755 13.3394C47.1305 13.7141 47.312 14.1345 47.4116 14.5781C47.5518 15.1123 47.6184 15.6658 47.6107 16.2194C47.6146 16.7443 47.5403 17.2661 47.3886 17.7677C47.2546 18.2067 47.044 18.6194 46.7683 18.9832C46.4956 19.3316 46.1502 19.6142 45.7573 19.8116C45.3437 20.0129 44.8903 20.1135 44.4324 20.1058C44.0647 20.1166 43.7009 20.0516 43.3601 19.9123C43.0745 19.7806 42.8164 19.5948 42.5943 19.3703V22.4671H40.7408V12.449H41.836C42.0482 12.4335 42.242 12.5729 42.2956 12.7819L42.4411 13.4787ZM42.533 18.0387C42.7091 18.2663 42.9389 18.4467 43.1993 18.5652C43.4421 18.6674 43.7025 18.72 43.9652 18.72C44.2286 18.7277 44.4906 18.6751 44.731 18.5652C44.9547 18.4591 45.1469 18.2965 45.2901 18.0929C45.454 17.8591 45.5735 17.5974 45.6424 17.3187C45.7305 16.9471 45.7726 16.5639 45.765 16.1806C45.7711 15.8036 45.7343 15.4274 45.6577 15.0581C45.6087 14.7832 45.5069 14.52 45.3591 14.2839C45.2403 14.1043 45.0757 13.9587 44.8842 13.8658C44.6851 13.7768 44.4676 13.7319 44.2485 13.7342C43.9162 13.7249 43.5876 13.8085 43.2989 13.9742C43.0063 14.1523 42.7474 14.3799 42.533 14.6477V18.0387ZM57.5441 11.2955C57.4997 11.383 57.4369 11.4596 57.3603 11.52C57.2875 11.5688 57.2018 11.5928 57.1152 11.5897C56.995 11.5866 56.8778 11.5494 56.7782 11.4813L56.3493 11.2258C56.1632 11.1228 55.9687 11.0377 55.7673 10.9703C55.5199 10.8906 55.2618 10.8511 55.0014 10.8542C54.7602 10.8503 54.5189 10.8852 54.2891 10.9548C54.1023 11.0137 53.9277 11.1081 53.776 11.2335C53.6412 11.3481 53.5363 11.4945 53.4697 11.6594C53.4007 11.8312 53.367 12.0155 53.3701 12.2013C53.3624 12.4289 53.4352 12.6519 53.5769 12.8284C53.7301 13.0065 53.9177 13.1512 54.1283 13.2542C54.3749 13.3804 54.6307 13.4865 54.8942 13.5716L55.7903 13.8658C56.0951 13.9703 56.3953 14.0919 56.6863 14.2297C56.9666 14.3652 57.2247 14.5425 57.4522 14.7561C57.6858 14.9745 57.8734 15.2377 58.0036 15.5303C58.1683 15.8865 58.2548 16.2751 58.2564 16.6684C58.2594 17.129 58.176 17.5858 58.0113 18.0155C57.8543 18.4289 57.6115 18.8052 57.299 19.1148C56.9735 19.4508 56.5822 19.7141 56.1502 19.889C55.6601 20.0748 55.1416 20.1662 54.6185 20.16C54.2662 20.143 53.9177 20.0888 53.5769 19.9974C53.2575 19.9316 52.9443 19.8348 52.6425 19.711C52.3484 19.591 52.0666 19.4431 51.8001 19.2697C51.5473 19.1055 51.3137 18.9135 51.1031 18.6968L51.6775 17.7445C51.7288 17.6748 51.7939 17.6168 51.869 17.5742C51.9494 17.5339 52.0398 17.5177 52.1294 17.5277C52.2726 17.5378 52.4089 17.592 52.52 17.6826L53.0255 18.0155C53.2414 18.1486 53.4697 18.2601 53.7071 18.3484C54.0073 18.4545 54.3236 18.5032 54.6414 18.4955C55.1148 18.5311 55.5835 18.3871 55.9588 18.0929C56.2766 17.7987 56.4458 17.3745 56.4183 16.9394C56.4282 16.6947 56.3555 16.4547 56.2115 16.2581C56.0606 16.0723 55.873 15.9228 55.6601 15.8168C55.415 15.6906 55.1592 15.5892 54.8942 15.5148L54.0058 15.2439C53.7025 15.1432 53.4061 15.0248 53.1174 14.8877C52.834 14.753 52.5759 14.5726 52.3515 14.3535C52.1141 14.119 51.9257 13.8364 51.8001 13.5252C51.6515 13.135 51.581 12.72 51.5933 12.3019C51.5956 11.5045 51.9195 10.7412 52.4893 10.1884C52.8018 9.89187 53.1687 9.66039 53.5692 9.5071C54.0387 9.32903 54.5381 9.24155 55.0397 9.25161C55.6141 9.24929 56.1847 9.34839 56.7246 9.54581C57.2224 9.72387 57.6789 10.0026 58.0649 10.3665L57.5441 11.2955ZM61.8024 20.1135C61.2356 20.16 60.6765 19.9587 60.2706 19.5561C59.9007 19.1303 59.7131 18.5729 59.7498 18.0077V13.8039H59.0222C58.9319 13.807 58.8438 13.7729 58.7772 13.711C58.7052 13.6335 58.6699 13.5298 58.6776 13.4245V12.7123L59.88 12.511L60.2553 10.4516C60.2752 10.3634 60.3242 10.2844 60.3932 10.2271C60.4697 10.1729 60.5616 10.145 60.6536 10.1497H61.5879V12.5265H63.6175V13.8039H61.6262V17.8916C61.6109 18.0898 61.6706 18.2865 61.7947 18.4413C61.9127 18.576 62.0842 18.6503 62.2619 18.6426C62.3553 18.6581 62.4518 18.6581 62.5453 18.6426L62.7444 18.5574L62.8516 18.449C62.8945 18.4374 62.9389 18.4374 62.9818 18.449C63.0239 18.4351 63.0699 18.4351 63.112 18.449C63.1534 18.4854 63.1886 18.5265 63.2192 18.5729L63.7553 19.4555C63.4919 19.6939 63.1848 19.8782 62.8516 19.9974C62.51 20.0919 62.1562 20.1306 61.8024 20.1135ZM67.9753 12.3329C68.4984 12.3228 69.0184 12.415 69.5071 12.6039C69.9451 12.7757 70.3419 13.0397 70.6712 13.3781C71.0105 13.7265 71.2716 14.1422 71.4371 14.6013C71.7863 15.6488 71.7863 16.7822 71.4371 17.8297C71.2709 18.2903 71.0097 18.7099 70.6712 19.0606C70.3419 19.4013 69.9459 19.6645 69.5071 19.8348C69.0184 20.0237 68.4984 20.1159 67.9753 20.1058C67.4522 20.1135 66.9322 20.023 66.4436 19.8348C66.0047 19.6645 65.6088 19.4013 65.2794 19.0606C64.9424 18.7092 64.682 18.2895 64.5136 17.8297C64.1597 16.783 64.1597 15.648 64.5136 14.6013C64.6798 14.143 64.9409 13.7265 65.2794 13.3781C65.6088 13.039 66.0055 12.7742 66.4436 12.6039C66.9337 12.4165 67.4522 12.3252 67.9753 12.3329ZM67.9753 18.7123C68.5114 18.751 69.0322 18.5125 69.3539 18.0774C69.6855 17.52 69.841 16.8751 69.7981 16.2271C69.8402 15.5768 69.6847 14.9288 69.3539 14.369C69.0322 13.9308 68.513 13.6877 67.9753 13.7265C67.4315 13.6862 66.9031 13.9277 66.5738 14.369C66.2368 14.9265 66.0798 15.5752 66.1219 16.2271C66.079 16.8774 66.2368 17.5231 66.5738 18.0774C66.9054 18.5141 67.4315 18.7533 67.9753 18.7123ZM74.7303 13.7574C74.9294 13.3494 75.2113 12.9879 75.5575 12.6968C75.8791 12.439 76.2804 12.3019 76.6909 12.3097C76.9835 12.2942 77.273 12.3732 77.5181 12.5342L77.4032 13.8968C77.3879 13.9688 77.3496 14.033 77.296 14.0826C77.2424 14.1213 77.178 14.1399 77.1122 14.1368C77.005 14.1445 76.8977 14.1445 76.7905 14.1368C76.6504 14.1244 76.5094 14.1244 76.3693 14.1368C76.1893 14.1337 76.0108 14.1623 75.8408 14.2219C75.6861 14.28 75.5421 14.3667 75.4196 14.4774C75.2894 14.5935 75.1791 14.7298 75.0903 14.88C74.9876 15.0503 74.8988 15.2284 74.8222 15.4142V20.0594H73.0224V12.449H74.0793C74.2126 12.4196 74.352 12.4552 74.4546 12.545C74.5595 12.6348 74.6154 12.768 74.6078 12.9058L74.7303 13.7574ZM79.6319 16.4516C79.6526 16.7954 79.7223 17.1345 79.8387 17.4581C79.9306 17.7166 80.0746 17.9535 80.2599 18.1548C80.433 18.3375 80.6452 18.4777 80.8803 18.5652C81.1254 18.655 81.3858 18.7022 81.6461 18.7045C81.905 18.7123 82.1639 18.6782 82.412 18.6039C82.602 18.5443 82.7858 18.4692 82.9635 18.3794L83.377 18.1548C83.4812 18.0914 83.5991 18.0565 83.7217 18.0542C83.8565 18.0465 83.9844 18.1107 84.0587 18.2245L84.5718 18.8903C84.3803 19.1187 84.1551 19.3161 83.9055 19.4787C83.665 19.6335 83.4077 19.7613 83.1396 19.8581C82.8738 19.9525 82.5989 20.0206 82.3201 20.0594C82.0521 20.0981 81.7802 20.1197 81.5083 20.1213C81.0135 20.1252 80.5226 20.0361 80.0608 19.8581C79.6219 19.6877 79.2245 19.4245 78.8967 19.0839C78.5581 18.72 78.297 18.2911 78.1308 17.8219C77.9317 17.2606 77.8359 16.6684 77.8474 16.0723C77.8382 15.5636 77.9209 15.0565 78.0925 14.5781C78.2487 14.1391 78.4908 13.7365 78.8048 13.3935C79.1234 13.0606 79.5063 12.7974 79.9306 12.6194C80.4146 12.4126 80.937 12.312 81.4623 12.3252C81.9065 12.3197 82.3477 12.3948 82.7643 12.5497C83.1503 12.6945 83.4996 12.9213 83.7906 13.2155C84.0862 13.5228 84.316 13.889 84.4646 14.2916C84.6346 14.7561 84.7173 15.2516 84.7096 15.7471C84.7265 15.9368 84.6974 16.128 84.6254 16.3045C84.5488 16.4129 84.4186 16.4686 84.2884 16.4516H79.6319ZM83.0554 15.3523C83.0554 15.1262 83.0224 14.9017 82.9558 14.6865C82.8968 14.4852 82.7973 14.2978 82.6648 14.1368C82.5292 13.9757 82.3584 13.8488 82.1669 13.7652C81.9448 13.6692 81.7044 13.6212 81.4623 13.6258C81.0105 13.6003 80.5678 13.7628 80.2369 14.0748C79.9268 14.431 79.7391 14.88 79.7008 15.3523H83.0554Z" fill="grey"></path>
        </svg>