<svg width="92" height="24" viewBox="0 0 92 24" fill="none" xmlns="http://www.w3.org/2000/svg">
          <path d="M56.6283 22.3685C56.2085 22.2907 55.8094 22.1728 55.4022 22.0504C55.3992 21.6193 55.4369 21.1713 55.5184 20.7623C59.1775 21.8264 60.0253 21.1297 60.0877 18.7719V18.2055L59.6152 18.6406C59.0005 19.2067 58.3987 19.409 57.5019 19.351C55.7205 19.2358 54.7339 17.9233 54.731 15.6646C54.7293 14.314 55.0255 13.4559 55.7708 12.653C56.7651 11.582 58.4666 11.376 59.6563 12.1827L60.0877 12.4752V12.1689V11.8626L60.854 11.8881L61.6203 11.9137L61.6456 14.9582C61.6851 19.7049 61.5473 20.6317 60.6674 21.5351C59.4879 22.5382 58.2825 22.5349 56.6283 22.3686L56.6283 22.3685ZM58.9467 17.695C59.1503 17.5903 59.4903 17.3436 59.7023 17.1467L60.0877 16.7888V15.3077V13.8265L59.8132 13.5939C58.8742 12.7977 57.8647 12.7372 57.1023 13.4313C56.6078 13.8814 56.39 14.5312 56.3833 15.5758C56.3753 16.8375 56.645 17.4765 57.3202 17.7958C57.7676 18.0073 58.4174 17.9671 58.9467 17.695V17.695ZM36.7843 18.6945C35.8892 17.8341 35.4679 16.4864 35.6471 15.0569C35.7927 13.8957 36.1442 13.1385 36.8356 12.4963C37.3842 11.9868 37.8995 11.7727 38.7119 11.7166C40.6906 11.5799 41.8638 12.94 41.8696 15.3772L41.8713 16.017C40.3608 16.0577 38.6337 15.9211 37.2296 16.1334C37.4349 17.4441 38.3751 18.4239 39.6818 18.4433C40.4669 18.4433 41.0317 18.2426 41.7866 18.0926L41.8095 19.2997C41.8095 19.2997 40.0466 19.7215 39.3753 19.7164C38.3449 19.7206 37.3667 19.2493 36.7845 18.6945H36.7843ZM40.2942 14.5389C40.2925 13.7874 39.8075 13.0816 39.2156 12.9697C38.2812 12.7931 37.5653 13.3388 37.3305 14.4065L37.248 14.7816H38.7714H40.2947L40.2943 14.5389H40.2942ZM48.2573 18.6945C47.3621 17.8341 46.9408 16.4864 47.12 15.0569C47.2657 13.8957 47.6171 13.1385 48.3085 12.4963C48.8571 11.9868 49.3724 11.7727 50.1848 11.7166C52.1636 11.5799 53.3367 12.94 53.3425 15.3772L53.3442 16.017C51.7321 15.996 50.1879 16.0028 48.6618 15.9902C48.7528 17.5379 49.7453 18.5235 51.1547 18.4434C51.9472 18.4589 52.6428 18.2414 53.2595 18.0927C53.3966 18.1781 53.3632 19.1566 53.219 19.2771C53.02 19.4435 51.5196 19.7216 50.8482 19.7165C49.8178 19.7207 48.8396 19.2492 48.2574 18.6945H48.2573ZM51.7671 14.5389C51.7655 13.7874 51.2805 13.0816 50.6885 12.9697C49.7542 12.7931 49.0382 13.3388 48.8034 14.4065L48.7209 14.7816H50.2443H51.7676L51.7672 14.5389H51.7671ZM70.1372 19.6028C69.0413 19.1909 68.5016 18.0031 68.861 16.7942C69.0047 16.311 69.5536 15.7165 70.1092 15.4426C70.6346 15.1836 71.6974 14.9658 72.4583 14.9611L72.9618 14.957V14.3349C72.9323 12.6542 71.6142 12.7635 70.3136 13.2393C69.9638 13.3662 69.5071 13.471 69.4228 13.4973C69.412 13.103 69.3711 12.8322 69.3711 12.229L70.0936 11.9986C70.5751 11.8451 71.1089 11.7515 71.6937 11.7179C73.0983 11.6373 73.8575 11.9477 74.3011 12.7839C74.4835 13.1277 74.4966 13.2856 74.5381 15.6339C74.582 18.1156 74.5824 18.1204 74.7944 18.3475C74.9216 18.4838 75.3865 18.616 75.5292 18.616C75.525 19.134 75.5846 19.1129 75.5225 19.5988C75.3182 19.6543 74.6388 19.7232 74.3852 19.702C73.8889 19.6605 73.5813 19.4509 73.3447 18.9926L73.2185 18.7483L72.8932 19.0106C72.1424 19.6161 70.8902 19.8847 70.1374 19.6017L70.1372 19.6028ZM71.9773 18.2749C72.1704 18.2062 72.4705 18.0573 72.644 17.9439L72.9597 17.7379V16.8333V15.9288H72.584C71.7005 15.9288 70.6483 16.3856 70.4325 16.8627C70.1948 17.3884 70.3938 18.0131 70.8751 18.2521C71.2334 18.43 71.522 18.436 71.9751 18.2747L71.9773 18.2749ZM29.8727 14.9581V10.3692H28.0774H26.282V9.75152V9.13384H30.7047H35.1275V9.75152V10.3692H33.3321H31.5368V14.9581V19.5469H30.7047H29.8727V14.9581ZM43.7979 14.0315V8.51611H44.5861H45.3743V14.0315V19.5469H44.5861H43.7979V14.0315ZM63.8536 15.7082V11.8626C64.3645 11.8798 64.8957 11.8559 65.4065 11.8726C65.4015 12.1902 65.4202 12.5065 65.4385 12.8231C66.1571 12.0276 66.9192 11.8229 67.5573 11.7544L68.145 11.693V12.4494V13.2059C67.1596 12.9144 66.1324 13.5707 65.6629 14.208C65.4825 14.4606 65.4718 14.5887 65.43 16.9878L65.3862 19.5028C64.8753 19.52 64.3644 19.5368 63.8536 19.554V15.7084L63.8536 15.7082ZM76.9029 15.7082V11.8695C77.4284 11.8695 77.9539 11.8695 78.4794 11.8695C78.4794 12.2209 78.4794 12.8343 78.4794 13.1857C79.1442 12.4326 79.9488 11.7236 80.844 11.7371C81.9385 11.6938 82.3869 12.4066 82.8753 13.1977C84.2438 11.6449 86.74 11.1987 87.5113 13.0455C87.5856 15.5677 87.5425 16.5037 87.503 19.5439C86.995 19.5611 86.5277 19.5371 86.0197 19.5539C86.043 17.5919 86.0147 15.374 85.9672 13.5317C85.7724 13.1456 85.4108 12.8422 84.7874 13.0082C84.164 13.1743 83.6001 13.6631 83.013 14.3533C83.013 16.0641 83.0334 17.8364 83.0334 19.5472H82.2485H81.4635C81.4469 17.5421 81.4298 15.5369 81.4131 13.5317C81.0983 13.1648 80.8472 12.95 80.2526 13.0928C79.6581 13.2355 78.8682 13.709 78.4792 14.4606C78.4792 16.1561 78.4588 17.8517 78.4588 19.5472C77.9334 19.5472 77.4282 19.5472 76.9027 19.5472C76.9027 18.2675 76.9027 16.9878 76.9027 15.7081L76.9029 15.7082Z" fill="gray"></path>
          <path d="M30.4823 3.85289C30.4583 4.35692 30.3357 4.7551 30.1143 5.04744C29.8929 5.33776 29.5927 5.48293 29.2138 5.48293C28.8528 5.48293 28.6115 5.32768 28.4898 5.0172C28.3881 5.17043 28.2694 5.28535 28.1338 5.36196C28.0002 5.43857 27.8596 5.47688 27.712 5.47688C27.4208 5.47688 27.1994 5.35591 27.0478 5.11397C26.8982 4.87204 26.8414 4.54845 26.8773 4.14321C26.9092 3.81458 26.988 3.51821 27.1136 3.2541C27.2413 2.98998 27.4018 2.78635 27.5953 2.64321C27.7907 2.49805 27.9982 2.42547 28.2176 2.42547C28.3851 2.42547 28.5327 2.44664 28.6603 2.48897C28.79 2.53131 28.9415 2.61901 29.1151 2.75208L28.9595 4.4547C28.9216 4.85389 29.0353 5.05349 29.3006 5.05349C29.504 5.05349 29.6705 4.94361 29.8002 4.72385C29.9318 4.50208 30.0036 4.21579 30.0156 3.86498C30.0495 3.12103 29.9069 2.55147 29.5878 2.15631C29.2706 1.76115 28.793 1.56357 28.1547 1.56357C27.7638 1.56357 27.4168 1.66236 27.1136 1.85994C26.8125 2.05752 26.5731 2.34381 26.3956 2.71881C26.2181 3.0918 26.1204 3.5172 26.1024 3.99502C26.0785 4.48091 26.1353 4.90026 26.273 5.25309C26.4126 5.60389 26.625 5.87103 26.9102 6.0545C27.1974 6.23797 27.5474 6.3297 27.9603 6.3297C28.1278 6.3297 28.3023 6.30954 28.4838 6.26922C28.6673 6.22889 28.8229 6.17446 28.9505 6.10591L29.0642 6.52022C28.9425 6.60087 28.778 6.66539 28.5706 6.71377C28.3652 6.76418 28.1577 6.78938 27.9483 6.78938C27.4417 6.78938 27.0069 6.68051 26.6439 6.46276C26.2809 6.24704 26.0087 5.93353 25.8272 5.52224C25.6397 5.09684 25.5569 4.58776 25.5789 3.99502C25.6028 3.4426 25.7255 2.94664 25.9469 2.50712C26.1683 2.06559 26.4704 1.72285 26.8533 1.47889C27.2383 1.23494 27.6761 1.11297 28.1667 1.11297C28.6633 1.11297 29.0901 1.22385 29.4471 1.44563C29.8061 1.66539 30.0744 1.98293 30.2519 2.39825C30.4294 2.81156 30.5062 3.29643 30.4823 3.85289ZM27.4637 4.14321C27.4377 4.4174 27.4617 4.62607 27.5355 4.76922C27.6092 4.91035 27.7269 4.98091 27.8885 4.98091C27.9962 4.98091 28.0979 4.93353 28.1936 4.83877C28.2894 4.742 28.3671 4.60994 28.427 4.4426L28.5616 2.95168C28.4619 2.91337 28.3652 2.89422 28.2714 2.89422C28.05 2.89422 27.8695 3.00006 27.7299 3.21176C27.5903 3.42143 27.5015 3.73192 27.4637 4.14321Z" fill="gray"></path>
          <path d="M32.7661 2.32869C33.173 2.32869 33.4991 2.4668 33.7444 2.74301C33.9897 3.0172 34.1124 3.39018 34.1124 3.86196V3.89825C34.1124 4.37002 33.9788 4.75208 33.7115 5.04442C33.4462 5.33676 33.0852 5.48293 32.6285 5.48293C32.1837 5.48293 31.8247 5.33373 31.5515 5.03535C31.2783 4.73696 31.1416 4.3297 31.1416 3.81357V3.60188C31.1416 2.89623 31.2653 2.33776 31.5126 1.92647C31.7599 1.51518 32.1289 1.25813 32.6195 1.1553C32.8948 1.09885 33.0723 1.03938 33.1521 0.976878C33.2338 0.912361 33.2747 0.825668 33.2747 0.716797H33.8611C33.8611 0.920426 33.8282 1.08575 33.7624 1.21276C33.6965 1.33978 33.5958 1.44361 33.4602 1.52426C33.3246 1.60289 33.0912 1.67748 32.7601 1.74805C32.457 1.81256 32.2256 1.92748 32.0661 2.09281C31.9085 2.25813 31.8028 2.48696 31.749 2.7793C32.0382 2.47889 32.3772 2.32869 32.7661 2.32869ZM32.6225 2.91841C32.3872 2.91841 32.2027 2.99906 32.0691 3.16035C31.9354 3.31962 31.8686 3.56559 31.8686 3.89825C31.8686 4.21276 31.9344 4.45772 32.0661 4.63313C32.1977 4.80853 32.3852 4.89623 32.6285 4.89623C32.8698 4.89623 33.0563 4.80853 33.188 4.63313C33.3216 4.45571 33.3884 4.18958 33.3884 3.83474C33.3884 3.55248 33.3216 3.3297 33.188 3.16639C33.0563 3.00107 32.8678 2.91841 32.6225 2.91841Z" fill="gray"></path>
          <path d="M34.6611 3.75309C34.6611 3.43252 34.7239 3.14422 34.8495 2.88817C34.9752 2.6301 35.1517 2.43252 35.3791 2.29543C35.6064 2.15631 35.8677 2.08676 36.1629 2.08676C36.5997 2.08676 36.9537 2.22889 37.2249 2.51317C37.4982 2.79744 37.6458 3.17446 37.6677 3.64422L37.6707 3.8166C37.6707 4.13918 37.6089 4.42748 37.4852 4.68151C37.3636 4.93555 37.1881 5.13212 36.9587 5.27123C36.7313 5.41035 36.4681 5.4799 36.1689 5.4799C35.7121 5.4799 35.3462 5.32668 35.0709 5.02022C34.7977 4.71176 34.6611 4.30147 34.6611 3.78938V3.75309ZM35.388 3.8166C35.388 4.15329 35.4569 4.4174 35.5945 4.60893C35.7321 4.79845 35.9236 4.89321 36.1689 4.89321C36.4142 4.89321 36.6047 4.79643 36.7403 4.60289C36.8779 4.40934 36.9467 4.12607 36.9467 3.75309C36.9467 3.42244 36.8759 3.16035 36.7343 2.9668C36.5947 2.77325 36.4042 2.67647 36.1629 2.67647C35.9256 2.67647 35.7371 2.77224 35.5975 2.96377C35.4579 3.15329 35.388 3.43756 35.388 3.8166Z" fill="gray"></path>
          <path d="M40.8581 2.73091H39.808V5.41942H39.081V2.73091H38.0429V2.14724H40.8581V2.73091Z" fill="gray">
          </path>
          <path d="M10.1363 21.2671C15.7345 21.2671 20.2727 16.6796 20.2727 11.0206C20.2727 5.36166 15.7345 0.77417 10.1363 0.77417C4.53819 0.77417 0 5.36166 0 11.0206C0 16.6796 4.53819 21.2671 10.1363 21.2671Z" fill="url(#telegram_footer_paint0_linear)"></path>
          <path d="M8.27802 15.717C7.94961 15.717 8.00544 15.5917 7.89217 15.2755L6.92651 12.063L14.3598 7.60522" fill="#C8DAEA"></path>
          <path d="M8.27808 15.717C8.53148 15.717 8.64341 15.5998 8.78489 15.4608L10.1364 14.1324L8.45056 13.1047" fill="#A9C9DD"></path>
          <path d="M8.45027 13.105L12.5352 16.1558C13.0014 16.4158 13.3378 16.2812 13.4539 15.7184L15.1167 7.79761C15.2869 7.10768 14.8565 6.79465 14.4105 6.99932L4.6467 10.8051C3.98023 11.0754 3.9842 11.4512 4.52523 11.6187L7.03085 12.4093L12.8316 8.70988C13.1055 8.54201 13.3568 8.63218 13.1506 8.8173" fill="white"></path>
          <defs>
            <linearGradient id="telegram_footer_paint0_linear" x1="13.5219" y1="4.19648" x2="8.3605" y2="16.1034" gradientUnits="userSpaceOnUse">
              <stop stop-color="#37AEE2"></stop>
              <stop offset="1" stop-color="#1E96C8"></stop>
            </linearGradient>
            <linearGradient id="paint1_linear" x1="11.407" y1="11.0215" x2="13.0178" y2="14.6521" gradientUnits="userSpaceOnUse">
              <stop stop-color="#EFF7FC"></stop>
              <stop offset="1" stop-color="white"></stop>
            </linearGradient>
          </defs>
        </svg>